<?xml version="1.0" encoding="utf-8"?>
<!-- Generator: Adobe Illustrator 23.0.1, SVG Export Plug-In . SVG Version: 6.00 Build 0)  -->
<svg version="1.1" id="Layer_1" xmlns="http://www.w3.org/2000/svg" xmlns:xlink="http://www.w3.org/1999/xlink" x="0px" y="0px"
	 viewBox="0 0 35 35" style="enable-background:new 0 0 35 35;" xml:space="preserve">
<style type="text/css">
	.st0{fill:#F9AB75;}
	.st1{fill:#F7E0AD;}
	.st2{fill:#412660;}
	.st3{fill:#D8D8D8;}
	.st4{fill:#F4F4F4;}
	.st5{opacity:0.4;fill:#FFFFFF;}
	.st6{fill:#FFFFFF;}
	.st7{opacity:0.6;fill:#56C2BF;}
	.st8{opacity:0.6;fill:#FFFFFF;}
	.st9{opacity:0.9;fill:#FFFFFF;}
	.st10{fill:#F5DECF;}
	.st11{fill:#ED9051;}
	.st12{clip-path:url(#SVGID_2_);fill:#F4F4F4;}
	.st13{fill:#FF7769;}
	.st14{opacity:0.6;}
	.st15{fill:#623F93;}
	.st16{opacity:0.5;fill:#412660;}
	.st17{fill:#B88FF9;}
	.st18{fill:#634D7C;}
	.st19{fill:#D8423F;}
	.st20{fill:#D3D3D3;}
	.st21{fill:#17ACA7;}
	.st22{fill:#6BCAC7;}
	.st23{fill:#52396E;}
	.st24{fill:#8669B6;}
	.st25{fill:#E2C07D;}
	.st26{fill:#FF7769;stroke:#FFFFFF;stroke-miterlimit:10;}
	.st27{fill:#D37A3D;}
	.st28{fill:#E0E0E0;}
	.st29{clip-path:url(#SVGID_4_);fill:#FF7769;}
	.st30{fill:#0F8781;}
	.st31{fill:#56C2BF;}
	.st32{fill:#AEEAF4;}
	.st33{fill:#3C2358;}
	.st34{fill:#BE99F9;}
	.st35{fill:#2CB3AF;}
	.st36{clip-path:url(#SVGID_6_);fill:#412660;}
	.st37{clip-path:url(#SVGID_8_);}
	.st38{clip-path:url(#SVGID_10_);}
	.st39{fill:none;stroke:#0F8781;stroke-width:0.25;stroke-linecap:round;stroke-linejoin:round;stroke-miterlimit:10;}
	.st40{clip-path:url(#SVGID_12_);fill:#0F8781;}
	.st41{opacity:0.5;fill:#B88FF9;}
	.st42{clip-path:url(#SVGID_14_);}
	.st43{fill:none;stroke:#0F8781;stroke-width:0.75;stroke-miterlimit:10;}
	.st44{fill:none;stroke:#FFFFFF;stroke-width:0.75;stroke-miterlimit:10;}
	.st45{fill:none;stroke:#F7E0AD;stroke-miterlimit:10;}
	.st46{fill:none;stroke:#0F8781;stroke-width:2;stroke-linecap:round;stroke-linejoin:round;stroke-miterlimit:10;}
</style>
<g>
	<g>
		<path class="st1" d="M14.07,21.32c-2.7,0-4.89,2.19-4.89,4.89c0,2.7,2.19,4.89,4.89,4.89c2.7,0,4.89-2.19,4.89-4.89
			C18.96,23.52,16.77,21.32,14.07,21.32z M16.07,26.22c0,1.1-0.9,2-2,2s-2-0.9-2-2c0-1.1,0.9-2,2-2
			C15.17,24.22,16.07,25.11,16.07,26.22z"/>
		<path class="st0" d="M7.15,14.4c-2.7,0-4.89,2.19-4.89,4.89c0,2.7,2.19,4.89,4.89,4.89c2.7,0,4.89-2.19,4.89-4.89
			C12.04,16.6,9.85,14.4,7.15,14.4z M9.15,19.3c0,1.1-0.9,2-2,2s-2-0.9-2-2c0-1.1,0.9-2,2-2C8.25,17.3,9.15,18.19,9.15,19.3z"/>
	</g>
	<g>
		<path class="st1" d="M30.02,23.78c1.91-1.91,1.91-5.01,0-6.92c-1.91-1.91-5.01-1.91-6.92,0c-1.91,1.91-1.91,5.01,0,6.92
			C25.01,25.69,28.11,25.69,30.02,23.78z M25.15,21.74c-0.78-0.78-0.78-2.05,0-2.83s2.05-0.78,2.83,0c0.78,0.78,0.78,2.05,0,2.83
			C27.2,22.52,25.93,22.52,25.15,21.74z"/>
		<path class="st0" d="M30.02,33.57c1.91-1.91,1.91-5.01,0-6.92c-1.91-1.91-5.01-1.91-6.92,0c-1.91,1.91-1.91,5.01,0,6.92
			C25.01,35.48,28.11,35.48,30.02,33.57z M25.15,31.52c-0.78-0.78-0.78-2.05,0-2.83s2.05-0.78,2.83,0c0.78,0.78,0.78,2.05,0,2.83
			C27.2,32.3,25.93,32.3,25.15,31.52z"/>
	</g>
	<path class="st1" d="M16.78,8.35c1.91-1.91,1.91-5.01,0-6.92c-1.91-1.91-5.01-1.91-6.92,0c-1.91,1.91-1.91,5.01,0,6.92
		C11.77,10.26,14.87,10.26,16.78,8.35z M11.91,6.31c-0.78-0.78-0.78-2.05,0-2.83s2.05-0.78,2.83,0c0.78,0.78,0.78,2.05,0,2.83
		C13.96,7.09,12.69,7.09,11.91,6.31z"/>
	<path class="st0" d="M26.57,13.99c1.91-1.91,1.91-5.01,0-6.92c-1.91-1.91-5.01-1.91-6.92,0c-1.91,1.91-1.91,5.01,0,6.92
		C21.56,15.9,24.66,15.9,26.57,13.99z M21.69,11.95c-0.78-0.78-0.78-2.05,0-2.83s2.05-0.78,2.83,0c0.78,0.78,0.78,2.05,0,2.83
		C23.74,12.73,22.48,12.73,21.69,11.95z"/>
</g>
</svg>
