<svg id="Group_20564" data-name="Group 20564" xmlns="http://www.w3.org/2000/svg" width="21.221" height="36.806" viewBox="0 0 21.221 36.806">
  <path id="Path_6704" data-name="Path 6704" d="M25.815,35.671H10.167L8,22.894A.776.776,0,0,1,8.768,22H27.2a.789.789,0,0,1,.778.894Z" transform="translate(-7.38 1.135)" fill="#56c2bf"/>
  <path id="Path_6705" data-name="Path 6705" d="M26.654,18.617h-1.8a1.933,1.933,0,0,0-.473-3.807H21.8a1.935,1.935,0,0,0,0-3.87H14.245a1.935,1.935,0,0,0,0,3.87H11.658a1.933,1.933,0,0,0-.473,3.807h-1.8a1.977,1.977,0,0,0,0,3.954H26.654a1.977,1.977,0,1,0,0-3.954Z" transform="translate(-7.41 0.565)" fill="#b88ff9"/>
  <g id="Group_20576" data-name="Group 20576" transform="translate(7.855)">
    <g id="Group_20574" data-name="Group 20574" transform="translate(0 6.026)">
      <ellipse id="Ellipse_254" data-name="Ellipse 254" cx="2.745" cy="2.745" rx="2.745" ry="2.745" fill="#ff7769"/>
    </g>
    <g id="Group_20575" data-name="Group 20575" transform="translate(2.482)">
      <path id="Path_6706" data-name="Path 6706" d="M17.766,6.215H17.24A6.22,6.22,0,0,1,23.455,0V.526A5.7,5.7,0,0,0,17.766,6.215Z" transform="translate(-17.24)" fill="#ff7769"/>
    </g>
  </g>
</svg>
