<svg xmlns="http://www.w3.org/2000/svg" width="42.286" height="34.656" viewBox="0 0 42.286 34.656">
  <g id="Group_20568" data-name="Group 20568" transform="matrix(0.966, 0.259, -0.259, 0.966, 6.734, 0)">
    <path id="Path_6751" data-name="Path 6751" d="M36.806,9.78a2.654,2.654,0,0,0-.694-1.819,2.085,2.085,0,0,1,0-2.86,2.676,2.676,0,0,0,.694-1.819,2.654,2.654,0,0,0-.694-1.819,2.035,2.035,0,0,1-.568-1.43L19.675,10.306a3.776,3.776,0,0,1-2.545,0L1.262,0A1.988,1.988,0,0,1,.694,1.42,2.676,2.676,0,0,0,0,3.239,2.676,2.676,0,0,0,.694,5.058a2.035,2.035,0,0,1,.568,1.43,2.035,2.035,0,0,1-.568,1.43,2.731,2.731,0,0,0,0,3.639,2.035,2.035,0,0,1,.568,1.43,2.035,2.035,0,0,1-.568,1.43,2.731,2.731,0,0,0,0,3.639,2.035,2.035,0,0,1,.568,1.43,2.035,2.035,0,0,1-.568,1.43,2.731,2.731,0,0,0,0,3.639,2.035,2.035,0,0,1,.568,1.43L17.131,15.711a3.776,3.776,0,0,1,2.545,0L35.544,26.017a1.988,1.988,0,0,1,.568-1.42,2.731,2.731,0,0,0,0-3.639,2.085,2.085,0,0,1,0-2.86,2.731,2.731,0,0,0,0-3.639,2.085,2.085,0,0,1,0-2.86A2.676,2.676,0,0,0,36.806,9.78Z" transform="translate(0)" fill="#b88ff9"/>
    <g id="Group_20620" data-name="Group 20620" transform="translate(10.003 10.832)">
      <path id="Path_6752" data-name="Path 6752" d="M6.709,3.712h0a2.166,2.166,0,0,1-2.45.431L0,2.177,4.259.2a2.183,2.183,0,0,1,2.45.431h0A2.177,2.177,0,0,1,6.709,3.712Z" transform="translate(9.451 0)" fill="#623f93"/>
      <path id="Path_6753" data-name="Path 6753" d="M.639.636h0A2.166,2.166,0,0,1,3.089.2L7.348,2.181,3.089,4.158a2.183,2.183,0,0,1-2.45-.431h0A2.19,2.19,0,0,1,.639.636Z" transform="translate(0 0.006)" fill="#623f93"/>
    </g>
  </g>
</svg>
