<svg xmlns="http://www.w3.org/2000/svg" width="146.451" height="50.747" viewBox="0 0 146.451 50.747">
  <g id="Group_2604" data-name="Group 2604" transform="translate(-131.807 -264.568)">
    <path id="Path_928" data-name="Path 928" d="M131.807,269.661h13.568l-13.568,20.845v1.142h22.225v-5.113H140.467l13.566-20.81v-1.142H131.807Z" transform="translate(0 -0.003)" fill="#17aba6"/>
    <path id="Path_929" data-name="Path 929" d="M315.217,278.734a9.167,9.167,0,0,0-1.307-1.261,9.577,9.577,0,0,0-1.594-.954,12.7,12.7,0,0,0-1.966-.672c-1.243-.255-2.312-.506-3.18-.747a13.928,13.928,0,0,1-2.557-.9,4.457,4.457,0,0,1-.657-.417,1.243,1.243,0,0,1-.539-1.117v-.118a2.614,2.614,0,0,1,.358-1.283,2.516,2.516,0,0,1,.476-.611,4.566,4.566,0,0,1,3.219-1.1,4.493,4.493,0,0,1,3.358,1.363,3.37,3.37,0,0,1,.526.661l.381.816,4.762-2.247-.452-.786c-.156-.271-.331-.542-.515-.8a10.277,10.277,0,0,0-1.135-1.311,10.732,10.732,0,0,0-2.383-1.656,10.071,10.071,0,0,0-4.366-1.019h-.3a11.146,11.146,0,0,0-3.028.427,9.915,9.915,0,0,0-1.594.613,10.273,10.273,0,0,0-1.423.885,8.592,8.592,0,0,0-1.274,1.2,7.453,7.453,0,0,0-1.843,4.894c0,2.741,1.43,4.806,4.235,6.131a25.764,25.764,0,0,0,5.663,1.737,8.24,8.24,0,0,1,1.759.46,3.979,3.979,0,0,1,.607.305,2.363,2.363,0,0,1,1.148,2.072,3.081,3.081,0,0,1-.478,1.625,3.445,3.445,0,0,1-.524.617,4.687,4.687,0,0,1-.651.465,5.546,5.546,0,0,1-2.578.639h-.124a5.381,5.381,0,0,1-2.58-.657,5.257,5.257,0,0,1-.918-.675,4.233,4.233,0,0,1-.607-.648,5.946,5.946,0,0,1-.681-1.09l-.372-.8-4.618,2.041a9.927,9.927,0,0,0,.63,1.568,10.1,10.1,0,0,0,2.023,2.525c.354.313.7.592,1.048.848a10.758,10.758,0,0,0,6.128,1.881,11.247,11.247,0,0,0,4.189-.811,9.84,9.84,0,0,0,1.354-.664,9.94,9.94,0,0,0,1.535-1.16,7.58,7.58,0,0,0,.924-1.073,7.933,7.933,0,0,0,1.515-4.667,7.257,7.257,0,0,0-1.6-4.539" transform="translate(-38.554 -0.003)" fill="#17aba6"/>
    <path id="Path_930" data-name="Path 930" d="M262.7,281.089s3.444-8.491,3.706-9.142l3.712,9.142Zm5.886-16.506H264.24L253.3,291.648h5.112L260.6,286.2h11.592l2.211,5.445h5.112Z" transform="translate(-28.274 -0.003)" fill="#17aba6"/>
    <path id="Path_931" data-name="Path 931" d="M287.471,264.568v3.872h1.621c.14,1.467-1.621,2.194-1.621,2.194v1.914a4.834,4.834,0,0,0,4.008-4.783v-3.2Z" transform="translate(-36.228)" fill="#17aba6"/>
    <path id="Path_932" data-name="Path 932" d="M197.8,282.061a9.775,9.775,0,0,1-2.893,6.094l-.09.1c-.122.133-.248.258-.381.381l-.1.086a9.779,9.779,0,0,1-6.094,2.9c-.276.018-.552.029-.829.029a11.552,11.552,0,0,1-5.513-1.432,13.839,13.839,0,0,1-4.848-4.68,56.567,56.567,0,0,1-2.7-5.021c-1.091-2.139-1.6-3.23-2-4.095a15.559,15.559,0,0,1-1.59-5.631,5.948,5.948,0,0,1,6.2-6.2,15.5,15.5,0,0,1,5.631,1.593c.862.388,1.949.9,4.084,1.985,2.875,1.468,4.317,2.2,5.032,2.7a20.7,20.7,0,0,1,2.362,1.856,11.748,11.748,0,0,1,3.718,9.335" transform="translate(-9.067 -0.004)" fill="#402661"/>
    <path id="Path_933" data-name="Path 933" d="M194.413,279.687h0a6.042,6.042,0,1,0,0,8.544,6.042,6.042,0,0,0,0-8.544" transform="translate(-12.17 -3.107)" fill="#17aba6"/>
    <path id="Path_934" data-name="Path 934" d="M238.734,264.582h-6.2l-6.813,9.249-6.812-9.249h-6.2l10.555,14.374v12.691h5.016v-12.81Z" transform="translate(-18.827 -0.003)" fill="#17aba6"/>
    <path id="Path_935" data-name="Path 935" d="M247.252,320.719a2.977,2.977,0,0,1-2.115-.864,2.934,2.934,0,0,1-.864-2.115v-3.751H243.1V312.1h1.176v-3.328h2.188V312.1h2.446v1.894H246.46V317.7a.9.9,0,0,0,.809.882h1.6l.589,2.133Z" transform="translate(-25.9 -10.287)" fill="#402661"/>
    <path id="Path_936" data-name="Path 936" d="M147.127,317.445a2.17,2.17,0,1,0-2.169,2.225,2.221,2.221,0,0,0,2.169-2.225m.938-3.107a4.394,4.394,0,0,1,0,6.215,4.347,4.347,0,0,1-3.107,1.269,3.014,3.014,0,0,1-2.079-.827l-.091-.074v5.68h-2.225V313.069h2.225v.828l.091-.092a2.771,2.771,0,0,1,2.079-.736,4.41,4.41,0,0,1,3.107,1.269" transform="translate(-2.038 -11.288)" fill="#402661"/>
    <path id="Path_937" data-name="Path 937" d="M177.229,317.445a2.17,2.17,0,1,0,2.17-2.224,2.222,2.222,0,0,0-2.17,2.224m-.938,3.108a4.4,4.4,0,0,1,0-6.215,4.35,4.35,0,0,1,3.108-1.269,3.013,3.013,0,0,1,2.078.827l.092.074-.014-.9h2.225l.014,8.587h-2.225v-.662l-.092.092a2.77,2.77,0,0,1-2.078.736,4.414,4.414,0,0,1-3.108-1.269" transform="translate(-10.053 -11.288)" fill="#402661"/>
    <path id="Path_938" data-name="Path 938" d="M215.312,321.656v-4.505a1.759,1.759,0,0,0-1.784-1.766,1.794,1.794,0,0,0-1.784,1.766v4.505h-2.3v-8.587h2.3v.772a2.432,2.432,0,0,1,1.784-.772,4.049,4.049,0,0,1,4.1,4.082v4.505Z" transform="translate(-18.069 -11.288)" fill="#402661"/>
    <path id="Path_939" data-name="Path 939" d="M274.374,321.693v-8.624h2.317v.882a3.412,3.412,0,0,1,2.317-.882h.552l-.552,2.3h-.35a1.925,1.925,0,0,0-1.967,1.858v4.469Z" transform="translate(-33.18 -11.288)" fill="#402661"/>
    <path id="Path_940" data-name="Path 940" d="M305.392,326.6l2.09-5.094-3.365-8.44h2.464l2.1,5.24,2.133-5.24h2.446L307.8,326.6Z" transform="translate(-40.102 -11.288)" fill="#402661"/>
  </g>
</svg>
