<?xml version="1.0" encoding="utf-8"?>
<!-- Generator: Adobe Illustrator 23.0.1, SVG Export Plug-In . SVG Version: 6.00 Build 0)  -->
<svg version="1.1" id="Layer_1" xmlns="http://www.w3.org/2000/svg" xmlns:xlink="http://www.w3.org/1999/xlink" x="0px" y="0px"
	 viewBox="0 0 35 35" style="enable-background:new 0 0 35 35;" xml:space="preserve">
<style type="text/css">
	.st0{fill:#C70024;}
	.st1{fill:#56C2BF;}
	.st2{fill:none;stroke:#0F8781;stroke-linecap:round;stroke-linejoin:round;stroke-miterlimit:10;}
	.st3{fill:#0F8781;}
	.st4{fill:none;stroke:#56C2BF;stroke-linecap:round;stroke-linejoin:round;stroke-miterlimit:10;}
	.st5{fill:#F9AB75;}
	.st6{fill:#F7E0AD;}
	.st7{fill:#412660;}
	.st8{fill:#D8D8D8;}
	.st9{fill:#F4F4F4;}
	.st10{opacity:0.4;fill:#FFFFFF;}
	.st11{fill:#FFFFFF;}
	.st12{opacity:0.6;fill:#56C2BF;}
	.st13{opacity:0.6;fill:#FFFFFF;}
	.st14{opacity:0.9;fill:#FFFFFF;}
	.st15{fill:#F5DECF;}
	.st16{fill:#ED9051;}
	.st17{clip-path:url(#SVGID_2_);fill:#F4F4F4;}
	.st18{fill:#FF7769;}
	.st19{opacity:0.6;}
	.st20{fill:#623F93;}
	.st21{opacity:0.5;fill:#412660;}
	.st22{fill:#B88FF9;}
	.st23{fill:#634D7C;}
	.st24{fill:#D8423F;}
	.st25{fill:#D3D3D3;}
	.st26{fill:#17ACA7;}
	.st27{fill:#6BCAC7;}
	.st28{fill:#52396E;}
	.st29{fill:#8669B6;}
	.st30{fill:#E2C07D;}
	.st31{fill:#FF7769;stroke:#FFFFFF;stroke-miterlimit:10;}
	.st32{fill:#D37A3D;}
	.st33{fill:#E0E0E0;}
	.st34{clip-path:url(#SVGID_4_);fill:#FF7769;}
	.st35{fill:#AEEAF4;}
	.st36{fill:#3C2358;}
	.st37{fill:#BE99F9;}
	.st38{fill:#2CB3AF;}
	.st39{clip-path:url(#SVGID_6_);fill:#412660;}
	.st40{clip-path:url(#SVGID_8_);}
	.st41{clip-path:url(#SVGID_10_);}
	.st42{fill:none;stroke:#0F8781;stroke-width:0.25;stroke-linecap:round;stroke-linejoin:round;stroke-miterlimit:10;}
	.st43{clip-path:url(#SVGID_12_);fill:#0F8781;}
	.st44{opacity:0.5;fill:#B88FF9;}
	.st45{clip-path:url(#SVGID_14_);}
	.st46{fill:none;stroke:#0F8781;stroke-width:0.75;stroke-miterlimit:10;}
	.st47{fill:none;stroke:#FFFFFF;stroke-width:0.75;stroke-miterlimit:10;}
	.st48{fill:none;stroke:#F7E0AD;stroke-miterlimit:10;}
	.st49{fill:none;stroke:#0F8781;stroke-width:2;stroke-linecap:round;stroke-linejoin:round;stroke-miterlimit:10;}
	.st50{fill:none;stroke:#56C2BF;stroke-width:0.75;stroke-linecap:round;stroke-linejoin:round;stroke-miterlimit:10;}
	.st51{fill:none;stroke:#412660;stroke-width:0.5;stroke-miterlimit:10;}
	.st52{fill:none;stroke:#412660;stroke-width:0.5;stroke-linecap:round;stroke-linejoin:round;stroke-miterlimit:10;}
</style>
<g>
	<circle class="st7" cx="13.2" cy="26.5" r="1.08"/>
	<circle class="st7" cx="15.5" cy="30.17" r="1.08"/>
	<circle class="st7" cx="17.61" cy="23.81" r="1.08"/>
	<circle class="st7" cx="16.98" cy="27.02" r="1.08"/>
	<circle class="st7" cx="20.82" cy="29.88" r="1.08"/>
</g>
<g>
	<line class="st50" x1="9.1" y1="3.59" x2="9.1" y2="35"/>
	<g>
		<line class="st50" x1="5.06" y1="11.26" x2="9.03" y2="15.22"/>
		<g>
			<path class="st2" d="M5.08,6.2c1.4,1.4,1.4,3.68,0,5.08s-3.68,1.4-5.08,0"/>
			<path class="st2" d="M3.6,7.68c1.4,1.4,2.07,3.01,1.48,3.6c-0.58,0.58-2.19-0.08-3.6-1.48"/>
		</g>
	</g>
	<g>
		<line class="st50" x1="5.13" y1="19.85" x2="9.1" y2="23.81"/>
		<g>
			<path class="st2" d="M5.15,14.78c1.4,1.4,1.4,3.68,0,5.08c-1.4,1.4-3.68,1.4-5.08,0"/>
			<path class="st2" d="M3.67,16.27c1.4,1.4,2.07,3.01,1.48,3.6c-0.58,0.58-2.19-0.08-3.6-1.48"/>
		</g>
	</g>
	<g>
		<line class="st50" x1="13.13" y1="8.9" x2="9.17" y2="12.86"/>
		<g>
			<path class="st2" d="M13.11,3.83c-1.4,1.4-1.4,3.68,0,5.08s3.68,1.4,5.08,0"/>
			<path class="st2" d="M14.6,5.31c-1.4,1.4-2.07,3.01-1.48,3.6s2.19-0.08,3.6-1.48"/>
		</g>
	</g>
	<g>
		<line class="st50" x1="13.06" y1="17.48" x2="9.1" y2="21.44"/>
		<g>
			<path class="st2" d="M13.04,12.42c-1.4,1.4-1.4,3.68,0,5.08s3.68,1.4,5.08,0"/>
			<path class="st2" d="M14.53,13.9c-1.4,1.4-2.07,3.01-1.48,3.6c0.58,0.58,2.19-0.08,3.6-1.48"/>
		</g>
	</g>
	<g>
		<path class="st2" d="M12.69,0c0,1.98-1.61,3.59-3.59,3.59S5.5,1.98,5.5,0"/>
		<path class="st2" d="M10.59,0c0,1.98-0.67,3.59-1.49,3.59S7.6,1.98,7.6,0"/>
	</g>
</g>
<g>
	<path class="st18" d="M31.96,20.07c-1.32,0.18-2.33,1.3-2.32,2.63c0.05,5.34-2.35,9.21-4.96,9.56l0,0c-0.2,0.03-0.36,0.2-0.36,0.41
		c0,0.21,0.16,0.38,0.36,0.41l0,0c7.08,1.39,10.38-2.55,10.32-10.38C34.99,21.1,33.55,19.86,31.96,20.07z"/>
	<g>
		<path class="st7" d="M35,22.88l-0.9,0.4l-0.9-0.4l-0.9,0.4l-0.89-0.4l-0.89,0.4l-0.9-0.4l0-0.18c0-1.48,1.21-2.68,2.69-2.68
			c1.48,0,2.69,1.2,2.69,2.68L35,22.88z"/>
		<path class="st52" d="M32.31,20.14c0-1.36-1.1-2.47-2.47-2.47"/>
	</g>
	<path class="st18" d="M30.94,8.36c0.81,1.06,0.73,2.57-0.22,3.5c-3.81,3.74-4.85,8.18-3.26,10.27l0,0c0.12,0.16,0.11,0.4-0.03,0.54
		c-0.15,0.15-0.38,0.15-0.54,0.03l0,0c-5.99-4.02-5.53-9.14,0.04-14.63C28.07,6.94,29.96,7.08,30.94,8.36z"/>
	<g>
		<path class="st7" d="M26.8,8.2l0.35,0.91l0.92,0.35l0.35,0.92l0.91,0.35l0.35,0.91L30.6,12l0.13-0.13
			c1.05-1.05,1.04-2.75-0.01-3.8c-1.05-1.05-2.75-1.05-3.8-0.01L26.8,8.2z"/>
		<path class="st52" d="M30.64,8.16c0.97-0.97,2.53-0.97,3.49,0"/>
	</g>
</g>
</svg>
