<?xml version="1.0" encoding="utf-8"?>
<!-- Generator: Adobe Illustrator 22.0.0, SVG Export Plug-In . SVG Version: 6.00 Build 0)  -->
<svg version="1.1" id="Layer_1" xmlns="http://www.w3.org/2000/svg" xmlns:xlink="http://www.w3.org/1999/xlink" x="0px" y="0px"
	 viewBox="0 0 35 35" style="enable-background:new 0 0 35 35;" xml:space="preserve">
<style type="text/css">
	.st0{fill:#FF7769;}
	.st1{fill:#F7E0AD;}
	.st2{fill:#F9AB75;}
</style>
<g>
	<path class="st0" d="M19.8,5.6V2.5h-4.6v3.1C11,6.6,8,10.3,8,14.8V33c0,1.1,0.9,2,2,2h15c1.1,0,2-0.9,2-2V14.8
		C27,10.3,24,6.6,19.8,5.6z"/>
	<path class="st1" d="M11,31.9V14.8c0-3.6,2.9-6.5,6.5-6.5s6.5,2.9,6.5,6.5v17.1H11z"/>
	<path class="st2" d="M20.1,3h-5.2c-0.3,0-0.5-0.2-0.5-0.5v-2c0-0.3,0.2-0.5,0.5-0.5h5.2c0.3,0,0.5,0.2,0.5,0.5v2
		C20.6,2.8,20.4,3,20.1,3z"/>
</g>
</svg>
