<svg id="Group_20563" data-name="Group 20563" xmlns="http://www.w3.org/2000/svg" width="36.806" height="34.733" viewBox="0 0 36.806 34.733">
  <path id="Path_6693" data-name="Path 6693" d="M10.274,35.675h0a6.514,6.514,0,0,1-7.382-4.743L0,20.08l10.863,2.892a6.518,6.518,0,0,1,4.743,7.382h0A6.527,6.527,0,0,1,10.274,35.675Z" transform="translate(0 -1.035)" fill="#b88ff9"/>
  <path id="Path_6694" data-name="Path 6694" d="M20.165,24.524h0a6.514,6.514,0,0,1,4.743-7.382L35.77,14.25,32.878,25.113A6.518,6.518,0,0,1,25.5,29.856h0A6.539,6.539,0,0,1,20.165,24.524Z" transform="translate(1.036 -1.336)" fill="#b88ff9"/>
  <path id="Path_6695" data-name="Path 6695" d="M8.284,17.113h0A6.506,6.506,0,0,1,10.1,8.532L19.231,1.97l1.146,11.179a6.5,6.5,0,0,1-5.216,7.046h0A6.516,6.516,0,0,1,8.284,17.113Z" transform="translate(0.381 -1.97)" fill="#b88ff9"/>
</svg>
