<svg id="Group_20574" data-name="Group 20574" xmlns="http://www.w3.org/2000/svg" width="15.217" height="36.806" viewBox="0 0 15.217 36.806">
  <path id="Path_6773" data-name="Path 6773" d="M25.587,33.795A2.383,2.383,0,0,1,23.2,36.171H12.757a2.383,2.383,0,0,1-2.387-2.377L11.3,13.12H24.661Z" transform="translate(-10.37 0.635)" fill="#f9ab75"/>
  <path id="Path_6774" data-name="Path 6774" d="M18.714,30.253H16.6V1.922L18.714.04Z" transform="translate(-10.049 -0.04)" fill="#56c2bf"/>
  <path id="Path_6775" data-name="Path 6775" d="M23.888,32.941a1.22,1.22,0,0,1-1.22,1.178H13.13a1.23,1.23,0,0,1-1.22-1.23l.242-6.183,11.21-4.385Z" transform="translate(-10.291 1.11)" fill="#f7e0ad"/>
  <path id="Path_6776" data-name="Path 6776" d="M24.616,13.255H11.25l.011-.179a2.677,2.677,0,0,1,2.682-2.566h7.982a2.684,2.684,0,0,1,2.682,2.566Z" transform="translate(-10.325 0.5)" fill="#f7e0ad"/>
</svg>
