<svg id="Group_20571" data-name="Group 20571" xmlns="http://www.w3.org/2000/svg" width="36.806" height="32.526" viewBox="0 0 36.806 32.526">
  <g id="Group_20624" data-name="Group 20624" transform="translate(13.713 0)">
    <ellipse id="Ellipse_260" data-name="Ellipse 260" cx="11.547" cy="11.547" rx="11.547" ry="11.547" fill="#623f93"/>
    <path id="Path_6759" data-name="Path 6759" d="M24.606,9.981a.694.694,0,0,1,.242.778l-.358,1.052a.7.7,0,0,0,1.062.8l.915-.641a.694.694,0,0,1,.82.011l.894.673a.7.7,0,0,0,1.083-.757l-.326-1.062a.721.721,0,0,1,.263-.778l.915-.641a.7.7,0,0,0-.389-1.262l-1.115-.021a.675.675,0,0,1-.652-.494l-.326-1.062a.7.7,0,0,0-1.325-.021L25.952,7.6a.7.7,0,0,1-.673.473l-1.115-.021a.7.7,0,0,0-.431,1.251Zm.873-.3a1.441,1.441,0,1,1,1.441,1.441A1.436,1.436,0,0,1,25.479,9.676Z" transform="translate(-12.502 -3.966)" fill="#b88ff9"/>
  </g>
  <g id="Group_20625" data-name="Group 20625" transform="translate(0 9.433)">
    <ellipse id="Ellipse_261" data-name="Ellipse 261" cx="11.547" cy="11.547" rx="11.547" ry="11.547" fill="#b88ff9"/>
    <path id="Path_6760" data-name="Path 6760" d="M11.628,18.288a.7.7,0,0,0-.431-1.251l-1.115.021a.715.715,0,0,1-.673-.473l-.358-1.052a.7.7,0,0,0-1.325.021L7.4,16.616a.715.715,0,0,1-.663.484l-1.115.021a.693.693,0,0,0-.389,1.262l.915.641a.7.7,0,0,1,.263.778l-.326,1.062a.694.694,0,0,0,1.083.757l.894-.673a.694.694,0,0,1,.82-.011l.915.641a.7.7,0,0,0,1.062-.8L10.5,19.729a.694.694,0,0,1,.242-.778Zm-3.207,1.8a1.441,1.441,0,1,1,1.441-1.441A1.436,1.436,0,0,1,8.421,20.087Z" transform="translate(0.255 -12.936)" fill="#623f93"/>
  </g>
</svg>
