<svg xmlns="http://www.w3.org/2000/svg" xmlns:xlink="http://www.w3.org/1999/xlink" viewBox="0 0 590.2 585.4"><style>.st0{fill:#d8d8d8}.st1{fill:#f4f4f4}.st3{fill:#fff}.st4,.st5,.st6{opacity:.6;fill:#56c2bf;enable-background:new}.st5,.st6{fill:#fff}.st6{opacity:.9}.st7{fill:#f5decf}.st8{fill:#17aca7}.st9{fill:#6bcac7}.st11{fill:#ed9051}.st12{fill:#f9ab75}.st13{fill:#b88ff9}.st14{fill:#d37a3d}.st15{fill:#e0e0e0}.st16{fill:#412660}.st17{fill:#623f93}.st18{fill:#634d7c}.st19{opacity:.5;fill:#412660;enable-background:new}.st21{fill:#ff7769}.st22{fill:#8669b6}.st24{opacity:.6}.st25{fill:#f7e0ad}.st26{fill:#d8423f}.st27{fill:#d3d3d3}.st28{fill:#52396e}.st29{fill:#e2c07d}.st31{enable-background:new}.st32{fill:#0f8781}.st34{fill:#be99f9}.st36{fill:#aeeaf4}</style><g id="Layer_21"><path class="st0" d="M240.9 415.1l8.4 5.2V72.2h-8.4z"/><path class="st1" d="M249.3 420.3l8.4-5.2V72.2h-8.4z"/><path class="st1" d="M248.7 77.7l-7.4-4.7c-.6-.4-.6-1.3 0-1.7l7.4-4.7c.3-.2.7-.2 1.1 0l7.4 4.7c.6.4.6 1.3 0 1.7l-7.4 4.7c-.3.2-.7.2-1.1 0z"/><path class="st0" d="M519.3 422.1l8.5 5.3V159.3h-8.5z"/><path class="st1" d="M527.8 427.4l8.4-5.3V159.3h-8.4z"/><path class="st1" d="M527.2 164.8l-7.4-4.7c-.6-.4-.6-1.3 0-1.7l7.4-4.7c.3-.2.7-.2 1 0l7.4 4.7c.6.4.6 1.3 0 1.7l-7.4 4.7c-.2.2-.7.2-1 0z"/><g><path class="st0" d="M61 442.1l-8.4 5.3V179.3H61z"/><path class="st1" d="M52.6 447.4l-8.4-5.3V179.3h8.4z"/><path class="st1" d="M53.1 184.8l7.4-4.7c.6-.4.6-1.3 0-1.7l-7.4-4.7c-.3-.2-.7-.2-1 0l-7.4 4.7c-.6.4-.6 1.3 0 1.7l7.4 4.7c.3.2.7.2 1 0z"/></g><g><path class="st0" d="M350.7 395.1l-8.4 5.2V52.2h8.4z"/><path class="st1" d="M342.3 400.3l-8.4-5.2V52.2h8.4z"/><g><path class="st1" d="M342.8 57.7l7.4-4.7c.6-.4.6-1.3 0-1.7l-7.4-4.7c-.3-.2-.7-.2-1 0l-7.4 4.7c-.6.4-.6 1.3 0 1.7l7.4 4.7c.3.2.7.2 1 0z"/></g></g></g><g id="Layer_17"><path d="M362.4 370c-.5.3-64.5 81.8-64.5 81.8-1.2-.8-1.7-2.1-1.6-3.4v-118h.1l2.5.6 63.5 39z" opacity=".4" fill="#fff"/><path class="st1" d="M296.3 330.5v1.7h-.9c-.2.2-.5.5-.8.6l-107.4 65.6-110.4 67.4c-.5.3-1.2.5-1.8.5v-69.4l221.3-66.4z"/><path class="st0" d="M536 385c-.2.8-.7 1.4-1.5 1.9l-71.7 44.5c-.5.3-1.1.5-1.8.5v119c-.6 0-1.2-.2-1.8-.5l-54-33-107.4-65.6c-1.2-.8-1.7-2.1-1.6-3.4V330.5h.1l2.5.6L461.1 368l74.9 17z"/><path class="st3" d="M447 532.4c-30.3-18.7-92.6-57.4-139.8-86.7-.6-.4-.9-1-.9-1.7v-90.5c0-1.6 1.7-2.5 3-1.7L449 437.5c.6.4 1 1 1 1.7 0 3.2 0 7.3-.1 12.2v41.1c0 13.6.1 27.3.1 38.2 0 1.6-1.7 2.5-3 1.7z"/><path class="st1" d="M296.3 448.4c.1 1.3-.4 2.6-1.6 3.4l-107.4 65.6-110.5 67.4c-.6.3-1.2.5-1.8.5v-119c.6 0 1.2-.2 1.8-.5l110.3-67.4 107.4-65.6c.3-.2.5-.4.8-.6h.9v116.2z"/><path class="st4" d="M86 471.9l197.2-120.5c1.3-.8 3 .1 3 1.7v91.2c0 .7-.4 1.3-1 1.7L88.1 566.2c-1.3.8-3-.2-3-1.7v-90.9c0-.7.3-1.3.9-1.7z"/><path class="st3" d="M96 531.9l78.1-47.9c1.3-.8 3 .1 3 1.7V497c0 .7-.4 1.3-1 1.7L98 546.2c-1.3.8-3-.2-3-1.7v-10.9c.1-.7.4-1.3 1-1.7z"/><path class="st0" d="M75.1 396.9v188.4c-.6 0-1.2-.2-1.8-.5L1.6 540.3c-1.1-.7-1.6-1.8-1.6-2.9v-118h.1l75-22.5z"/><path class="st1" d="M536.1 384.2V503c0 1.1-.5 2.3-1.6 2.9l-71.7 44.5c-.5.3-1.1.5-1.8.5v-119c.6 0 1.2-.2 1.8-.5l71.7-44.5c.8-.5 1.2-1.1 1.5-1.9l.1-.8z"/><path class="st5" d="M462.8 550.4c-.5.3-1.1.5-1.8.5v-119c.6 0 1.2-.2 1.8-.5 0 0 19.2-11.4 19.4-12.1l-19.4 131.1z"/><path class="st4" d="M438.8 498.1l-78.1-47.9c-1.3-.8-3 .1-3 1.7v11.2c0 .7.4 1.3 1 1.7l78.1 47.5c1.3.8 3-.2 3-1.7v-10.9c0-.6-.4-1.2-1-1.6z"/><path class="st5" d="M76.8 584.9c-.6.3-1.2.5-1.8.5v-119c.6 0 1.2-.2 1.8-.5l110.3-67.4L76.8 584.9z"/><path class="st1" d="M536 385c-.2.8-.7 1.4-1.5 1.9l-71.7 44.5c-.5.3-1.1.5-1.8.5-.6 0-1.2-.2-1.8-.5l-54-33-107.4-65.6c-.4-.2-.6-.5-.9-.8-.2.1-.5.1-.7.2h-.9c-.2.2-.5.5-.8.6l-107.4 65.6-110.3 67.4c-.5.3-1.2.5-1.8.5s-1.2-.2-1.8-.5L1.6 421.3c-.8-.5-1.2-1.1-1.5-1.9-.4-1.4.1-3 1.5-3.8L109 350l110.3-67.4c.3-.2.7-.3 1-.4l74.4-45.6c1.2-.7 2.6-.7 3.8 0l73.5 45.6c.4.1.7.2 1.1.4L483.4 350l51.1 31.3c1.4.7 1.9 2.3 1.5 3.7z"/><path class="st6" d="M536.1 384.2v3.8c0 1.1-.5 2.3-1.6 2.9l-71.7 44.5c-.5.3-1.1.5-1.8.5v-4c.6 0 1.2-.2 1.8-.5l71.7-44.5c.8-.5 1.2-1.1 1.5-1.9l.1-.8zM296.3 332.1c0 1.5.4 4.5-.8 5.2L76.8 470.9c-.6.3-1.2.5-1.8.5v-5c.6 0 1.2-.2 1.8-.5l217.8-133c.2-.1.4-.5.8-.7.2-.1.9-.1.9-.1z"/></g><g id="Layer_4"><path class="st7" d="M217.9 348.5c7.2 1.6 19.9 3.4 34.5-.5 5.9-1.6 35.2-9.4 39.2-30.8 2.5-13.3-6.3-24.6-8.1-27-16.8-21.6-48.8-16.6-50.4-16.4l-64.8 39.9c6.2 8.5 17.4 21.2 35.3 29.5 4.9 2.5 9.8 4.2 14.3 5.3z"/><path class="st13" d="M204.9 250.9c0-6.2 5.1-11.3 11.3-11.3H272c6.2 0 11.3 5.1 11.3 11.3v63.7c0 6.9-3.3 13.7-9.6 18.1-17.8 12.3-41.4 12.3-59.2 0-6.4-4.4-9.5-11.2-9.6-18.1v-63.7z"/><path class="st14" d="M259 313.8c0 2.5-.5 4.9-1.4 7.2-.6 1.5-1.4 2.9-2.4 4.1-.5.6-1.1 1.2-1.7 1.7-5.1 4.4-11 6.6-16.9 6.6s-11.8-2.2-16.9-6.6c-2.9-2.5-4.6-6.1-5.2-9.9-.2-1-.3-2.1-.3-3.1 0-2.5.5-4.9 1.4-7.2.9-2.2 2.3-4.3 4.1-5.8 10.2-8.8 23.7-8.8 33.9 0 3.6 3.2 5.4 8.1 5.4 13z"/><path class="st12" d="M259 312.4c0 2.3-.5 4.6-1.4 6.7-.6 1.4-1.4 2.7-2.4 3.8-.5.6-1.1 1.1-1.7 1.6-5.1 4.1-11 6.1-16.9 6.1s-11.8-2-16.9-6.1c-2.9-2.3-4.6-5.6-5.2-9.2-.2-1-.3-1.9-.3-2.9 0-2.3.5-4.6 1.4-6.7.9-2.1 2.3-4 4.1-5.4 10.2-8.1 23.7-8.1 33.9 0 3.6 3 5.4 7.5 5.4 12.1z"/><path class="st11" d="M227.8 302.2c0 .3-.1.5-.2.8-.8.3-1.6.4-2.4.4s-1.6-.1-2.4-.5c-.1-.1-.1-.3-.1-.4v-.3c0-.3.1-.5.2-.8.1-.2.3-.5.5-.6 1.2-.9 2.7-.9 3.9 0 .3.3.5.8.5 1.4z"/><path class="st14" d="M227.6 302.9c-.1.1-.2.3-.3.4l-.2.2c-.5.4-1.1.6-1.6.7h-.6c-.6-.1-1.1-.3-1.6-.7-.2-.2-.4-.4-.5-.6.8.3 1.6.5 2.4.5.9 0 1.7-.2 2.4-.5z"/><path class="st11" d="M228.9 309.8c0 .3-.1.5-.2.8-.8.3-1.6.4-2.4.4s-1.6-.1-2.4-.5c-.1-.1-.1-.3-.1-.4v-.3c0-.3.1-.5.2-.8.1-.2.3-.5.5-.6 1.2-.9 2.7-.9 3.9 0 .3.4.5.9.5 1.4z"/><path class="st14" d="M228.8 310.6c-.1.1-.2.3-.3.4l-.2.2c-.5.4-1.1.6-1.6.7h-.6c-.6-.1-1.1-.3-1.6-.7-.2-.2-.4-.4-.5-.6.8.3 1.6.5 2.4.5.8-.1 1.6-.2 2.4-.5z"/><path class="st11" d="M238.1 303.6c0 .3-.1.5-.2.8-.8.3-1.6.4-2.4.4s-1.6-.1-2.4-.5c-.1-.1-.1-.3-.1-.4v-.3c0-.3.1-.5.2-.8.1-.2.3-.5.5-.6 1.2-.9 2.7-.9 3.9 0 .3.3.5.9.5 1.4z"/><path class="st14" d="M237.9 304.4c-.1.1-.2.3-.3.4l-.2.2c-.5.4-1.1.6-1.6.7h-.6c-.6-.1-1.1-.3-1.6-.7-.2-.2-.4-.4-.5-.6.8.3 1.6.5 2.4.5.8-.1 1.6-.2 2.4-.5z"/><path class="st11" d="M246.9 300.1c0 .3-.1.5-.2.8-.8.3-1.6.4-2.4.4s-1.6-.1-2.4-.5c-.1-.1-.1-.3-.1-.4v-.3c0-.3.1-.5.2-.8.1-.2.3-.5.5-.6 1.2-.9 2.7-.9 3.9 0 .3.3.5.9.5 1.4z"/><path class="st14" d="M246.8 300.9c-.1.1-.2.3-.3.4l-.2.2c-.5.4-1.1.6-1.6.7h-.6c-.6-.1-1.1-.3-1.6-.7-.2-.2-.4-.4-.5-.6.8.3 1.6.5 2.4.5.8-.1 1.6-.2 2.4-.5z"/><path class="st11" d="M253.7 314.7c0 .3-.1.5-.2.8-.8.3-1.6.4-2.4.4s-1.6-.1-2.4-.5c-.1-.1-.1-.3-.1-.4v-.3c0-.3.1-.5.2-.8.1-.2.3-.5.5-.6 1.2-.9 2.7-.9 3.9 0 .3.4.5.9.5 1.4z"/><path class="st14" d="M253.5 315.5c-.1.1-.2.3-.3.4l-.2.2c-.5.4-1.1.6-1.6.7h-.6c-.6-.1-1.1-.3-1.6-.7-.2-.2-.4-.4-.5-.6.8.3 1.6.5 2.4.5.8-.1 1.6-.2 2.4-.5z"/><path class="st11" d="M236.4 321.5c0 .3-.1.5-.2.8-.8.3-1.6.4-2.4.4s-1.6-.1-2.4-.5c-.1-.1-.1-.3-.1-.4v-.3c0-.3.1-.5.2-.8.1-.2.3-.5.5-.6 1.2-.9 2.7-.9 3.9 0 .3.3.5.8.5 1.4z"/><path class="st14" d="M236.2 322.2c-.1.1-.2.3-.3.4l-.2.2c-.5.4-1.1.6-1.6.7h-.6c-.6-.1-1.1-.3-1.6-.7-.2-.2-.4-.4-.5-.6.8.3 1.6.5 2.4.5.8 0 1.6-.2 2.4-.5z"/><path class="st1" d="M246.9 321.5c0 .3-.1.5-.2.8-.8.3-1.6.4-2.4.4s-1.6-.1-2.4-.5c-.1-.1-.1-.3-.1-.4v-.3c0-.3.1-.5.2-.8.1-.2.3-.5.5-.6 1.2-.9 2.7-.9 3.9 0 .3.3.5.8.5 1.4z"/><path class="st15" d="M246.8 322.2c-.1.1-.2.3-.3.4l-.2.2c-.5.4-1.1.6-1.6.7h-.6c-.6-.1-1.1-.3-1.6-.7-.2-.2-.4-.4-.5-.6.8.3 1.6.5 2.4.5.8 0 1.6-.2 2.4-.5z"/><path class="st1" d="M249.5 307c0 .3-.1.5-.2.8-.8.3-1.6.4-2.4.4s-1.6-.1-2.4-.5c-.1-.1-.1-.3-.1-.4v-.3c0-.3.1-.5.2-.8.1-.2.3-.5.5-.6 1.2-.9 2.7-.9 3.9 0 .3.3.5.9.5 1.4z"/><path class="st15" d="M249.3 307.8c-.1.1-.2.3-.3.4l-.2.2c-.5.4-1.1.6-1.6.7h-.6c-.6-.1-1.1-.3-1.6-.7-.2-.2-.4-.4-.5-.6.8.3 1.6.5 2.4.5.9-.1 1.7-.2 2.4-.5z"/><path class="st1" d="M239.5 311.5c0 .3-.1.5-.2.8-.8.3-1.6.4-2.4.4s-1.6-.1-2.4-.5c-.1-.1-.1-.3-.1-.4v-.3c0-.3.1-.5.2-.8.1-.2.3-.5.5-.6 1.2-.9 2.7-.9 3.9 0 .3.3.5.9.5 1.4z"/><path class="st15" d="M239.4 312.3c-.1.1-.2.3-.3.4l-.2.2c-.5.4-1.1.6-1.6.7h-.6c-.6-.1-1.1-.3-1.6-.7-.2-.2-.4-.4-.5-.6.8.3 1.6.5 2.4.5.8-.1 1.6-.3 2.4-.5z"/><path class="st1" d="M224.5 316.2c0 .3-.1.5-.2.8-.8.3-1.6.4-2.4.4s-1.6-.1-2.4-.5c-.1-.1-.1-.3-.1-.4v-.3c0-.3.1-.5.2-.8.1-.2.3-.5.5-.6 1.2-.9 2.7-.9 3.9 0 .3.3.5.8.5 1.4z"/><path class="st15" d="M224.3 316.9c-.1.1-.2.3-.3.4l-.2.2c-.5.4-1.1.6-1.6.7h-.6c-.6-.1-1.1-.3-1.6-.7-.2-.2-.4-.4-.5-.6.8.3 1.6.5 2.4.5.8 0 1.6-.2 2.4-.5z"/><g><path class="st14" d="M276.3 307.2c0 2.5-.5 4.9-1.4 7.2-.6 1.5-1.4 2.9-2.5 4.1-.5.6-1.1 1.2-1.7 1.7-5.1 4.4-11 6.6-16.9 6.6s-11.8-2.2-16.9-6.6c-2.9-2.5-4.6-6.1-5.2-9.9-.2-1-.3-2.1-.3-3.1 0-2.5.5-4.9 1.4-7.2.9-2.2 2.3-4.3 4.1-5.8 10.2-8.8 23.7-8.8 33.9 0 3.7 3.1 5.5 8 5.5 13z"/><path class="st12" d="M276.3 305.8c0 2.3-.5 4.6-1.4 6.7-.6 1.4-1.4 2.7-2.5 3.8-.5.6-1.1 1.1-1.7 1.6-5.1 4.1-11 6.1-16.9 6.1s-11.8-2-16.9-6.1c-2.9-2.3-4.6-5.6-5.2-9.2-.2-1-.3-1.9-.3-2.9 0-2.3.5-4.6 1.4-6.7.9-2.1 2.3-4 4.1-5.4 10.2-8.1 23.7-8.1 33.9 0 3.7 2.9 5.5 7.5 5.5 12.1z"/><path class="st11" d="M245.1 295.5c0 .3-.1.5-.2.8-.8.3-1.6.4-2.4.4s-1.6-.1-2.4-.5c-.1-.1-.1-.3-.1-.4v-.3c0-.3.1-.5.2-.8.1-.2.3-.5.5-.6 1.2-.9 2.7-.9 3.9 0 .3.4.5.9.5 1.4z"/><path class="st14" d="M244.9 296.3c-.1.1-.2.3-.3.4l-.2.2c-.5.4-1.1.6-1.6.7h-.6c-.6-.1-1.1-.3-1.6-.7-.2-.2-.4-.4-.5-.6.8.3 1.6.5 2.4.5.8-.1 1.6-.2 2.4-.5z"/><path class="st11" d="M246.2 303.2c0 .3-.1.5-.2.8-.8.3-1.6.4-2.4.4s-1.6-.1-2.4-.5c-.1-.1-.1-.3-.1-.4v-.3c0-.3.1-.5.2-.8.1-.2.3-.5.5-.6 1.2-.9 2.7-.9 3.9 0 .3.3.5.8.5 1.4z"/><path class="st14" d="M246 303.9c-.1.1-.2.3-.3.4l-.2.2c-.5.4-1.1.6-1.6.7h-.6c-.6-.1-1.1-.3-1.6-.7-.2-.2-.4-.4-.5-.6.8.3 1.6.5 2.4.5.9 0 1.7-.2 2.4-.5z"/><path class="st11" d="M255.3 296.9c0 .3-.1.5-.2.8-.8.3-1.6.4-2.4.4s-1.6-.1-2.4-.5c-.1-.1-.1-.3-.1-.4v-.3c0-.3.1-.5.2-.8.1-.2.3-.5.5-.6 1.2-.9 2.7-.9 3.9 0 .3.4.5.9.5 1.4z"/><path class="st14" d="M255.2 297.7c-.1.1-.2.3-.3.4l-.2.2c-.5.4-1.1.6-1.6.7h-.6c-.6-.1-1.1-.3-1.6-.7-.2-.2-.4-.4-.5-.6.8.3 1.6.5 2.4.5.8-.1 1.6-.2 2.4-.5z"/><path class="st11" d="M264.2 293.4c0 .3 0 .5-.2.8-.8.3-1.6.4-2.4.4-.8 0-1.6-.1-2.4-.5-.1-.1-.1-.3-.1-.4v-.3c0-.3 0-.5.2-.8.1-.2.3-.5.5-.6 1.2-.9 2.7-.9 3.9 0 .3.4.5.9.5 1.4z"/><path class="st14" d="M264 294.2c-.1.1-.2.3-.3.4l-.2.2c-.5.4-1.1.6-1.6.7h-.6c-.6-.1-1.1-.3-1.6-.7-.2-.2-.4-.4-.5-.6.8.3 1.6.5 2.4.5.9-.1 1.7-.2 2.4-.5z"/><path class="st11" d="M271 308c0 .3 0 .5-.2.8-.8.3-1.6.4-2.4.4-.8 0-1.6-.1-2.4-.5-.1-.1-.1-.3-.1-.4v-.3c0-.3 0-.5.2-.8.1-.2.3-.5.5-.6 1.2-.9 2.7-.9 3.9 0 .3.4.5.9.5 1.4z"/><path class="st14" d="M270.8 308.8c-.1.1-.2.3-.3.4l-.2.2c-.5.4-1.1.6-1.6.7h-.6c-.6-.1-1.1-.3-1.6-.7-.2-.2-.4-.4-.5-.6.8.3 1.6.5 2.4.5.8 0 1.6-.2 2.4-.5z"/><path class="st11" d="M253.7 314.8c0 .3-.1.5-.2.8-.8.3-1.6.4-2.4.4s-1.6-.1-2.4-.5c-.1-.1-.1-.3-.1-.4v-.3c0-.3.1-.5.2-.8.1-.2.3-.5.5-.6 1.2-.9 2.7-.9 3.9 0 .3.4.5.9.5 1.4z"/><path class="st14" d="M253.5 315.6c-.1.1-.2.3-.3.4l-.2.2c-.5.4-1.1.6-1.6.7h-.6c-.6-.1-1.1-.3-1.6-.7-.2-.2-.4-.4-.5-.6.8.3 1.6.5 2.4.5.8-.1 1.6-.2 2.4-.5z"/><path class="st1" d="M264.2 314.8c0 .3 0 .5-.2.8-.8.3-1.6.4-2.4.4-.8 0-1.6-.1-2.4-.5-.1-.1-.1-.3-.1-.4v-.3c0-.3 0-.5.2-.8.1-.2.3-.5.5-.6 1.2-.9 2.7-.9 3.9 0 .3.4.5.9.5 1.4z"/><path class="st15" d="M264 315.6c-.1.1-.2.3-.3.4l-.2.2c-.5.4-1.1.6-1.6.7h-.6c-.6-.1-1.1-.3-1.6-.7-.2-.2-.4-.4-.5-.6.8.3 1.6.5 2.4.5.9-.1 1.7-.2 2.4-.5z"/><path class="st1" d="M266.8 300.3c0 .3 0 .5-.2.8-.8.3-1.6.4-2.4.4-.8 0-1.6-.1-2.4-.5-.1-.1-.1-.3-.1-.4v-.3c0-.3 0-.5.2-.8.1-.2.3-.5.5-.6 1.2-.9 2.7-.9 3.9 0 .3.4.5.9.5 1.4z"/><path class="st15" d="M266.6 301.1c-.1.1-.2.3-.3.4l-.2.2c-.5.4-1.1.6-1.6.7h-.6c-.6-.1-1.1-.3-1.6-.7-.2-.2-.4-.4-.5-.6.8.3 1.6.5 2.4.5.8-.1 1.6-.2 2.4-.5z"/><path class="st1" d="M256.8 304.8c0 .3 0 .5-.2.8-.8.3-1.6.4-2.4.4s-1.6-.1-2.4-.5c-.1-.1-.1-.3-.1-.4v-.3c0-.3.1-.5.2-.8.1-.2.3-.5.5-.6 1.2-.9 2.7-.9 3.9 0 .3.4.5.9.5 1.4z"/><path class="st15" d="M256.6 305.6c-.1.1-.2.3-.3.4l-.2.2c-.5.4-1.1.6-1.6.7h-.6c-.6-.1-1.1-.3-1.6-.7-.2-.2-.4-.4-.5-.6.8.3 1.6.5 2.4.5.9-.1 1.7-.2 2.4-.5z"/><path class="st1" d="M241.8 309.5c0 .3-.1.5-.2.8-.8.3-1.6.4-2.4.4s-1.6-.1-2.4-.5c-.1-.1-.1-.3-.1-.4v-.3c0-.3.1-.5.2-.8.1-.2.3-.5.5-.6 1.2-.9 2.7-.9 3.9 0 .2.4.5.9.5 1.4z"/><path class="st15" d="M241.6 310.3c-.1.1-.2.3-.3.4l-.2.2c-.5.4-1.1.6-1.6.7h-.6c-.6-.1-1.1-.3-1.6-.7-.2-.2-.4-.4-.5-.6.8.3 1.6.5 2.4.5.8-.1 1.6-.2 2.4-.5z"/></g><g><path class="st14" d="M257.9 294.9c0 2.5-.5 4.9-1.4 7.2-.6 1.5-1.4 2.9-2.4 4.1-.5.6-1.1 1.2-1.7 1.7-5.1 4.4-11 6.6-16.9 6.6s-11.8-2.2-16.9-6.6c-2.9-2.5-4.6-6.1-5.2-9.9-.2-1-.3-2.1-.3-3.1 0-2.5.5-4.9 1.4-7.2.9-2.2 2.3-4.3 4.1-5.8 10.2-8.8 23.7-8.8 33.9 0 3.6 3.1 5.4 8 5.4 13z"/><path class="st12" d="M257.9 293.5c0 2.3-.5 4.6-1.4 6.7-.6 1.4-1.4 2.7-2.4 3.8-.5.6-1.1 1.1-1.7 1.6-5.1 4.1-11 6.1-16.9 6.1s-11.8-2-16.9-6.1c-2.9-2.3-4.6-5.6-5.2-9.2-.2-1-.3-1.9-.3-2.9 0-2.3.5-4.6 1.4-6.7.9-2.1 2.3-4 4.1-5.4 10.2-8.1 23.7-8.1 33.9 0 3.6 2.9 5.4 7.5 5.4 12.1z"/><path class="st11" d="M226.7 283.2c0 .3-.1.5-.2.8-.8.3-1.6.4-2.4.4s-1.6-.1-2.4-.5c-.1-.1-.1-.3-.1-.4v-.3c0-.3.1-.5.2-.8.1-.2.3-.5.5-.6 1.2-.9 2.7-.9 3.9 0 .3.4.5.9.5 1.4z"/><path class="st14" d="M226.5 284c-.1.1-.2.3-.3.4l-.2.2c-.5.4-1.1.6-1.6.7h-.6c-.6-.1-1.1-.3-1.6-.7-.2-.2-.4-.4-.5-.6.8.3 1.6.5 2.4.5.9-.1 1.7-.2 2.4-.5z"/><path class="st11" d="M227.8 290.9c0 .3-.1.5-.2.8-.8.3-1.6.4-2.4.4s-1.6-.1-2.4-.5c-.1-.1-.1-.3-.1-.4v-.3c0-.3.1-.5.2-.8.1-.2.3-.5.5-.6 1.2-.9 2.7-.9 3.9 0 .3.3.5.8.5 1.4z"/><path class="st14" d="M227.6 291.6c-.1.1-.2.3-.3.4l-.2.2c-.5.4-1.1.6-1.6.7h-.6c-.6-.1-1.1-.3-1.6-.7-.2-.2-.4-.4-.5-.6.8.3 1.6.5 2.4.5.9 0 1.7-.2 2.4-.5z"/><path class="st11" d="M236.9 284.6c0 .3-.1.5-.2.8-.8.3-1.6.4-2.4.4s-1.6-.1-2.4-.5c-.1-.1-.1-.3-.1-.4v-.3c0-.3.1-.5.2-.8.1-.2.3-.5.5-.6 1.2-.9 2.7-.9 3.9 0 .3.4.5.9.5 1.4z"/><path class="st14" d="M236.8 285.4c-.1.1-.2.3-.3.4l-.2.2c-.5.4-1.1.6-1.6.7h-.6c-.6-.1-1.1-.3-1.6-.7-.2-.2-.4-.4-.5-.6.8.3 1.6.5 2.4.5.8 0 1.6-.2 2.4-.5z"/><path class="st11" d="M245.8 281.1c0 .3-.1.5-.2.8-.8.3-1.6.4-2.4.4s-1.6-.1-2.4-.5c-.1-.1-.1-.3-.1-.4v-.3c0-.3.1-.5.2-.8.1-.2.3-.5.5-.6 1.2-.9 2.7-.9 3.9 0 .3.4.5.9.5 1.4z"/><path class="st14" d="M245.7 281.9c-.1.1-.2.3-.3.4l-.2.2c-.5.4-1.1.6-1.6.7h-.6c-.6-.1-1.1-.3-1.6-.7-.2-.2-.4-.4-.5-.6.8.3 1.6.5 2.4.5.8 0 1.6-.2 2.4-.5z"/><path class="st11" d="M252.6 295.8c0 .3-.1.5-.2.8-.8.3-1.6.4-2.4.4s-1.6-.1-2.4-.5c-.1-.1-.1-.3-.1-.4v-.3c0-.3.1-.5.2-.8.1-.2.3-.5.5-.6 1.2-.9 2.7-.9 3.9 0 .3.3.5.8.5 1.4z"/><path class="st14" d="M252.4 296.5c-.1.1-.2.3-.3.4l-.2.2c-.5.4-1.1.6-1.6.7h-.6c-.6-.1-1.1-.3-1.6-.7-.2-.2-.4-.4-.5-.6.8.3 1.6.5 2.4.5.8 0 1.6-.2 2.4-.5z"/><path class="st11" d="M235.3 302.5c0 .3-.1.5-.2.8-.8.3-1.6.4-2.4.4s-1.6-.1-2.4-.5c-.1-.1-.1-.3-.1-.4v-.3c0-.3.1-.5.2-.8.1-.2.3-.5.5-.6 1.2-.9 2.7-.9 3.9 0 .3.4.5.9.5 1.4z"/><path class="st14" d="M235.1 303.3c-.1.1-.2.3-.3.4l-.2.2c-.5.4-1.1.6-1.6.7h-.6c-.6-.1-1.1-.3-1.6-.7-.2-.2-.4-.4-.5-.6.8.3 1.6.5 2.4.5.8-.1 1.6-.2 2.4-.5z"/><path class="st1" d="M245.8 302.5c0 .3-.1.5-.2.8-.8.3-1.6.4-2.4.4s-1.6-.1-2.4-.5c-.1-.1-.1-.3-.1-.4v-.3c0-.3.1-.5.2-.8.1-.2.3-.5.5-.6 1.2-.9 2.7-.9 3.9 0 .3.4.5.9.5 1.4z"/><path class="st15" d="M245.7 303.3c-.1.1-.2.3-.3.4l-.2.2c-.5.4-1.1.6-1.6.7h-.6c-.6-.1-1.1-.3-1.6-.7-.2-.2-.4-.4-.5-.6.8.3 1.6.5 2.4.5.8-.1 1.6-.2 2.4-.5z"/><path class="st1" d="M248.4 288c0 .3-.1.5-.2.8-.8.3-1.6.4-2.4.4s-1.6-.1-2.4-.5c-.1-.1-.1-.3-.1-.4v-.3c0-.3.1-.5.2-.8.1-.2.3-.5.5-.6 1.2-.9 2.7-.9 3.9 0 .3.4.5.9.5 1.4z"/><path class="st15" d="M248.2 288.8c-.1.1-.2.3-.3.4l-.2.2c-.5.4-1.1.6-1.6.7h-.6c-.6-.1-1.1-.3-1.6-.7-.2-.2-.4-.4-.5-.6.8.3 1.6.5 2.4.5.8-.1 1.6-.2 2.4-.5z"/><path class="st1" d="M238.4 292.5c0 .3-.1.5-.2.8-.8.3-1.6.4-2.4.4s-1.6-.1-2.4-.5c-.1-.1-.1-.3-.1-.4v-.3c0-.3.1-.5.2-.8.1-.2.3-.5.5-.6 1.2-.9 2.7-.9 3.9 0 .3.4.5.9.5 1.4z"/><path class="st15" d="M238.3 293.3c-.1.1-.2.3-.3.4l-.2.2c-.5.4-1.1.6-1.6.7h-.6c-.6-.1-1.1-.3-1.6-.7-.2-.2-.4-.4-.5-.6.8.3 1.6.5 2.4.5.8-.1 1.6-.2 2.4-.5z"/><path class="st1" d="M223.4 297.2c0 .3-.1.5-.2.8-.8.3-1.6.4-2.4.4s-1.6-.1-2.4-.5c-.1-.1-.1-.3-.1-.4v-.3c0-.3.1-.5.2-.8.1-.2.3-.5.5-.6 1.2-.9 2.7-.9 3.9 0 .3.3.5.9.5 1.4z"/><path class="st15" d="M223.2 298c-.1.1-.2.3-.3.4l-.2.2c-.5.4-1.1.6-1.6.7h-.6c-.6-.1-1.1-.3-1.6-.7-.2-.2-.4-.4-.5-.6.8.3 1.6.5 2.4.5.8-.1 1.6-.2 2.4-.5z"/></g><g><path class="st14" d="M277.4 289c0 2.5-.5 4.9-1.4 7.2-.6 1.5-1.4 2.9-2.5 4.1-.5.6-1.1 1.2-1.7 1.7-5.1 4.4-11 6.6-16.9 6.6s-11.8-2.2-16.9-6.6c-2.9-2.5-4.6-6.1-5.2-9.9-.2-1-.3-2.1-.3-3.1 0-2.5.5-4.9 1.4-7.2.9-2.2 2.3-4.3 4.1-5.8 10.2-8.8 23.7-8.8 33.9 0 3.7 3.2 5.5 8.1 5.5 13z"/><path class="st12" d="M277.4 287.6c0 2.3-.5 4.6-1.4 6.7-.6 1.4-1.4 2.7-2.5 3.8-.5.6-1.1 1.1-1.7 1.6-5.1 4.1-11 6.1-16.9 6.1s-11.8-2-16.9-6.1c-2.9-2.3-4.6-5.6-5.2-9.2-.2-1-.3-1.9-.3-2.9 0-2.3.5-4.6 1.4-6.7.9-2.1 2.3-4 4.1-5.4 10.2-8.1 23.7-8.1 33.9 0 3.7 3 5.5 7.5 5.5 12.1z"/><path class="st11" d="M246.2 277.4c0 .3-.1.5-.2.8-.8.3-1.6.4-2.4.4s-1.6-.1-2.4-.5c-.1-.1-.1-.3-.1-.4v-.3c0-.3.1-.5.2-.8.1-.2.3-.5.5-.6 1.2-.9 2.7-.9 3.9 0 .3.3.5.8.5 1.4z"/><path class="st14" d="M246 278.1c-.1.1-.2.3-.3.4l-.2.2c-.5.4-1.1.6-1.6.7h-.6c-.6-.1-1.1-.3-1.6-.7-.2-.2-.4-.4-.5-.6.8.3 1.6.5 2.4.5.8 0 1.6-.2 2.4-.5z"/><path class="st11" d="M247.3 285c0 .3-.1.5-.2.8-.8.3-1.6.4-2.4.4s-1.6-.1-2.4-.5c-.1-.1-.1-.3-.1-.4v-.3c0-.3.1-.5.2-.8.1-.2.3-.5.5-.6 1.2-.9 2.7-.9 3.9 0 .3.4.5.9.5 1.4z"/><path class="st14" d="M247.1 285.8c-.1.1-.2.3-.3.4l-.2.2c-.5.4-1.1.6-1.6.7h-.6c-.6-.1-1.1-.3-1.6-.7-.2-.2-.4-.4-.5-.6.8.3 1.6.5 2.4.5.8-.1 1.7-.2 2.4-.5z"/><path class="st11" d="M256.4 278.8c0 .3 0 .5-.2.8-.8.3-1.6.4-2.4.4s-1.6-.1-2.4-.5c-.1-.1-.1-.3-.1-.4v-.3c0-.3.1-.5.2-.8.1-.2.3-.5.5-.6 1.2-.9 2.7-.9 3.9 0 .3.3.5.9.5 1.4z"/><path class="st14" d="M256.3 279.6c-.1.1-.2.3-.3.4l-.2.2c-.5.4-1.1.6-1.6.7h-.6c-.6-.1-1.1-.3-1.6-.7-.2-.2-.4-.4-.5-.6.8.3 1.6.5 2.4.5.8-.1 1.6-.2 2.4-.5z"/><path class="st11" d="M265.3 275.3c0 .3 0 .5-.2.8-.8.3-1.6.4-2.4.4-.8 0-1.6-.1-2.4-.5-.1-.1-.1-.3-.1-.4v-.3c0-.3 0-.5.2-.8.1-.2.3-.5.5-.6 1.2-.9 2.7-.9 3.9 0 .3.4.5.9.5 1.4z"/><path class="st14" d="M265.1 276.1c-.1.1-.2.3-.3.4l-.2.2c-.5.4-1.1.6-1.6.7h-.6c-.6-.1-1.1-.3-1.6-.7-.2-.2-.4-.4-.5-.6.8.3 1.6.5 2.4.5.9-.1 1.7-.2 2.4-.5z"/><path class="st11" d="M272 289.9c0 .3 0 .5-.2.8-.8.3-1.6.4-2.4.4-.8 0-1.6-.1-2.4-.5-.1-.1-.1-.3-.1-.4v-.3c0-.3 0-.5.2-.8.1-.2.3-.5.5-.6 1.2-.9 2.7-.9 3.9 0 .3.4.5.9.5 1.4z"/><path class="st14" d="M271.9 290.7c-.1.1-.2.3-.3.4l-.2.2c-.5.4-1.1.6-1.6.7h-.6c-.6-.1-1.1-.3-1.6-.7-.2-.2-.4-.4-.5-.6.8.3 1.6.5 2.4.5.8-.1 1.6-.2 2.4-.5z"/><path class="st11" d="M254.8 296.6c0 .3-.1.5-.2.8-.8.3-1.6.4-2.4.4s-1.6-.1-2.4-.5c-.1-.1-.1-.3-.1-.4v-.3c0-.3.1-.5.2-.8.1-.2.3-.5.5-.6 1.2-.9 2.7-.9 3.9 0 .3.4.5.9.5 1.4z"/><path class="st14" d="M254.6 297.4c-.1.1-.2.3-.3.4l-.2.2c-.5.4-1.1.6-1.6.7h-.6c-.6-.1-1.1-.3-1.6-.7-.2-.2-.4-.4-.5-.6.8.3 1.6.5 2.4.5.8 0 1.6-.2 2.4-.5z"/><path class="st1" d="M265.3 296.6c0 .3 0 .5-.2.8-.8.3-1.6.4-2.4.4-.8 0-1.6-.1-2.4-.5-.1-.1-.1-.3-.1-.4v-.3c0-.3 0-.5.2-.8.1-.2.3-.5.5-.6 1.2-.9 2.7-.9 3.9 0 .3.4.5.9.5 1.4z"/><path class="st15" d="M265.1 297.4c-.1.1-.2.3-.3.4l-.2.2c-.5.4-1.1.6-1.6.7h-.6c-.6-.1-1.1-.3-1.6-.7-.2-.2-.4-.4-.5-.6.8.3 1.6.5 2.4.5.9 0 1.7-.2 2.4-.5z"/><path class="st1" d="M267.9 282.2c0 .3 0 .5-.2.8-.8.3-1.6.4-2.4.4-.8 0-1.6-.1-2.4-.5-.1-.1-.1-.3-.1-.4v-.3c0-.3 0-.5.2-.8.1-.2.3-.5.5-.6 1.2-.9 2.7-.9 3.9 0 .3.3.5.9.5 1.4z"/><path class="st15" d="M267.7 283c-.1.1-.2.3-.3.4l-.2.2c-.5.4-1.1.6-1.6.7h-.6c-.6-.1-1.1-.3-1.6-.7-.2-.2-.4-.4-.5-.6.8.3 1.6.5 2.4.5.8-.1 1.6-.2 2.4-.5z"/><path class="st1" d="M257.9 286.7c0 .3 0 .5-.2.8-.8.3-1.6.4-2.4.4-.8 0-1.6-.1-2.4-.5-.1-.1-.1-.3-.1-.4v-.3c0-.3.1-.5.2-.8.1-.2.3-.5.5-.6 1.2-.9 2.7-.9 3.9 0 .3.3.5.8.5 1.4z"/><path class="st15" d="M257.7 287.5c-.1.1-.2.3-.3.4l-.2.2c-.5.4-1.1.6-1.6.7h-.6c-.6-.1-1.1-.3-1.6-.7-.2-.2-.4-.4-.5-.6.8.3 1.6.5 2.4.5.8-.1 1.7-.2 2.4-.5z"/><path class="st1" d="M242.8 291.4c0 .3-.1.5-.2.8-.8.3-1.6.4-2.4.4s-1.6-.1-2.4-.5c-.1-.1-.1-.3-.1-.4v-.3c0-.3.1-.5.2-.8.1-.2.3-.5.5-.6 1.2-.9 2.7-.9 3.9 0 .3.3.5.8.5 1.4z"/><path class="st15" d="M242.7 292.1c-.1.1-.2.3-.3.4l-.2.2c-.5.4-1.1.6-1.6.7h-.6c-.6-.1-1.1-.3-1.6-.7-.2-.2-.4-.4-.5-.6.8.3 1.6.5 2.4.5.8 0 1.6-.2 2.4-.5z"/></g><g><path class="st14" d="M257.4 277c0 2.5-.5 4.9-1.4 7.2-.6 1.5-1.4 2.9-2.4 4.1-.5.6-1.1 1.2-1.7 1.7-5.1 4.4-11 6.6-16.9 6.6s-11.8-2.2-16.9-6.6c-2.9-2.5-4.6-6.1-5.2-9.9-.2-1-.3-2.1-.3-3.1 0-2.5.5-4.9 1.4-7.2.9-2.2 2.3-4.3 4.1-5.8 10.2-8.8 23.7-8.8 33.9 0 3.6 3.2 5.4 8.1 5.4 13z"/><path class="st12" d="M257.4 275.6c0 2.3-.5 4.6-1.4 6.7-.6 1.4-1.4 2.7-2.4 3.8-.5.6-1.1 1.1-1.7 1.6-5.1 4.1-11 6.1-16.9 6.1s-11.8-2-16.9-6.1c-2.9-2.3-4.6-5.6-5.2-9.2-.2-1-.3-1.9-.3-2.9 0-2.3.5-4.6 1.4-6.7.9-2.1 2.3-4 4.1-5.4 10.2-8.1 23.7-8.1 33.9 0 3.6 3 5.4 7.5 5.4 12.1z"/><path class="st11" d="M226.2 265.4c0 .3-.1.5-.2.8-.8.3-1.6.4-2.4.4s-1.6-.1-2.4-.5c-.1-.1-.1-.3-.1-.4v-.3c0-.3.1-.5.2-.8.1-.2.3-.5.5-.6 1.2-.9 2.7-.9 3.9 0 .3.3.5.8.5 1.4z"/><path class="st14" d="M226 266.1c-.1.1-.2.3-.3.4l-.2.2c-.5.4-1.1.6-1.6.7h-.6c-.6-.1-1.1-.3-1.6-.7-.2-.2-.4-.4-.5-.6.8.3 1.6.5 2.4.5.9 0 1.7-.2 2.4-.5z"/><path class="st11" d="M227.3 273c0 .3-.1.5-.2.8-.8.3-1.6.4-2.4.4s-1.6-.1-2.4-.5c-.1-.1-.1-.3-.1-.4v-.3c0-.3.1-.5.2-.8.1-.2.3-.5.5-.6 1.2-.9 2.7-.9 3.9 0 .3.4.5.9.5 1.4z"/><path class="st14" d="M227.1 273.8c-.1.1-.2.3-.3.4l-.2.2c-.5.4-1.1.6-1.6.7h-.6c-.6-.1-1.1-.3-1.6-.7-.2-.2-.4-.4-.5-.6.8.3 1.6.5 2.4.5.9 0 1.7-.2 2.4-.5z"/><path class="st11" d="M236.4 266.8c0 .3-.1.5-.2.8-.8.3-1.6.4-2.4.4s-1.6-.1-2.4-.5c-.1-.1-.1-.3-.1-.4v-.3c0-.3.1-.5.2-.8.1-.2.3-.5.5-.6 1.2-.9 2.7-.9 3.9 0 .3.4.5.9.5 1.4z"/><path class="st14" d="M236.3 267.6c-.1.1-.2.3-.3.4l-.2.2c-.5.4-1.1.6-1.6.7h-.6c-.6-.1-1.1-.3-1.6-.7-.2-.2-.4-.4-.5-.6.8.3 1.6.5 2.4.5.8-.1 1.6-.2 2.4-.5z"/><path class="st11" d="M245.3 263.3c0 .3-.1.5-.2.8-.8.3-1.6.4-2.4.4s-1.6-.1-2.4-.5c-.1-.1-.1-.3-.1-.4v-.3c0-.3.1-.5.2-.8.1-.2.3-.5.5-.6 1.2-.9 2.7-.9 3.9 0 .3.4.5.9.5 1.4z"/><path class="st14" d="M245.2 264.1c-.1.1-.2.3-.3.4l-.2.2c-.5.4-1.1.6-1.6.7h-.6c-.6-.1-1.1-.3-1.6-.7-.2-.2-.4-.4-.5-.6.8.3 1.6.5 2.4.5.8-.1 1.6-.2 2.4-.5z"/><path class="st11" d="M252.1 277.9c0 .3-.1.5-.2.8-.8.3-1.6.4-2.4.4s-1.6-.1-2.4-.5c-.1-.1-.1-.3-.1-.4v-.3c0-.3.1-.5.2-.8.1-.2.3-.5.5-.6 1.2-.9 2.7-.9 3.9 0 .3.4.5.9.5 1.4z"/><path class="st14" d="M251.9 278.7c-.1.1-.2.3-.3.4l-.2.2c-.5.4-1.1.6-1.6.7h-.6c-.6-.1-1.1-.3-1.6-.7-.2-.2-.4-.4-.5-.6.8.3 1.6.5 2.4.5.8-.1 1.6-.2 2.4-.5z"/><path class="st11" d="M234.8 284.6c0 .3-.1.5-.2.8-.8.3-1.6.4-2.4.4s-1.6-.1-2.4-.5c-.1-.1-.1-.3-.1-.4v-.3c0-.3.1-.5.2-.8.1-.2.3-.5.5-.6 1.2-.9 2.7-.9 3.9 0 .3.4.5.9.5 1.4z"/><path class="st14" d="M234.6 285.4c-.1.1-.2.3-.3.4l-.2.2c-.5.4-1.1.6-1.6.7h-.6c-.6-.1-1.1-.3-1.6-.7-.2-.2-.4-.4-.5-.6.8.3 1.6.5 2.4.5.8 0 1.6-.2 2.4-.5z"/><path class="st1" d="M245.3 284.6c0 .3-.1.5-.2.8-.8.3-1.6.4-2.4.4s-1.6-.1-2.4-.5c-.1-.1-.1-.3-.1-.4v-.3c0-.3.1-.5.2-.8.1-.2.3-.5.5-.6 1.2-.9 2.7-.9 3.9 0 .3.4.5.9.5 1.4z"/><path class="st15" d="M245.2 285.4c-.1.1-.2.3-.3.4l-.2.2c-.5.4-1.1.6-1.6.7h-.6c-.6-.1-1.1-.3-1.6-.7-.2-.2-.4-.4-.5-.6.8.3 1.6.5 2.4.5.8 0 1.6-.2 2.4-.5z"/><path class="st1" d="M247.9 270.2c0 .3-.1.5-.2.8-.8.3-1.6.4-2.4.4s-1.6-.1-2.4-.5c-.1-.1-.1-.3-.1-.4v-.3c0-.3.1-.5.2-.8.1-.2.3-.5.5-.6 1.2-.9 2.7-.9 3.9 0 .3.3.5.9.5 1.4z"/><path class="st15" d="M247.7 271c-.1.1-.2.3-.3.4l-.2.2c-.5.4-1.1.6-1.6.7h-.6c-.6-.1-1.1-.3-1.6-.7-.2-.2-.4-.4-.5-.6.8.3 1.6.5 2.4.5.8-.1 1.6-.2 2.4-.5z"/><path class="st1" d="M237.9 274.7c0 .3-.1.5-.2.8-.8.3-1.6.4-2.4.4s-1.6-.1-2.4-.5c-.1-.1-.1-.3-.1-.4v-.3c0-.3.1-.5.2-.8.1-.2.3-.5.5-.6 1.2-.9 2.7-.9 3.9 0 .3.3.5.8.5 1.4z"/><path class="st15" d="M237.8 275.5c-.1.1-.2.3-.3.4l-.2.2c-.5.4-1.1.6-1.6.7h-.6c-.6-.1-1.1-.3-1.6-.7-.2-.2-.4-.4-.5-.6.8.3 1.6.5 2.4.5.8-.1 1.6-.2 2.4-.5z"/><path class="st1" d="M222.9 279.4c0 .3-.1.5-.2.8-.8.3-1.6.4-2.4.4s-1.6-.1-2.4-.5c-.1-.1-.1-.3-.1-.4v-.3c0-.3.1-.5.2-.8.1-.2.3-.5.5-.6 1.2-.9 2.7-.9 3.9 0 .2.3.5.8.5 1.4z"/><path class="st15" d="M222.7 280.1c-.1.1-.2.3-.3.4l-.2.2c-.5.4-1.1.6-1.6.7h-.6c-.6-.1-1.1-.3-1.6-.7-.2-.2-.4-.4-.5-.6.8.3 1.6.5 2.4.5.8 0 1.6-.2 2.4-.5z"/></g><g><path class="st14" d="M273.9 261.9c0 2.5-.5 4.9-1.4 7.2-.6 1.5-1.4 2.9-2.5 4.1-.5.6-1.1 1.2-1.7 1.7-5.1 4.4-11 6.6-16.9 6.6s-11.8-2.2-16.9-6.6c-2.9-2.5-4.6-6.1-5.2-9.9-.2-1-.3-2.1-.3-3.1 0-2.5.5-4.9 1.4-7.2.9-2.2 2.3-4.3 4.1-5.8 10.2-8.8 23.7-8.8 33.9 0 3.7 3.1 5.5 8 5.5 13z"/><path class="st12" d="M273.9 260.4c0 2.3-.5 4.6-1.4 6.7-.6 1.4-1.4 2.7-2.5 3.8-.5.6-1.1 1.1-1.7 1.6-5.1 4.1-11 6.1-16.9 6.1s-11.8-2-16.9-6.1c-2.9-2.3-4.6-5.6-5.2-9.2-.2-1-.3-1.9-.3-2.9 0-2.3.5-4.6 1.4-6.7.9-2.1 2.3-4 4.1-5.4 10.2-8.1 23.7-8.1 33.9 0 3.7 3 5.5 7.6 5.5 12.1z"/><path class="st11" d="M242.7 250.2c0 .3-.1.5-.2.8-.8.3-1.6.4-2.4.4s-1.6-.1-2.4-.4c-.1-.1-.1-.3-.1-.4v-.3c0-.3.1-.5.2-.8.1-.2.3-.4.5-.6 1.2-.9 2.7-.9 3.9 0 .3.2.5.7.5 1.3z"/><path class="st14" d="M242.5 250.9c-.1.1-.2.3-.3.4l-.2.2c-.5.4-1.1.6-1.6.7h-.6c-.6-.1-1.1-.3-1.6-.7-.2-.2-.4-.4-.5-.6.8.3 1.6.4 2.4.4.8.1 1.6 0 2.4-.4z"/><path class="st11" d="M243.8 257.8c0 .3-.1.5-.2.8-.8.3-1.6.4-2.4.4s-1.6-.1-2.4-.5c-.1-.1-.1-.3-.1-.4v-.3c0-.3.1-.5.2-.8.1-.2.3-.5.5-.6 1.2-.9 2.7-.9 3.9 0 .3.4.5.9.5 1.4z"/><path class="st14" d="M243.6 258.6c-.1.1-.2.3-.3.4l-.2.2c-.5.4-1.1.6-1.6.7h-.6c-.6-.1-1.1-.3-1.6-.7-.2-.2-.4-.4-.5-.6.8.3 1.6.5 2.4.5.9-.1 1.7-.2 2.4-.5z"/><path class="st11" d="M252.9 251.6c0 .3-.1.5-.2.8-.8.3-1.6.4-2.4.4s-1.6-.1-2.4-.4c-.1-.1-.1-.3-.1-.4v-.3c0-.3.1-.5.2-.8.1-.2.3-.4.5-.6 1.2-.9 2.7-.9 3.9 0 .3.3.5.8.5 1.3z"/><path class="st14" d="M252.8 252.4c-.1.1-.2.3-.3.4l-.2.2c-.5.4-1.1.6-1.6.7h-.6c-.6-.1-1.1-.3-1.6-.7-.2-.2-.4-.4-.5-.6.8.3 1.6.4 2.4.4.8 0 1.6-.1 2.4-.4z"/><path class="st11" d="M261.8 248.1c0 .3 0 .5-.2.8-.8.3-1.6.4-2.4.4-.8 0-1.6-.1-2.4-.4-.1-.1-.1-.3-.1-.4v-.3c0-.3 0-.5.2-.8.1-.2.3-.4.5-.6 1.2-.9 2.7-.9 3.9 0 .3.3.5.8.5 1.3z"/><path class="st14" d="M261.6 248.9c-.1.1-.2.3-.3.4l-.2.2c-.5.4-1.1.6-1.6.7h-.6c-.6-.1-1.1-.3-1.6-.7-.2-.2-.4-.4-.5-.6.8.3 1.6.4 2.4.4.9 0 1.7-.1 2.4-.4z"/><path class="st11" d="M268.6 262.7c0 .3 0 .5-.2.8-.8.3-1.6.4-2.4.4-.8 0-1.6-.1-2.4-.5-.1-.1-.1-.3-.1-.4v-.3c0-.3 0-.5.2-.8.1-.2.3-.5.5-.6 1.2-.9 2.7-.9 3.9 0 .3.4.5.9.5 1.4z"/><path class="st14" d="M268.4 263.5c-.1.1-.2.3-.3.4l-.2.2c-.5.4-1.1.6-1.6.7h-.6c-.6-.1-1.1-.3-1.6-.7-.2-.2-.4-.4-.5-.6.8.3 1.6.5 2.4.5.8-.1 1.6-.2 2.4-.5z"/><path class="st11" d="M251.3 269.5c0 .3-.1.5-.2.8-.8.3-1.6.4-2.4.4s-1.6-.1-2.4-.5c-.1-.1-.1-.3-.1-.4v-.3c0-.3.1-.5.2-.8.1-.2.3-.5.5-.6 1.2-.9 2.7-.9 3.9 0 .3.3.5.8.5 1.4z"/><path class="st14" d="M251.1 270.2c-.1.1-.2.3-.3.4l-.2.2c-.5.4-1.1.6-1.6.7h-.6c-.6-.1-1.1-.3-1.6-.7-.2-.2-.4-.4-.5-.6.8.3 1.6.5 2.4.5.8 0 1.6-.2 2.4-.5z"/><path class="st1" d="M261.8 269.5c0 .3 0 .5-.2.8-.8.3-1.6.4-2.4.4-.8 0-1.6-.1-2.4-.5-.1-.1-.1-.3-.1-.4v-.3c0-.3 0-.5.2-.8.1-.2.3-.5.5-.6 1.2-.9 2.7-.9 3.9 0 .3.3.5.8.5 1.4z"/><path class="st15" d="M261.6 270.2c-.1.1-.2.3-.3.4l-.2.2c-.5.4-1.1.6-1.6.7h-.6c-.6-.1-1.1-.3-1.6-.7-.2-.2-.4-.4-.5-.6.8.3 1.6.5 2.4.5.9 0 1.7-.2 2.4-.5z"/><path class="st1" d="M264.4 255c0 .3 0 .5-.2.8-.8.3-1.6.4-2.4.4-.8 0-1.6-.1-2.4-.4-.1-.1-.1-.3-.1-.4v-.3c0-.3 0-.5.2-.8.1-.2.3-.4.5-.6 1.2-.9 2.7-.9 3.9 0 .3.2.5.8.5 1.3z"/><path class="st15" d="M264.2 255.8c-.1.1-.2.3-.3.4l-.2.2c-.5.4-1.1.6-1.6.7h-.6c-.6-.1-1.1-.3-1.6-.7-.2-.2-.4-.4-.5-.6.8.3 1.6.4 2.4.4.8 0 1.6-.1 2.4-.4z"/><path class="st1" d="M254.4 259.5c0 .3-.1.5-.2.8-.8.3-1.6.4-2.4.4s-1.6-.1-2.4-.5c-.1-.1-.1-.3-.1-.4v-.3c0-.3.1-.5.2-.8.1-.2.3-.5.5-.6 1.2-.9 2.7-.9 3.9 0 .3.3.5.9.5 1.4z"/><path class="st15" d="M254.2 260.3c-.1.1-.2.3-.3.4l-.2.2c-.5.4-1.1.6-1.6.7h-.6c-.6-.1-1.1-.3-1.6-.7-.2-.2-.4-.4-.5-.6.8.3 1.6.5 2.4.5.9-.1 1.7-.2 2.4-.5z"/><path class="st1" d="M239.4 264.2c0 .3-.1.5-.2.8-.8.3-1.6.4-2.4.4s-1.6-.1-2.4-.5c-.1-.1-.1-.3-.1-.4v-.3c0-.3.1-.5.2-.8.1-.2.3-.5.5-.6 1.2-.9 2.7-.9 3.9 0 .2.3.5.8.5 1.4z"/><path class="st15" d="M239.2 265c-.1.1-.2.3-.3.4l-.2.2c-.5.4-1.1.6-1.6.7h-.6c-.6-.1-1.1-.3-1.6-.7-.2-.2-.4-.4-.5-.6.8.3 1.6.5 2.4.5.8-.1 1.6-.3 2.4-.5z"/></g><path class="st5" d="M264.5 254c1.3.5 10.3 7.8 10.1 18.3v59.2c-1.3.7-2.8 1.4-4.5 2.1-2.4 1-4.6 1.7-6.5 2.2v-52.9c0-8-.9-15.9-2.8-23.7-.4-1.7-.8-3-1-3.6 1.4-.3 3.9-1.1 4.7-1.6z"/><g><path class="st16" d="M280.3 229v9.9c-.3 6.1-3.2 12.1-8.8 16-16.4 11.3-38.2 11.3-54.6 0-5.6-3.9-8.6-9.9-8.8-16h-.1V229h72.3z"/><path class="st17" d="M216.8 211.8c16.4-11.3 38.2-11.3 54.6 0 5.9 4.1 8.9 10.5 8.9 16.9 0 6.4-3 12.8-8.9 16.9-16.4 11.3-38.2 11.3-54.6 0-5.9-4.1-8.9-10.5-8.9-16.9.1-6.5 3-12.8 8.9-16.9z"/><path class="st5" d="M210.6 238.7c1.4 2.6 3.5 4.9 6.2 6.8 8.2 5.7 17.8 8.5 27.3 8.5 5 0 9.9-.8 14.7-2.3v9.4c2.3-.7 4.5-1.6 6.6-2.7V249s4-2.1 5.9-3.5c5.9-4.1 8.9-10.5 8.9-16.9v-1.2c-1 5.3-4 10.2-8.9 13.6-8.7 6-18.8 9-28.9 9-10.1 0-20.2-3-28.9-9-1.1-.6-2-1.4-2.9-2.3z"/></g><path class="st18" d="M283.3 298.4c-1.2 17.1-1.2 17.1-3.3 21.6-1.7 3.8-4.2 6.2-5.5 7.4-7 6.5-22.6 13.1-40.3 10.3-12-1.9-20.8-7.4-25.9-11.4 1.5 2.5 3.6 4.6 6.2 6.5 8.9 6.1 19.2 9.1 29.6 9.1 10.3 0 20.7-3 29.6-9.1 3.9-2.7 5.6-5.4 6.5-6.9 2.6-4.4 3-8.8 3-11.1.2-9.1.1-7.4.1-16.4z"/><path class="st19" d="M277.4 218.1c-1.5-2.4-3.4-4.6-6-6.3-16.4-11.4-38.2-11.4-54.7 0-5.9 4.1-8.9 10.5-8.9 16.9s2.9 12.8 8.9 16.9c3.6 2.5 7.5 4.5 11.6 5.9"/></g><g id="Layer_3"><path class="st7" d="M165.1 315.8c-13.9 8.7-28.1 17.4-42.4 26.1-9.1 5.5-18.1 10.9-27.1 16.3 3.8 4.6 7.8 8.9 13.7 13.9 12.3 10.3 24.8 16 33.8 19.3 2.5 1.2 7.3 3.1 13.4 4.2 24.5 4.5 58.5-7.1 63.6-28.4 1.9-8-.8-15-2.3-18.6-11.2-27.8-49.4-32.5-52.7-32.8z"/><path class="st16" d="M209.5 274.2H129v84.1c.3 6.8 3.6 13.5 9.9 17.8 18.3 12.6 42.5 12.6 60.8 0 6.3-4.3 9.6-11 9.9-17.8l-.1-84.1z"/><defs><path id="SVGID_1_" d="M209.5 274.2H129v84.1c.3 6.8 3.6 13.5 9.9 17.8 18.3 12.6 42.5 12.6 60.8 0 6.3-4.3 9.6-11 9.9-17.8l-.1-84.1z"/></defs><clipPath id="SVGID_2_"><use xlink:href="#SVGID_1_" overflow="visible"/></clipPath><path d="M199.6 316.3c-18.3 12.6-42.5 12.6-60.8 0-6.2-4.3-9.5-10.8-9.9-17.5v37.5c.3 6.8 3.6 13.5 9.9 17.8 18.3 12.6 42.5 12.6 60.8 0 6.3-4.3 9.6-11 9.9-17.8v-38.1c-.2 6.9-3.5 13.7-9.9 18.1z" clip-path="url(#SVGID_2_)" fill="#ff7769"/><path class="st21" d="M169.2 368.4c-9.6 0-17.4-7.8-17.4-17.4v-16.3c0-9.6 7.8-17.4 17.4-17.4 9.6 0 17.4 7.8 17.4 17.4V351c0 9.6-7.8 17.4-17.4 17.4z"/><path class="st3" d="M173.5 351.7c-7.2 0-13.1-5.9-13.1-13.1 0-2.5 2-4.5 4.5-4.5s4.5 2 4.5 4.5c0 2.2 1.8 4.1 4.1 4.1 2.5 0 4.5 2 4.5 4.5s-2 4.5-4.5 4.5z"/><path class="st17" d="M138.9 256.8c18.3-12.6 42.5-12.6 60.8 0 6.6 4.5 9.9 11.6 9.9 18.8s-3.3 14.2-9.9 18.8c-18.3 12.6-42.5 12.6-60.8 0-6.6-4.5-9.9-11.6-9.9-18.8s3.3-14.3 9.9-18.8z"/><g><path class="st16" d="M143.2 259.5c15.7-10.8 36.4-10.8 52.1 0 5.6 3.9 8.4 10 8.4 16.1s-2.8 12.2-8.4 16.1a45.939 45.939 0 01-52.1 0c-5.6-3.9-8.4-10-8.4-16.1s2.8-12.3 8.4-16.1z"/><path class="st17" d="M146.4 261.4c13.7-9.5 31.9-9.5 45.6 0 4.9 3.4 7.4 8.8 7.4 14.1s-2.5 10.7-7.4 14.1c-13.7 9.5-31.9 9.5-45.6 0-4.9-3.4-7.4-8.8-7.4-14.1s2.5-10.7 7.4-14.1z"/><path class="st16" d="M150.9 264.2c11.1-7.6 25.7-7.6 36.8 0 4 2.7 6 7 6 11.4s-2 8.6-6 11.4c-11.1 7.6-25.7 7.6-36.8 0-4-2.7-6-7-6-11.4s2-8.7 6-11.4z"/><path class="st17" d="M153.1 265.6c9.7-6.7 22.5-6.7 32.3 0 3.5 2.4 5.2 6.2 5.2 10s-1.7 7.5-5.2 10c-9.7 6.7-22.5 6.7-32.3 0-3.5-2.4-5.2-6.2-5.2-10s1.7-7.6 5.2-10z"/><path class="st16" d="M157.1 268c7.3-5 17-5 24.3 0 2.6 1.8 3.9 4.7 3.9 7.5s-1.3 5.7-3.9 7.5c-7.3 5-17 5-24.3 0-2.6-1.8-3.9-4.7-3.9-7.5s1.3-5.7 3.9-7.5z"/><path class="st17" d="M158.6 269c6.4-4.4 14.9-4.4 21.3 0 2.3 1.6 3.5 4.1 3.5 6.6s-1.1 5-3.5 6.6c-6.4 4.4-14.9 4.4-21.3 0-2.3-1.6-3.5-4.1-3.5-6.6s1.2-5.1 3.5-6.6z"/></g><path class="st5" d="M131.9 286.8c1.6 2.9 3.9 5.5 6.9 7.5 9.1 6.3 19.8 9.5 30.4 9.5 5.5 0 11.1-.9 16.4-2.6l.1 81.9c2.5-.8 4.9-1.8 7.4-3l-.1-81.8c-.1 0 4.3-2.2 6.6-3.9 2.8-2.1 3.8-3 5-4.6 2-2.6 3.1-5.1 3.3-5.8.6-1.4.9-2.7 1.2-4 .4-1.9.4-3.4.4-4.3v-1.3c-.3 2.9-1.3 7.6-4.4 12.3-5.4 8.2-13.7 11.1-18.9 12.9-7.6 2.6-13.8 2.6-17.2 2.6-4.9 0-17.5-.2-29.4-8.5-3.5-2.7-6.1-5.2-7.7-6.9z"/><path class="st19" d="M206.1 263.5c-1.6-2.7-3.8-5.1-6.6-7a53.595 53.595 0 00-61 0c-6.6 4.5-9.9 11.7-9.9 18.8 0 7.1 3.3 14.3 9.9 18.8 4.1 2.8 8.4 5 12.9 6.5"/></g><g id="Layer_18"><path class="st7" d="M96.4 357.7c-19.9 12.1-39.8 24.3-59.7 36.4-1.6 4.9-3 12 .2 18.3 6.1 12 24.5 12.7 41.2 13.3 19 .7 42.1 1.5 55.9-14.7 5.7-6.7 8.1-14.2 9.1-19.6-.9-2.4-1.9-4.6-3-6.6-11-19.7-34.5-25.4-43.7-27.1z"/><path class="st12" d="M50.3 370.8v21.9h.1c.5 6.5 3.7 12.9 9.7 17 18.3 12.6 42.5 12.6 60.8 0 6-4.2 9.4-10.5 9.9-17v-21.9H50.3z"/><path class="st1" d="M120.9 393.9c-18.3 12.6-42.5 12.6-60.8 0-6.2-4.3-9.5-10.8-9.9-17.5V390c.3 6.8 3.6 13.5 9.8 17.8 18.3 12.6 42.5 12.6 60.8 0 6.3-4.3 9.6-11 9.9-17.8v-14.1c-.2 6.8-3.5 13.6-9.8 18z"/><path class="st11" d="M60.1 353.3c18.3-12.6 42.5-12.6 60.8 0 6.6 4.5 9.9 11.6 9.9 18.8s-3.3 14.2-9.8 18.8c-18.3 12.6-42.5 12.6-60.8 0-6.6-4.5-9.9-11.6-9.9-18.8s3.2-14.3 9.8-18.8z"/><path class="st12" d="M63.8 355.6c16-11.1 37.3-11.1 53.3 0 5.8 4 8.6 10.2 8.6 16.5s-2.9 12.5-8.6 16.5c-16 11.1-37.3 11.1-53.3 0-5.8-4-8.6-10.2-8.6-16.5s2.9-12.5 8.6-16.5z"/><path class="st11" d="M69 358.8c12.9-8.9 30-8.9 42.9 0 4.6 3.2 7 8.2 7 13.3s-2.3 10.1-7 13.3c-12.9 8.9-30 8.9-42.9 0-4.6-3.2-7-8.2-7-13.3s2.4-10.1 7-13.3z"/><path class="st12" d="M71.7 360.5c11.3-7.8 26.3-7.8 37.7 0 4.1 2.8 6.1 7.2 6.1 11.6s-2 8.8-6.1 11.6c-11.3 7.8-26.3 7.8-37.7 0-4.1-2.8-6.1-7.2-6.1-11.6s2-8.8 6.1-11.6z"/><path class="st11" d="M76.3 363.3c8.6-5.9 19.8-5.9 28.4 0 3.1 2.1 4.6 5.4 4.6 8.8s-1.5 6.6-4.6 8.8c-8.6 5.9-19.8 5.9-28.4 0-3.1-2.1-4.6-5.4-4.6-8.8s1.5-6.7 4.6-8.8z"/><path class="st12" d="M78.1 364.4c7.5-5.2 17.4-5.2 24.9 0 2.7 1.9 4 4.8 4 7.7s-1.3 5.8-4 7.7c-7.5 5.2-17.4 5.2-24.9 0-2.7-1.9-4-4.8-4-7.7s1.3-5.9 4-7.7z"/><g><path class="st8" d="M77.2 409.8c3.8-3.8 19-3.8 22.7 0-3.7 3.7-18.9 3.7-22.7 0z"/><path class="st8" d="M103.8 413.6l-3.9-3.8 3.9-3.8z"/><circle class="st16" cx="81.1" cy="409.8" r=".6"/></g><path class="st5" d="M53.2 383.3c1.6 2.9 3.9 5.5 6.9 7.5 9.2 6.3 19.8 9.5 30.4 9.5 5.5 0 11.1-.9 16.4-2.6l.1 18.9c2.5-.8 5-1.8 7.4-3l-.1-18.9c-.1 0 4.3-2.2 6.6-3.9 2.8-2.1 3.8-3 5-4.6 2-2.6 3.1-5.1 3.3-5.8.6-1.4.9-2.7 1.2-4 .4-1.9.4-3.4.4-4.3v-1.3c-.3 2.9-1.3 7.6-4.3 12.3-5.4 8.2-13.7 11.1-18.9 12.9-7.6 2.6-13.8 2.6-17.2 2.6-4.9 0-17.5-.2-29.5-8.5-3.6-2.6-6.1-5.1-7.7-6.8z"/><g><path class="st13" d="M59.7 348.3v21.9h.1c.5 6.5 3.7 12.9 9.7 17 18.3 12.6 42.5 12.6 60.8 0 6-4.2 9.4-10.5 9.9-17v-21.9H59.7z"/><path class="st1" d="M130.3 371.4c-18.3 12.6-42.5 12.6-60.8 0-6.2-4.3-9.5-10.8-9.8-17.5v13.5c.3 6.8 3.6 13.5 9.8 17.8 18.3 12.6 42.5 12.6 60.8 0 6.3-4.3 9.6-11 9.9-17.8v-14.1c-.2 6.9-3.5 13.7-9.9 18.1z"/><path class="st22" d="M69.6 330.8c18.3-12.6 42.5-12.6 60.8 0 6.6 4.5 9.9 11.6 9.9 18.8s-3.3 14.2-9.9 18.8c-18.3 12.6-42.5 12.6-60.8 0-6.6-4.5-9.8-11.6-9.8-18.8s3.2-14.2 9.8-18.8z"/><path class="st13" d="M73.3 333.1c16-11.1 37.3-11.1 53.3 0 5.8 4 8.6 10.2 8.6 16.5s-2.9 12.5-8.6 16.5c-16 11.1-37.3 11.1-53.3 0-5.8-4-8.6-10.2-8.6-16.5s2.8-12.5 8.6-16.5z"/><path class="st22" d="M78.5 336.3c12.9-8.9 30-8.9 42.9 0 4.6 3.2 7 8.2 7 13.3s-2.3 10.1-7 13.3c-12.9 8.9-30 8.9-43 0-4.6-3.2-7-8.2-7-13.3s2.4-10.1 7.1-13.3z"/><path class="st13" d="M81.1 338c11.3-7.8 26.3-7.8 37.7 0 4.1 2.8 6.1 7.2 6.1 11.6s-2 8.8-6.1 11.6c-11.3 7.8-26.3 7.8-37.7 0-4.1-2.8-6.1-7.2-6.1-11.6s2.1-8.8 6.1-11.6z"/><path class="st22" d="M85.8 340.8c8.6-5.9 19.8-5.9 28.4 0 3.1 2.1 4.6 5.4 4.6 8.8 0 3.3-1.5 6.6-4.6 8.8-8.6 5.9-19.8 5.9-28.4 0-3.1-2.1-4.6-5.4-4.6-8.8s1.5-6.7 4.6-8.8z"/><path class="st13" d="M87.5 341.9c7.5-5.2 17.4-5.2 24.9 0 2.7 1.9 4 4.8 4 7.7s-1.3 5.8-4 7.7c-7.5 5.2-17.4 5.2-24.9 0-2.7-1.9-4-4.8-4-7.7s1.3-5.8 4-7.7z"/><path class="st12" d="M86.7 387.3c3.8-3.8 19-3.8 22.7 0-3.8 3.8-19 3.8-22.7 0zM113.2 391.1l-3.8-3.8 3.8-3.8z"/><circle class="st16" cx="90.5" cy="387.3" r=".6"/><path class="st5" d="M62.6 360.8c1.6 2.9 3.9 5.5 6.9 7.5 9.2 6.3 19.8 9.5 30.4 9.5 5.5 0 11.1-.9 16.4-2.6l.1 18.9c2.5-.8 5-1.8 7.4-3l-.1-18.9c-.1 0 4.3-2.2 6.6-3.9 2.8-2.1 3.8-3 5-4.6 2-2.6 3.1-5.1 3.3-5.8.6-1.4.9-2.7 1.2-4 .4-1.9.4-3.4.4-4.3v-1.3c-.3 2.9-1.3 7.6-4.4 12.3-5.4 8.2-13.7 11.1-18.9 12.9-7.6 2.6-13.8 2.6-17.2 2.6-4.9 0-17.5-.2-29.4-8.5-3.5-2.5-6.1-5.1-7.7-6.8z"/><path class="st19" d="M136.8 337.9c-1.6-2.7-3.8-5.1-6.6-7a53.462 53.462 0 00-60.7 0c-6.6 4.5-9.8 11.6-9.8 18.7s3.3 14.2 9.8 18.7c4 2.8 8.4 5 12.8 6.5"/></g></g><g id="Layer_5"><path class="st7" d="M394.4 295.5c-8.2-4.9-16.4-9.8-24.6-14.8-38.6-4.1-66.4 7.1-69.5 21.7-1.8 8.5 4.7 18.6 9.9 23.8 9.5 9.6 21.8 10.5 31.2 11.1 11.7.8 21.5-1.5 28-3.7 4.1-2.4 12.7-8 18.9-18.8 4.3-7.6 5.6-14.9 6.1-19.3z"/><path class="st12" d="M308.9 256.6c0-4.5 3.6-8.1 8.1-8.1h57.2c4.5 0 8.1 3.6 8.1 8.1v48.1c0 6.4-3 12.8-9 16.9-16.7 11.5-38.7 11.5-55.3 0-5.9-4.1-8.9-10.5-9-16.9l-.1-48.1z"/><path class="st11" d="M382.2 275.6c-1.1 16-1.1 30-3 34.2-1.6 3.6-4 5.8-5.1 6.9-6.5 6-21.1 12.3-37.6 9.7-11.2-1.8-19.4-6.9-24.2-10.6 1.4 2.3 3.4 4.3 5.8 6 8.3 5.7 18 8.5 27.6 8.5 9.7 0 19.3-2.8 27.7-8.5 3.7-2.5 5.3-5 6.1-6.5 2.5-4.1 2.8-8.2 2.9-10.4-.1-8.4-.1-20.9-.2-29.3z"/><defs><path id="SVGID_3_" d="M308.9 256.6c0-4.5 3.6-8.1 8.1-8.1h57.2c4.5 0 8.1 3.6 8.1 8.1v48.1c0 6.4-3 12.8-9 16.9-16.7 11.5-38.7 11.5-55.3 0-5.9-4.1-8.9-10.5-9-16.9l-.1-48.1z"/></defs><clipPath id="SVGID_4_"><use xlink:href="#SVGID_3_" overflow="visible"/></clipPath><path d="M373.5 275.6c-16.8 11.6-39 11.6-55.8 0-5.7-3.9-8.7-9.9-9-16V294c.3 6.2 3.3 12.4 9 16.3 16.8 11.6 39 11.6 55.8 0 5.8-4 8.8-10.1 9-16.3v-35c-.2 6.3-3.2 12.6-9 16.6z" clip-path="url(#SVGID_4_)" fill="#f4f4f4"/><path class="st21" d="M343.2 313.3l-17.1-11c-1.5-1-1.5-3.1 0-4.1l17.1-11c1.5-1 3.4-1 4.9 0l17.1 11c1.5 1 1.5 3.1 0 4.1l-17.1 11c-1.5 1-3.4 1-4.9 0z"/><g class="st24"><path class="st3" d="M363.6 265.8c.9.4 7.3 3.5 7.1 11.6v41.9c-.9.6-2 1.5-3.2 2-1.7.8-3.2 1.7-4.5 2v-14.8c0-6.1.5-23.1 0-29.2-.7-7.9-2.5-11.9-2.7-12.3 1-.2 2.7-.8 3.3-1.2z"/></g><g><path class="st16" d="M381.3 235.6v15.9c-.3 6-3.1 11.9-8.7 15.8a47.272 47.272 0 01-53.8 0c-5.6-3.8-8.4-9.8-8.7-15.8v-15.9h71.2z"/><path class="st17" d="M318.7 220.2c16.2-11.2 37.6-11.2 53.8 0 5.8 4 8.7 10.3 8.7 16.6s-2.9 12.6-8.7 16.6a47.272 47.272 0 01-53.8 0c-5.8-4-8.7-10.3-8.7-16.6s2.9-12.6 8.7-16.6z"/></g><path class="st19" d="M312.9 226.4c1.4-2.4 3.4-4.5 5.9-6.2 16.2-11.2 37.6-11.2 53.8 0 5.8 4 8.7 10.3 8.7 16.6s-2.9 12.6-8.7 16.6c-3.6 2.5-7.4 4.4-11.4 5.8"/></g><g id="Layer_6"><path class="st7" d="M450.8 330c-10-6.1-20-12.2-30-18.4-9.1.5-24.3 2.7-39.4 12.4-4.8 3.1-8.8 6.5-12.1 9.7-9.2 10.4-8.7 18-8.4 20.5 2.1 15.1 25.7 29 59.6 27.6 4.7-.8 11-2.7 16.8-7.2 12.1-9.6 17-26.8 13.5-44.6z"/><path class="st13" d="M374.8 285.3c0-5 4.1-9.1 9.1-9.1h44.9c5 0 9.1 4.1 9.1 9.1v68.5c0 5.5-2.6 11-7.7 14.6-14.3 9.9-33.3 9.9-47.6 0-5.1-3.5-7.7-9-7.7-14.6v-68.5z"/><path class="st16" d="M395.8 312.5c-7.5 0-13.6-6.1-13.6-13.6h9.8c0 2.1 1.7 3.8 3.8 3.8s3.8-1.7 3.8-3.8h9.8c0 7.5-6.1 13.6-13.6 13.6z"/><path class="st12" d="M404.9 326.8c-3.5 0-7-1.3-9.6-4l6.9-6.9c1.5 1.5 3.9 1.5 5.4 0s1.5-3.9 0-5.4l6.9-6.9c5.3 5.3 5.3 13.9 0 19.2-2.6 2.7-6.1 4-9.6 4zM390.1 353.6c0-3.5 1.3-7 4-9.6l6.9 6.9c-1.5 1.5-1.5 3.9 0 5.4s3.9 1.5 5.4 0l6.9 6.9c-5.3 5.3-13.9 5.3-19.2 0-2.7-2.6-4-6.1-4-9.6z"/><path class="st16" d="M383.3 345.5v-9.8c2.1 0 3.8-1.7 3.8-3.8s-1.7-3.8-3.8-3.8v-9.8c7.5 0 13.6 6.1 13.6 13.6s-6.1 13.6-13.6 13.6zM422 359.4l-6.9-6.9c.7-.7 1.1-1.7 1.1-2.7s-.4-2-1.1-2.7c-.7-.7-1.7-1.1-2.7-1.1s-2 .4-2.7 1.1l-6.9-6.9c2.6-2.6 6-4 9.6-4 3.6 0 7 1.4 9.6 4 2.6 2.6 4 6 4 9.6-.1 3.7-1.5 7.1-4 9.6zM432.5 338.1c-7.5 0-13.6-6.1-13.6-13.6s6.1-13.6 13.6-13.6v9.8c-2.1 0-3.8 1.7-3.8 3.8s1.7 3.8 3.8 3.8v9.8z"/><path class="st5" d="M422.8 287.8c1 .4 8.3 6.2 8.1 14.7v64.8c-1.1.6-2.3 1.1-3.6 1.7-1.9.8-3.7 1.4-5.2 1.8V311c0-6.4-.7-12.8-2.3-19-.3-1.4-.6-2.4-.8-2.9 1.1-.3 3.1-.9 3.8-1.3z"/><path class="st18" d="M437.9 340.7c-1 13.8-1 13.8-2.6 17.4-1.4 3.1-3.4 5-4.4 5.9-5.6 5.2-18.2 10.5-32.4 8.3-9.6-1.5-16.7-6-20.8-9.2 1.2 2 2.9 3.7 5 5.2 7.2 4.9 15.5 7.3 23.8 7.3s16.6-2.4 23.8-7.3c3.2-2.2 4.5-4.3 5.3-5.6 2.1-3.6 2.4-7.1 2.5-9-.2-7.1-.2-5.7-.2-13z"/><path class="st16" d="M435.5 267.7v8c-.2 4.9-2.5 9.7-7.1 12.9-13.2 9.1-30.7 9.1-43.9 0-4.5-3.1-6.9-8-7.1-12.9v-8h58.1z"/><path class="st17" d="M384.4 253.8c13.2-9.1 30.7-9.1 43.9 0 4.7 3.3 7.1 8.4 7.1 13.5s-2.4 10.3-7.1 13.5c-13.2 9.1-30.7 9.1-43.9 0-4.7-3.3-7.1-8.4-7.1-13.5 0-5 2.4-10.2 7.1-13.5z"/><path class="st5" d="M379.4 275.5c1.2 2.1 2.8 4 5 5.4 6.6 4.6 14.3 6.8 22 6.8 4 0 8-.6 11.9-1.9v7.5c1.8-.6 3.6-1.3 5.3-2.2v-7.5s3.2-1.7 4.8-2.8c4.8-3.3 7.1-8.4 7.1-13.5v-.9c-.8 4.2-3.2 8.2-7.2 10.9-7 4.8-15.1 7.2-23.3 7.2-8.1 0-16.3-2.4-23.3-7.2-.8-.5-1.6-1.1-2.3-1.8z"/><path class="st19" d="M379.4 259.1c1.2-2 2.8-3.7 4.9-5.1 13.4-9.3 31.2-9.3 44.6 0 4.8 3.3 7.2 8.5 7.2 13.8 0 5.2-2.4 10.4-7.2 13.8-3 2-6.1 3.6-9.4 4.8"/></g><g id="Layer_7"><path class="st7" d="M420.6 381.8c.9 7 5.8 11.7 7 12.9 19.6 18.4 73.7 5.5 78.8-16.8.9-3.9.5-9.1-3.5-16.1-7.6-4.6-15.2-9.3-22.7-13.9-4.4-1.1-26.1-6.2-43.6 6.7-2.6 1.9-17.8 13.1-16 27.2z"/><path class="st25" d="M425.3 355.6c0-9.1 7.4-16.5 16.5-16.5h40.3c9.1 0 16.5 7.4 16.5 16.5v16.6c0 6.4-3 12.8-9 16.9-16.7 11.5-38.7 11.5-55.3 0-5.9-4.1-8.9-10.5-9-16.9v-16.6z"/><path class="st5" d="M489.8 369.3c-.4 2.8-.7 5.8-2.8 9.3-1.4 2.4-2.6 4.5-5 5.4-4.1 1.6-7.5-1.9-14.9-3.1-1.8-.3-3.5-.4-5.1-.4-1.5 0-3.2.1-5.1.4-7.4 1.2-10.8 4.8-14.9 3.1-2.4-.9-3.6-3-5-5.4-2.1-3.5-2.4-6.5-2.8-9.3-.5-2.8-1.3-6.6-2.9-11-.2-.6-1.2-.5-1.1.2 0 1.1.1 2.4.1 3.8.5 12.2 1.5 14.9 2.2 16.4 2 4.2 5.1 6.4 6.9 7.7 8.7 6.3 16.7 6.9 20.5 6.8h4.5c3.7.1 11.5-.6 20.1-6.8 1.8-1.3 4.9-3.6 6.9-7.7.8-1.6 1.7-4.2 2.2-16.4.1-1.4.1-2.7.1-3.8 0-.7-.9-.8-1.1-.2-1.6 4.4-2.4 8.1-2.8 11z"/><path class="st26" d="M467.4 381.6c-3.4 0-6.1-2.7-6.1-6.1 0-1.6.7-3.1 1.7-4.2 1.1-1.1 2.6-1.9 4.4-1.9 3.4 0 6.1 2.7 6.1 6.1 0 2.5-1.5 4.7-3.7 5.6-.7.4-1.5.5-2.4.5z"/><path class="st21" d="M469.8 381.2c-3.9-.5-7-3.8-7-7.9 0-.7.1-1.3.3-2 1.1-1.1 2.6-1.9 4.4-1.9 3.4 0 6.1 2.7 6.1 6.1-.1 2.6-1.6 4.8-3.8 5.7z"/><path class="st27" d="M464.3 365.6c-3.4 0-6.1-2.7-6.1-6.1 0-1.6.7-3.1 1.7-4.2 1.1-1.1 2.6-1.9 4.4-1.9 3.4 0 6.1 2.7 6.1 6.1 0 2.5-1.5 4.7-3.7 5.6-.7.3-1.6.5-2.4.5z"/><path class="st1" d="M466.7 365.1c-3.9-.5-7-3.8-7-7.9 0-.7.1-1.3.3-2 1.1-1.1 2.6-1.9 4.4-1.9 3.4 0 6.1 2.7 6.1 6.1-.1 2.6-1.6 4.8-3.8 5.7z"/><path class="st8" d="M452.1 375.2c-3.4 0-6.1-2.7-6.1-6.1 0-1.6.7-3.1 1.7-4.2 1.1-1.1 2.6-1.9 4.4-1.9 3.4 0 6.1 2.7 6.1 6.1 0 2.5-1.5 4.7-3.7 5.6-.7.3-1.5.5-2.4.5z"/><path class="st9" d="M454.5 374.8c-3.9-.5-7-3.8-7-7.9 0-.7.1-1.3.3-2 1.1-1.1 2.6-1.9 4.4-1.9 3.4 0 6.1 2.7 6.1 6.1-.1 2.6-1.6 4.7-3.8 5.7z"/><path class="st28" d="M446.1 365.3c-3.4 0-6.1-2.7-6.1-6.1 0-1.6.7-3.1 1.7-4.2 1.1-1.1 2.6-1.9 4.4-1.9 3.4 0 6.1 2.7 6.1 6.1 0 2.5-1.5 4.7-3.7 5.6-.8.3-1.6.5-2.4.5z"/><path class="st22" d="M448.4 364.8c-3.9-.5-7-3.8-7-7.9 0-.7.1-1.3.3-2 1.1-1.1 2.6-1.9 4.4-1.9 3.4 0 6.1 2.7 6.1 6.1-.1 2.6-1.6 4.8-3.8 5.7z"/><path class="st26" d="M473.5 371.7c-3.4 0-6.1-2.7-6.1-6.1 0-1.6.7-3.1 1.7-4.2 1.1-1.1 2.6-1.9 4.4-1.9 3.4 0 6.1 2.7 6.1 6.1 0 2.5-1.5 4.7-3.7 5.6-.8.3-1.5.5-2.4.5z"/><path class="st21" d="M475.9 371.2c-3.9-.5-7-3.8-7-7.9 0-.7.1-1.3.2-2 1.1-1.1 2.6-1.9 4.4-1.9 3.4 0 6.1 2.7 6.1 6.1 0 2.6-1.5 4.8-3.7 5.7z"/><path class="st27" d="M476.5 380.8c-3.4 0-6.1-2.7-6.1-6.1 0-1.6.7-3.1 1.7-4.2 1.1-1.1 2.6-1.9 4.4-1.9 3.4 0 6.1 2.7 6.1 6.1 0 2.5-1.5 4.7-3.7 5.6-.8.4-1.6.5-2.4.5z"/><path class="st1" d="M478.9 380.4c-3.9-.5-7-3.8-7-7.9 0-.7.1-1.3.2-2 1.1-1.1 2.6-1.9 4.4-1.9 3.4 0 6.1 2.7 6.1 6.1 0 2.6-1.6 4.7-3.7 5.7z"/><path class="st8" d="M482.6 371.7c-3.4 0-6.1-2.7-6.1-6.1 0-1.6.7-3.1 1.7-4.2 1.1-1.1 2.6-1.9 4.4-1.9 3.4 0 6.1 2.7 6.1 6.1 0 2.5-1.5 4.7-3.7 5.6-.8.3-1.6.5-2.4.5z"/><path class="st9" d="M484.9 371.2c-3.9-.5-7-3.8-7-7.9 0-.7.1-1.3.2-2 1.1-1.1 2.6-1.9 4.4-1.9 3.4 0 6.1 2.7 6.1 6.1.1 2.6-1.5 4.8-3.7 5.7z"/><path class="st28" d="M473.5 362.2c-3.4 0-6.1-2.7-6.1-6.1 0-1.6.7-3.1 1.7-4.2 1.1-1.1 2.6-1.9 4.4-1.9 3.4 0 6.1 2.7 6.1 6.1 0 2.5-1.5 4.7-3.7 5.6-.8.4-1.5.5-2.4.5z"/><path class="st22" d="M475.9 361.8c-3.9-.5-7-3.8-7-7.9 0-.7.1-1.3.2-2 1.1-1.1 2.6-1.9 4.4-1.9 3.4 0 6.1 2.7 6.1 6.1 0 2.6-1.5 4.7-3.7 5.7z"/><path class="st8" d="M463.3 374.8c-3.4 0-6.1-2.7-6.1-6.1 0-1.6.7-3.1 1.7-4.2 1.1-1.1 2.6-1.9 4.4-1.9 3.4 0 6.1 2.7 6.1 6.1 0 2.5-1.5 4.7-3.7 5.6-.8.3-1.6.5-2.4.5z"/><path class="st9" d="M465.7 374.3c-3.9-.5-7-3.8-7-7.9 0-.7.1-1.3.3-2 1.1-1.1 2.6-1.9 4.4-1.9 3.4 0 6.1 2.7 6.1 6.1-.1 2.6-1.6 4.8-3.8 5.7z"/><path class="st28" d="M485.7 380.4c-3.4 0-6.1-2.7-6.1-6.1 0-1.6.7-3.1 1.7-4.2 1.1-1.1 2.6-1.9 4.4-1.9 3.4 0 6.1 2.7 6.1 6.1 0 2.5-1.5 4.7-3.7 5.6-.8.3-1.6.5-2.4.5z"/><path class="st22" d="M488 379.9c-3.9-.5-7-3.8-7-7.9 0-.7.1-1.3.2-2 1.1-1.1 2.6-1.9 4.4-1.9 3.4 0 6.1 2.7 6.1 6.1.1 2.6-1.5 4.8-3.7 5.7z"/><path class="st27" d="M455.1 367.8c-3.4 0-6.1-2.7-6.1-6.1 0-1.6.7-3.1 1.7-4.2 1.1-1.1 2.6-1.9 4.4-1.9 3.4 0 6.1 2.7 6.1 6.1 0 2.5-1.5 4.7-3.7 5.6-.7.4-1.5.5-2.4.5z"/><path class="st1" d="M457.5 367.4c-3.9-.5-7-3.8-7-7.9 0-.7.1-1.3.3-2 1.1-1.1 2.6-1.9 4.4-1.9 3.4 0 6.1 2.7 6.1 6.1-.1 2.6-1.6 4.7-3.8 5.7z"/><path class="st26" d="M458.2 381.3c-3.4 0-6.1-2.7-6.1-6.1 0-1.6.7-3.1 1.7-4.2 1.1-1.1 2.6-1.9 4.4-1.9 3.4 0 6.1 2.7 6.1 6.1 0 2.5-1.5 4.7-3.7 5.6-.7.3-1.5.5-2.4.5z"/><path class="st21" d="M460.6 380.8c-3.9-.5-7-3.8-7-7.9 0-.7.1-1.3.3-2 1.1-1.1 2.6-1.9 4.4-1.9 3.4 0 6.1 2.7 6.1 6.1-.1 2.7-1.6 4.8-3.8 5.7z"/><path class="st28" d="M443 373.9c-3.4 0-6.1-2.7-6.1-6.1 0-1.6.7-3.1 1.7-4.2 1.1-1.1 2.6-1.9 4.4-1.9 3.4 0 6.1 2.7 6.1 6.1 0 2.5-1.5 4.7-3.7 5.6-.8.4-1.6.5-2.4.5z"/><path class="st22" d="M445.3 373.4c-3.9-.5-7-3.8-7-7.9 0-.7.1-1.3.3-2 1.1-1.1 2.6-1.9 4.4-1.9 3.4 0 6.1 2.7 6.1 6.1-.1 2.7-1.6 4.8-3.8 5.7z"/><path class="st27" d="M445.5 385.2c-3.4 0-6.1-2.7-6.1-6.1 0-1.6.7-3.1 1.7-4.2 1.1-1.1 2.6-1.9 4.4-1.9 3.4 0 6.1 2.7 6.1 6.1 0 2.5-1.5 4.7-3.7 5.6-.7.3-1.5.5-2.4.5z"/><path class="st1" d="M447.9 384.7c-3.9-.5-7-3.8-7-7.9 0-.7.1-1.3.2-2 1.1-1.1 2.6-1.9 4.4-1.9 3.4 0 6.1 2.7 6.1 6.1 0 2.6-1.5 4.8-3.7 5.7z"/><g><path class="st28" d="M468.2 387.7c-3.4 0-6.1-2.7-6.1-6.1 0-1.6.7-3.1 1.7-4.2 1.1-1.1 2.6-1.9 4.4-1.9 3.4 0 6.1 2.7 6.1 6.1 0 2.5-1.5 4.7-3.7 5.6-.8.4-1.6.5-2.4.5z"/><path class="st22" d="M470.5 387.3c-3.9-.5-7-3.8-7-7.9 0-.7.1-1.3.2-2 1.1-1.1 2.6-1.9 4.4-1.9 3.4 0 6.1 2.7 6.1 6.1.1 2.6-1.5 4.7-3.7 5.7z"/></g><g><path class="st8" d="M455.9 359.5c-3.4 0-6.1-2.7-6.1-6.1 0-1.6.7-3.1 1.7-4.2 1.1-1.1 2.6-1.9 4.4-1.9 3.4 0 6.1 2.7 6.1 6.1 0 2.5-1.5 4.7-3.7 5.6-.8.4-1.6.5-2.4.5z"/><path class="st9" d="M458.2 359c-3.9-.5-7-3.8-7-7.9 0-.7.1-1.3.2-2 1.1-1.1 2.6-1.9 4.4-1.9 3.4 0 6.1 2.7 6.1 6.1.1 2.7-1.5 4.8-3.7 5.7z"/></g><g><path class="st26" d="M438.4 381.4c-3.4 0-6.1-2.7-6.1-6.1 0-1.6.7-3.1 1.7-4.2 1.1-1.1 2.6-1.9 4.4-1.9 3.4 0 6.1 2.7 6.1 6.1 0 2.5-1.5 4.7-3.7 5.6-.8.3-1.6.5-2.4.5z"/><path class="st21" d="M440.7 380.9c-3.9-.5-7-3.8-7-7.9 0-.7.1-1.3.2-2 1.1-1.1 2.6-1.9 4.4-1.9 3.4 0 6.1 2.7 6.1 6.1 0 2.7-1.5 4.8-3.7 5.7z"/></g><g><path class="st27" d="M439.1 365c-3.4 0-6.1-2.7-6.1-6.1 0-1.6.7-3.1 1.7-4.2 1.1-1.1 2.6-1.9 4.4-1.9 3.4 0 6.1 2.7 6.1 6.1 0 2.5-1.5 4.7-3.7 5.6-.8.4-1.6.5-2.4.5z"/><path class="st1" d="M441.5 364.5c-3.9-.5-7-3.8-7-7.9 0-.7.1-1.3.2-2 1.1-1.1 2.6-1.9 4.4-1.9 3.4 0 6.1 2.7 6.1 6.1 0 2.7-1.5 4.8-3.7 5.7z"/></g><g><path class="st28" d="M459 388.7c-3.4 0-6.1-2.7-6.1-6.1 0-1.6.7-3.1 1.7-4.2 1.1-1.1 2.6-1.9 4.4-1.9 3.4 0 6.1 2.7 6.1 6.1 0 2.5-1.5 4.7-3.7 5.6-.8.4-1.6.5-2.4.5z"/><path class="st22" d="M461.4 388.3c-3.9-.5-7-3.8-7-7.9 0-.7.1-1.3.2-2 1.1-1.1 2.6-1.9 4.4-1.9 3.4 0 6.1 2.7 6.1 6.1 0 2.6-1.6 4.7-3.7 5.7z"/></g><g><path class="st26" d="M477.2 387c-3.4 0-6.1-2.7-6.1-6.1 0-1.6.7-3.1 1.7-4.2 1.1-1.1 2.6-1.9 4.4-1.9 3.4 0 6.1 2.7 6.1 6.1 0 2.5-1.5 4.7-3.7 5.6-.7.3-1.5.5-2.4.5z"/><path class="st21" d="M479.6 386.5c-3.9-.5-7-3.8-7-7.9 0-.7.1-1.3.2-2 1.1-1.1 2.6-1.9 4.4-1.9 3.4 0 6.1 2.7 6.1 6.1 0 2.7-1.5 4.8-3.7 5.7z"/></g><g><path class="st27" d="M467.4 380c-3.4 0-6.1-2.7-6.1-6.1 0-1.6.7-3.1 1.7-4.2 1.1-1.1 2.6-1.9 4.4-1.9 3.4 0 6.1 2.7 6.1 6.1 0 2.5-1.5 4.7-3.7 5.6-.7.3-1.5.5-2.4.5z"/><path class="st1" d="M469.8 379.5c-3.9-.5-7-3.8-7-7.9 0-.7.1-1.3.3-2 1.1-1.1 2.6-1.9 4.4-1.9 3.4 0 6.1 2.7 6.1 6.1-.1 2.7-1.6 4.8-3.8 5.7z"/></g><g><path class="st8" d="M452.1 387.7c-3.4 0-6.1-2.7-6.1-6.1 0-1.6.7-3.1 1.7-4.2 1.1-1.1 2.6-1.9 4.4-1.9 3.4 0 6.1 2.7 6.1 6.1 0 2.5-1.5 4.7-3.7 5.6-.7.4-1.5.5-2.4.5z"/><path class="st9" d="M454.5 387.3c-3.9-.5-7-3.8-7-7.9 0-.7.1-1.3.3-2 1.1-1.1 2.6-1.9 4.4-1.9 3.4 0 6.1 2.7 6.1 6.1-.1 2.6-1.6 4.7-3.8 5.7z"/></g><g><path class="st26" d="M457.2 381c-3.4 0-6.1-2.7-6.1-6.1 0-1.6.7-3.1 1.7-4.2 1.1-1.1 2.6-1.9 4.4-1.9 3.4 0 6.1 2.7 6.1 6.1 0 2.5-1.5 4.7-3.7 5.6-.7.3-1.5.5-2.4.5z"/><path class="st21" d="M459.6 380.5c-3.9-.5-7-3.8-7-7.9 0-.7.1-1.3.3-2 1.1-1.1 2.6-1.9 4.4-1.9 3.4 0 6.1 2.7 6.1 6.1-.1 2.6-1.6 4.8-3.8 5.7z"/></g><g><path class="st28" d="M475.5 377.3c-3.4 0-6.1-2.7-6.1-6.1 0-1.6.7-3.1 1.7-4.2 1.1-1.1 2.6-1.9 4.4-1.9 3.4 0 6.1 2.7 6.1 6.1 0 2.5-1.5 4.7-3.7 5.6-.8.3-1.6.5-2.4.5z"/><path class="st22" d="M477.8 376.8c-3.9-.5-7-3.8-7-7.9 0-.7.1-1.3.3-2 1.1-1.1 2.6-1.9 4.4-1.9 3.4 0 6.1 2.7 6.1 6.1 0 2.6-1.6 4.8-3.8 5.7z"/></g><g><path class="st8" d="M447.5 377.3c-3.4 0-6.1-2.7-6.1-6.1 0-1.6.7-3.1 1.7-4.2 1.1-1.1 2.6-1.9 4.4-1.9 3.4 0 6.1 2.7 6.1 6.1 0 2.5-1.5 4.7-3.7 5.6-.7.3-1.5.5-2.4.5z"/><path class="st9" d="M449.9 376.8c-3.9-.5-7-3.8-7-7.9 0-.7.1-1.3.2-2 1.1-1.1 2.6-1.9 4.4-1.9 3.4 0 6.1 2.7 6.1 6.1 0 2.6-1.5 4.8-3.7 5.7z"/></g><g><path class="st28" d="M455.9 372.4c-3.4 0-6.1-2.7-6.1-6.1 0-1.6.7-3.1 1.7-4.2 1.1-1.1 2.6-1.9 4.4-1.9 3.4 0 6.1 2.7 6.1 6.1 0 2.5-1.5 4.7-3.7 5.6-.8.3-1.6.5-2.4.5z"/><path class="st22" d="M458.2 371.9c-3.9-.5-7-3.8-7-7.9 0-.7.1-1.3.2-2 1.1-1.1 2.6-1.9 4.4-1.9 3.4 0 6.1 2.7 6.1 6.1.1 2.6-1.5 4.8-3.7 5.7z"/></g><g><path class="st26" d="M465.8 373.4c-3.4 0-6.1-2.7-6.1-6.1 0-1.6.7-3.1 1.7-4.2 1.1-1.1 2.6-1.9 4.4-1.9 3.4 0 6.1 2.7 6.1 6.1 0 2.5-1.5 4.7-3.7 5.6-.8.4-1.6.5-2.4.5z"/><path class="st21" d="M468.2 373c-3.9-.5-7-3.8-7-7.9 0-.7.1-1.3.2-2 1.1-1.1 2.6-1.9 4.4-1.9 3.4 0 6.1 2.7 6.1 6.1 0 2.6-1.5 4.7-3.7 5.7z"/></g><g><path class="st29" d="M495.8 337.7v5.6c-.2 5.7-3 11.3-8.2 15-15.4 10.6-35.7 10.6-51 0-5.3-3.6-8-9.3-8.2-15v-5.6h67.4z"/><path class="st25" d="M436.5 323.1c15.4-10.6 35.7-10.6 51 0 5.5 3.8 8.3 9.8 8.3 15.8s-2.8 12-8.3 15.8c-15.4 10.6-35.7 10.6-51 0-5.5-3.8-8.3-9.8-8.3-15.8s2.8-12 8.3-15.8z"/><path class="st5" d="M441.8 323.3c12.2-8.4 28.2-8.4 40.4 0 4.4 3 6.5 7.7 6.5 12.5s-2.2 9.5-6.5 12.5c-12.2 8.4-28.2 8.4-40.4 0-4.4-3-6.5-7.7-6.5-12.5s2.1-9.5 6.5-12.5z"/><path class="st5" d="M430.7 348.3c1.4 2.4 3.3 4.6 5.8 6.3 7.7 5.3 16.6 8 25.5 8 4.6 0 9.3-.7 13.8-2.2.9-.3 1.9-.6 3-1 1.2-.5 2.3-1 3.3-1.5 0 0 3.7-2 5.5-3.3 5.5-3.8 8.3-9.8 8.3-15.8v-1.1c-1 4.9-3.8 9.5-8.4 12.7-8.1 5.6-17.6 8.4-27 8.4-9.5 0-18.9-2.8-27-8.4-1.1-.6-2-1.4-2.8-2.1z"/><path class="st29" d="M472.6 319.2v1.9c-.1 1.9-1 3.7-2.7 4.9-5.1 3.5-11.8 3.5-16.8 0-1.7-1.2-2.6-3-2.7-4.9v-1.9h22.2z"/><path class="st25" d="M453.1 314.4c5.1-3.5 11.8-3.5 16.8 0 1.8 1.3 2.7 3.2 2.7 5.2s-.9 3.9-2.7 5.2c-5.1 3.5-11.8 3.5-16.8 0-1.8-1.3-2.7-3.2-2.7-5.2-.1-2 .8-3.9 2.7-5.2z"/><path class="st5" d="M451.1 322.7c.5.8 1.1 1.5 1.9 2.1 2.5 1.8 5.5 2.6 8.4 2.6 1.5 0 3.1-.2 4.5-.7.3-.1.6-.2 1-.4s.8-.3 1.1-.5c0 0 1.2-.7 1.8-1.1 1.8-1.3 2.7-3.2 2.7-5.2v-.4c-.3 1.6-1.2 3.1-2.8 4.2-2.7 1.9-5.8 2.8-8.9 2.8s-6.2-.9-8.9-2.8c-.2-.1-.5-.3-.8-.6zM441.1 341.2c.9 1.6 2.2 3.1 3.9 4.3 5.2 3.6 11.3 5.4 17.3 5.4 3.2 0 6.3-.5 9.4-1.5.6-.2 1.3-.4 2-.7.8-.3 1.5-.7 2.2-1 0 0 2.5-1.4 3.8-2.2 3.8-2.6 5.6-6.6 5.6-10.7v-.7c-.6 3.3-2.5 6.5-5.7 8.6-5.5 3.8-11.9 5.7-18.3 5.7s-12.8-1.9-18.4-5.7l-1.8-1.5z"/><path class="st5" d="M458.6 315c3-2.1 7.1-2.1 10.1 0 1.1.8 1.6 1.9 1.6 3.1s-.5 2.4-1.6 3.1c-3 2.1-7.1 2.1-10.1 0-1.1-.8-1.6-1.9-1.6-3.1s.5-2.4 1.6-3.1z"/><path class="st5" d="M465.3 317c.2 0 3.7.8 4.9 4.1.9 2.4-1.2 5.2-1.4 5.7 1.3.2 3.8.7 5.5 1.6 1.2.7 5.5 2.7 7.6 7.2 3 6.4-.5 12.8-.9 13.5.8-.1 2.7-.1 4.1 1.1 2.2 1.8 2.7 5.8.6 9.3-1.3.8-2.8 1.6-4.5 2.4-1.4.7-2.7 1.2-4 1.6.2-.4 3.5-5.5 1.2-9.8-.4-.6-.9-1.5-2-2.3.5-1.9 1.5-6.5-.2-11.9-2.3-7.4-8-11-9.5-11.9.3-1.5.4-3.6 0-6.2-.3-1.8-.9-3.3-1.4-4.4z"/></g><path class="st5" d="M482.9 361.1c1.8 0 7.7.7 10.9 5.7 2 3.1 3.1 14.5.6 17.9-.7.9-1.5 1.8-1.5 1.8-.4.4-1.9 1.9-5.4 4.1-2 1.2-3.6 2-4 2.2-2.5 1.1-4.5 2-6.1 2.5-2.2.8-4.5-.8-4.5-3.2v-11.2c.2-13.9-2.3-15-2.7-15.5 1.8-.1 10.8-2.9 12.7-4.3z"/><path class="st29" d="M498.7 357.2c-1.1 16-1.1 16-3 20.2-1.6 3.6-4 5.8-5.1 6.9-6.5 6-21.1 12.3-37.6 9.7-11.2-1.8-19.4-6.9-24.2-10.6.7 1.1 1.6 2.2 2.5 3.2 1.4 1.4 2.6 2.3 3.3 2.8 6.8 4.7 14.2 6.6 14.2 6.6 3 .9 5.5 1.3 7.2 1.5 2.6.3 6.3.4 6.3.4s5.6-.1 10.9-1.2c4.5-1 7.8-2.5 9.8-3.4 0 0 3.6-1.7 6.9-3.9 1.3-.9 2.5-2 2.5-2 .5-.4 1-1 1.7-1.8 0 0 1.1-1.3 2-2.7 1.3-2.2 3-6 2.9-10.3-.2-8.6-.3-7-.3-15.4z"/></g><g id="Layer_16"><path class="st0" d="M212.5 140.8l162.8.4v8.6c0 1.2-.5 2.4-1.7 3.1l-77.3 37c-1.2.7-2.6.7-3.8 0L214.3 153c-1.3-.8-1.9-2.3-1.7-3.6h-.1v-8.6z"/><path class="st0" d="M293.9 183l296.3 89v8c0 1.1-.5 2.3-1.6 2.9l-71.7 44.5c-1.1.7-2.5.7-3.5 0L403 260l-107.4-65.6c-1.2-.8-1.7-2.1-1.6-3.4h-.1v-8z"/><path class="st0" d="M293.9 183L23.6 256.8v8c0 1.1.5 2.3 1.6 2.9l71.7 44.5c1.1.7 2.4.7 3.5 0l84.4-52.2 107.4-65.6c1.2-.8 1.7-2.1 1.6-3.4h.1v-8z"/><path class="st1" d="M367.2 135.1c1.1-.7 2.5-.7 3.5 0L481 202.5l107.4 65.6c2.1 1.3 2.2 4.4 0 5.7l-71.7 44.5c-1.1.7-2.5.7-3.5 0L403 251l-107.4-65.6c-2.1-1.3-2.1-4.4 0-5.7l71.6-44.6z"/><path class="st1" d="M220.6 135.1c-1.1-.7-2.4-.7-3.5 0l-110.3 67.4-81.5 50.4c-2.1 1.3-2.1 4.4 0 5.7L97 303.1c1.1.7 2.4.7 3.5 0l84.4-52.2 107.4-65.6c2.1-1.3 2.1-4.4 0-5.7l-71.7-44.5z"/><path class="st1" d="M291.6 89.1c1.2-.7 2.6-.7 3.8 0l78.2 48c2.3 1.4 2.3 4.8 0 6.2l-77.3 41c-1.2.7-2.6.7-3.8 0l-78.2-40.9c-2.3-1.4-2.3-4.8 0-6.2l77.3-48.1z"/></g><g id="Layer_12"><path class="st7" d="M360.9 129.4c-4.8-2.9-17.1-10.4-21.9-13.4-1.9-1.1-11.1-6.8-13-7.9-3.4.5-27.3 7.1-27.6 17.7-.4 12.7 12.4 22.1 13.7 23 9.3 6 20 5.1 22.4 4.9 1.7-.1 3-.2 4.8-.7 12.5-3.2 18.5-16.1 19.7-18.8 1-2.1 1.5-3.8 1.9-4.8z"/><path class="st21" d="M312.2 72.8c0-5.7 3-10.6 7.5-13.4V27.3H336v32.1c4.5 2.8 7.5 7.7 7.5 13.4v55.9c0 2.8-1.3 5.6-3.8 7.3-7.1 4.9-16.6 4.9-23.7 0-2.6-1.8-3.8-4.5-3.8-7.3V72.8z"/><path class="st5" d="M312.2 128.3c0 1.4.3 2.8 1 4 .6 1.3 1.6 2.4 2.9 3.3 3.6 2.5 7.7 3.7 11.9 3.7s8.3-1.2 11.9-3.7c2.6-1.8 3.8-4.5 3.8-7.3V89.5c-1.1 9.8-28.8 23.7-31.4 12.9l-.1 25.9z"/><path class="st5" d="M330.6 31.2h2.4v30.6c.7.3 5.3 3.8 5.2 9.3V137c-.7.4-1.5.8-2.3 1.1-1.2.5-2.4.8-3.3 1.1V71c-.1-6.4-1.5-7.2-2-8.4V31.2z"/><path class="st16" d="M337 22.1v6.6c-.1 1.5-.8 3-2.2 4-4.1 2.8-9.6 2.8-13.7 0-1.4-1-2.1-2.5-2.2-4v-6.6H337z"/><path class="st17" d="M321 17.9c4.1-2.8 9.6-2.8 13.7 0 1.5 1 2.2 2.6 2.2 4.2s-.7 3.2-2.2 4.2c-4.1 2.8-9.6 2.8-13.7 0-1.5-1-2.2-2.6-2.2-4.2s.7-3.2 2.2-4.2z"/><path class="st26" d="M343.5 121.9c-.5 7-.5 7-1.3 8.9-.7 1.6-1.7 2.5-2.2 3-2.8 2.6-9.1 5.4-16.2 4.2-4.8-.8-8.3-3-10.4-4.7.6 1 1.5 1.9 2.5 2.6 3.6 2.5 7.7 3.7 11.9 3.7s8.3-1.2 11.9-3.7c1.6-1.1 2.3-2.2 2.6-2.8 1-1.8 1.2-3.6 1.2-4.6.1-3.6 0-2.9 0-6.6z"/><path class="st5" d="M320.5 25.4c2.1 1.4 4.5 2.1 6.9 2.1s4.8-.7 6.9-2.1c1.5-1 2.2-2.6 2.2-4.2 0-.7-.2-1.5-.5-2.2.2.2.3.5.5.8.4.7.6 1.5.6 2.3 0 1.6-.7 3.2-2.2 4.2-.1.1-.3.2-.3.2v6.4c-.3.2-.6.4-1 .6-.5.3-1 .4-1.4.6v-6.4s-2 .7-4.1.7c-2.4 0-4.8-.7-6.9-2.1-.7-.5-1.3-1.2-1.7-1.9 0-.1-.1-.1-.1-.2.2.5.6.9 1.1 1.2z"/></g><g id="Layer_11"><path class="st7" d="M361 172.9c8.6-2.4 20.6-5.6 25.2-14.7 1.1-2.1 2.5-6.2 1.5-12.5-6.1-3.6-12.2-7.3-18.3-11-3.6-.3-10.2-.3-17.5 2.8-7.3 3.1-11.7 7.7-12.9 9.1-3.2 3.6-8.4 9.3-7.4 14.9 1.2 6.8 11.3 12.5 25 12.4 1-.2 2.5-.5 4.4-1z"/><path class="st8" d="M341.5 69.1c0-6.7 3.6-12.6 8.9-15.9V27.6h19.4v25.6c5.4 3.3 8.9 9.2 8.9 15.9v85.4c0 3.3-1.5 6.6-4.6 8.7-8.5 5.9-19.7 5.9-28.2 0-3-2.1-4.6-5.4-4.6-8.7l.2-85.4z"/><path class="st5" d="M341.5 154c0 1.6.4 3.3 1.1 4.8s1.9 2.9 3.4 3.9c4.2 2.9 9.2 4.4 14.1 4.4s9.9-1.5 14.1-4.4c3-2.1 4.6-5.4 4.6-8.7v-46.1c-1.3 11.6-34.3 28.2-37.3 15.3V154z"/><path class="st5" d="M363.4 32.2h2.9V56c.8.3 6.3 4.5 6.2 11v97.3c-.8.5-1.7.9-2.8 1.4-1.5.6-2.8 1-4 1.3V67c-.2-7.6-1.8-8.5-2.4-10V32.2z"/><path class="st9" d="M371 21.4v7.8c-.1 1.8-.9 3.6-2.6 4.8-4.9 3.4-11.4 3.4-16.3 0-1.7-1.2-2.5-3-2.6-4.8v-7.8H371z"/><path d="M352 16.4c4.9-3.4 11.4-3.4 16.3 0 1.8 1.2 2.6 3.1 2.6 5s-.9 3.8-2.6 5c-4.9 3.4-11.4 3.4-16.3 0-1.8-1.2-2.6-3.1-2.6-5s.9-3.8 2.6-5z" fill="#2cb3af"/><path class="st11" d="M367.7 5.3l-.9 14.3c0 1.3-.7 2.5-1.8 3.3-3.4 2.4-6.2 2.4-9.6 0-1.2-.8-1.8-2.1-1.8-3.3l-.9-14.3h15z"/><path class="st12" d="M354.5 1.8c3.4-2.4 8-2.4 11.4 0 1.2.8 1.9 2.2 1.9 3.5s-.6 2.7-1.9 3.5c-3.4 2.4-8 2.4-11.4 0-1.2-.8-1.9-2.2-1.9-3.5s.6-2.7 1.9-3.5z"/><path class="st8" d="M378.8 146.4c-.6 8.4-.6 8.4-1.5 10.5-.8 1.9-2 3-2.6 3.6-3.3 3.1-10.8 6.4-19.2 5-5.7-.9-9.9-3.6-12.4-5.6.7 1.2 1.7 2.3 3 3.1 4.3 3 9.2 4.4 14.1 4.4s9.9-1.5 14.1-4.4c1.9-1.3 2.7-2.6 3.1-3.4 1.3-2.1 1.4-4.3 1.5-5.4-.1-4.2-.1-3.4-.1-7.8z"/><path class="st5" d="M351.4 25.4c2.5 1.7 5.3 2.5 8.1 2.5 2.9 0 5.7-.9 8.1-2.5 1.8-1.2 2.6-3.1 2.6-5 0-.9-.2-1.8-.6-2.6l.6.9c.4.9.7 1.8.7 2.8 0 1.9-.9 3.8-2.6 5-.2.1-.4.3-.4.3v7.6c-.3.3-.7.5-1.2.8-.6.3-1.2.5-1.7.7v-7.6s-2.3.9-4.9.9c-2.9 0-5.7-.9-8.1-2.5-.9-.6-1.5-1.4-2-2.3 0-.1-.1-.1-.1-.2.4.3.9.8 1.5 1.2z"/><path class="st12" d="M367.2 12.9l-.4 6.6c-.1 1.3-.7 2.5-1.8 3.3-3.4 2.4-6.2 2.4-9.6 0-1.2-.8-1.8-2.1-1.8-3.3l-.1-1.8c4.5 6.6 13.1 1 13.7-4.8z"/></g><g id="Layer_10"><path class="st7" d="M356.5 173.9c-5.4 11.8-2.8 18.6-1.9 20.5 8 17.3 43.7 10.8 47.1 10.1 4.2-1 7.4-3.1 7.4-3.1 1.6-1 2.6-1.9 3.1-2.4 10.9-9.8 15.9-12.1 18.7-19.2.6-1.5 1.3-3.7 1.6-6.7-13-7.9-26-15.9-39-23.8-4.6.9-11.4 2.8-18.5 7.1-9.7 5.8-15.5 13.1-18.5 17.5z"/><path class="st21" d="M364.5 113.3c0-4.7 3.8-8.4 8.4-8.4h41.7c4.7 0 8.4 3.8 8.4 8.4v63.5c0 5.1-2.4 10.3-7.2 13.5-13.3 9.2-30.9 9.2-44.2 0-4.7-3.3-7.1-8.4-7.2-13.5v-63.5z"/><path class="st1" d="M364.5 133.6c.2 5 2.6 9.9 7.2 13.1 13.4 9.2 31 9.2 44.3 0 4.6-3.2 7-8.1 7.2-13.1h.1V156h-.1c0 5.2-2.4 10.4-7.2 13.7-13.4 9.2-31 9.2-44.3 0-4.8-3.3-7.2-8.5-7.2-13.7h-.1v-22.4h.1z"/><path class="st1" d="M393.8 185.7c8.7 0 15.8-7.1 15.8-15.8V152c0-8.7-7-15.8-15.8-15.8-8.7 0-15.8 7.1-15.8 15.8v18c.1 8.7 7.1 15.7 15.8 15.7z"/><g class="st24"><path class="st3" d="M409 115.7c1 .4 7.7 5.8 7.5 13.7v60.2c-1 .6-2.1 1.1-3.4 1.6-1.8.7-3.4 1.3-4.8 1.6v-55.5c0-5.9-.7-11.9-2.1-17.7-.3-1.3-.6-2.3-.8-2.7 1.2-.2 3-.9 3.6-1.2z"/></g><path class="st16" d="M420.8 97v7.4c-.2 4.6-2.4 9-6.6 11.9-12.3 8.5-28.5 8.5-40.8 0-4.2-2.9-6.4-7.4-6.6-11.9V97h54z"/><path class="st17" d="M373.5 84.2c12.3-8.5 28.5-8.5 40.8 0 4.4 3 6.6 7.8 6.6 12.6s-2.2 9.5-6.6 12.6c-12.3 8.5-28.5 8.5-40.8 0-4.4-3-6.6-7.8-6.6-12.6s2.1-9.6 6.6-12.6z"/><path class="st26" d="M423 164.8c-.9 12.8-.9 12.8-2.4 16.1-1.3 2.9-3.1 4.6-4.1 5.5-5.2 4.8-16.9 9.8-30 7.7-9-1.4-15.5-5.5-19.3-8.5 1.1 1.8 2.7 3.5 4.6 4.8 6.6 4.5 14.4 6.8 22.1 6.8 7.7 0 15.4-2.3 22.1-6.8 2.9-2 4.2-4 4.9-5.2 2-3.3 2.3-6.6 2.3-8.3-.1-6.6-.1-5.4-.2-12.1z"/><path class="st12" d="M393.8 145.9c1.5 0 3 .6 4.2 1.8 1.3 1.4 2.2 3.3 2.9 5.2.4 1 .8 2.2 1.6 4.5 1 3.2 1.6 4.9 1.7 5.7.3 1.8.7 4.1-.1 6.8-.3.9-1 3.4-3.5 5.5-2.5 2.2-5.3 2.2-6.5 2.2h-.3"/><path class="st16" d="M400.2 167.3c0-3.5-2.9-6.4-6.4-6.4s-6.4 2.9-6.4 6.4c0 3.5 2.9 6.4 6.4 6.4 3.5.1 6.4-2.8 6.4-6.4z"/><path class="st5" d="M368.8 104.3c1.1 1.9 2.6 3.7 4.6 5.1 6.1 4.2 13.3 6.3 20.4 6.3 3.7 0 7.4-.6 11-1.7v7c1.7-.5 3.3-1.2 5-2v-7s3-1.6 4.4-2.6c4.4-3 6.6-7.8 6.6-12.6v-.9c-.8 3.9-3 7.6-6.7 10.2-6.5 4.5-14 6.7-21.6 6.7-7.5 0-15.1-2.2-21.6-6.7l-2.1-1.8z"/></g><g id="Layer_9"><path class="st7" d="M480.7 202.4c-13.6-8.2-26.4-16.1-43-26-4.5 1.8-11.2 5.1-17.8 11.3-5.3 4.9-8.7 10-10.8 13.8-.8 1.1-6.1 8.6-3.7 18.2 1.9 7.6 8 13.7 15.8 15.8 0 0 1.2.4 2.3.8 25.7 8.8 43.4-6.4 43.4-6.4.9-.8 1.5-1.4 1.9-1.9 8.3-8.7 11-18.9 11.9-25.6"/><path class="st12" d="M419.1 133c0-4.5 3.7-8.2 8.2-8.2h29.4c4.5 0 8.2 3.7 8.2 8.2l5.6 36.3v30c0 3.5-.8 6.9-2.3 10.1-2.1 4.3-9.6 12.3-10.2 12.6-9.6 6.6-22.4 6.6-32 0-.5-.4-8.1-8.4-10.2-12.6-1.5-3.1-2.3-6.6-2.3-10.1v-30l5.6-36.3z"/><path class="st1" d="M413.5 170.1c.2 4.9 2.5 9.6 7 12.7 13 9 30.2 9 43.2 0 4.5-3.1 6.8-7.9 7-12.7h.1v29.5h-.1c0 5.1-2.3 10.1-7 13.3-13 9-30.2 9-43.2 0-4.7-3.2-7-8.3-7-13.3h-.1l.1-29.5z"/><path class="st5" d="M450.5 134.6c1.8 1.1 3 4.2 3 7.8l2.1 46.6s-.5 33.8-.5 34.2c2.1-1.2 4.4-2.1 4.9-4.3.8-3.1.9-6.3.9-9.8v-26.6l-3.1-39.7c0-4.5-2-8.2-4.5-8.2h-2.8z"/><path class="st11" d="M424.7 220.6c.7.8 1.2 1.3 1.3 1.4 9.1 6.4 22.7 6.8 32 0 4.7-3.4 8.5-9.9 10.2-12.7-.9.9-4.5 5.4-6.2 7-3.7 3.5-6.1 4.3-6.5 4.6-4.4 3.4-22.4 4.6-30.8-.3z"/><path class="st32" d="M466.9 120.3v6.8c-.2 4.2-2.2 8.3-6 11-11.3 7.8-26.2 7.8-37.5 0-3.9-2.7-5.9-6.8-6-11v-6.8h49.5z"/><path class="st8" d="M423.3 108.5c11.3-7.8 26.2-7.8 37.5 0 4.1 2.8 6.1 7.2 6.1 11.6s-2 8.8-6.1 11.6c-11.3 7.8-26.2 7.8-37.5 0-4.1-2.8-6.1-7.2-6.1-11.6s2-8.8 6.1-11.6z"/><path class="st5" d="M419 127c1 1.8 2.4 3.4 4.3 4.7 5.6 3.9 12.2 5.8 18.8 5.8 3.4 0 6.8-.5 10.1-1.6v6.4c1.5-.5 3.1-1.1 4.6-1.9V134s2.7-1.5 4.1-2.4c4.1-2.8 6.1-7.2 6.1-11.6v-.8c-.7 3.6-2.8 7-6.1 9.4-6 4.1-12.9 6.2-19.9 6.2-7 0-13.9-2.1-19.9-6.2-.8-.5-1.5-1-2.1-1.6z"/><g><circle class="st27" cx="433.3" cy="203.3" r="1.4"/><circle class="st3" cx="438.5" cy="200.1" r="1.4"/><circle class="st11" cx="440.2" cy="205.1" r="1.4"/><circle class="st3" cx="444.5" cy="203.5" r="1.4"/><circle class="st12" cx="439.2" cy="210.3" r="1.4"/><circle class="st3" cx="431.1" cy="209.2" r="1.4"/><circle class="st27" cx="447" cy="207.9" r="1.4"/><circle class="st12" cx="451.9" cy="203.9" r="1.4"/><circle class="st3" cx="452.4" cy="209.7" r="1.4"/><circle class="st11" cx="446.8" cy="213" r="1.4"/><circle class="st3" cx="430" cy="195.6" r="1.4"/><circle class="st11" cx="444.7" cy="198" r="1.4"/><circle class="st27" cx="452.5" cy="196.8" r="1.4"/></g></g><g id="Layer_8"><path class="st7" d="M461.9 231.3c-1.3 4.6-4.4 15.7.5 25.5 13.1 26.6 70.2 20.1 78.7 10.8 1.2-1.3 10.9-13.7 7.9-21.3-.9-2.3-2.6-3.6-3.6-4.3-7.1-5.1-30.5-19.6-62.2-38.4-3.2 2-16.6 10.5-21.3 27.7z"/><path class="st25" d="M469.9 228.2c0-9.1 7.4-16.5 16.5-16.5h40.3c9.1 0 16.5 7.4 16.5 16.5v16.6c0 6.4-3 12.8-9 16.9-16.7 11.5-38.7 11.5-55.3 0-5.9-4.1-8.9-10.5-9-16.9v-16.6z"/><defs><path id="SVGID_5_" d="M469.9 228.2c0-9.1 7.4-16.5 16.5-16.5h40.3c9.1 0 16.5 7.4 16.5 16.5v16.6c0 6.4-3 12.8-9 16.9-16.7 11.5-38.7 11.5-55.3 0-5.9-4.1-8.9-10.5-9-16.9v-16.6z"/></defs><clipPath id="SVGID_6_"><use xlink:href="#SVGID_5_" overflow="visible"/></clipPath><path d="M469.7 223.7c.2 6.2 3.3 12.4 9.1 16.4 16.7 11.5 38.8 11.5 55.5 0 5.8-4 8.8-10.1 9.1-16.4v13c0 6.5-3.1 13-9.1 17.1-16.7 11.5-38.8 11.5-55.5 0-6-4.1-9.1-10.6-9.1-17.1v-13z" clip-path="url(#SVGID_6_)" fill="#412660"/><path class="st5" d="M524.5 228.9c.9.4 7.3 3.5 7.1 11.6v20.9c-.9.6-2 1.1-3.2 1.6-1.7.8-3.2 1.3-4.6 1.7v-16c0-6.1-.7-9.8-2-15.7-.3-1.3-.5-2.3-.7-2.8 1.1-.3 2.9-.9 3.4-1.3z"/><path class="st29" d="M543.2 229.7c-1.1 16-1.1 16-3 20.2-1.6 3.6-4 5.8-5.1 6.9-6.5 6-21.1 12.3-37.6 9.7-11.2-1.8-19.4-6.9-24.2-10.6 1.4 2.3 3.4 4.3 5.8 6 8.3 5.7 18 8.5 27.6 8.5 9.7 0 19.3-2.8 27.7-8.5 3.7-2.5 5.3-5 6.1-6.5 2.5-4.1 2.8-8.2 2.8-10.4 0-8.5-.1-6.9-.1-15.3z"/><path class="st22" d="M540.4 210.2v5.6c-.2 5.7-3 11.3-8.2 15-15.4 10.6-35.7 10.6-51 0-5.3-3.6-8-9.3-8.2-15v-5.6h67.4z"/><path class="st34" d="M481.1 195.6c15.4-10.6 35.7-10.6 51 0 5.5 3.8 8.3 9.8 8.3 15.8s-2.8 11.9-8.3 15.8c-15.4 10.6-35.7 10.6-51 0-5.5-3.8-8.3-9.8-8.3-15.8s2.8-12 8.3-15.8z"/><path class="st5" d="M475.3 220.8c1.4 2.4 3.3 4.6 5.8 6.3 7.7 5.3 16.6 7.9 25.5 7.9 4.6 0 9.3-.7 13.8-2.2l.1 3.7c2.1-.7 4.2-1.5 6.2-2.5l-.1-3.7s3.7-2 5.5-3.3c5.5-3.8 8.3-9.8 8.3-15.8v-1.1c-1 4.9-3.8 9.5-8.4 12.7-8.1 5.6-17.6 8.4-27 8.4-9.5 0-18.9-2.8-27-8.4-1-.5-1.9-1.2-2.7-2z"/><path class="st16" d="M506.6 268c-5.8 0-10.6-4.8-10.6-10.6v-3.8c0-5.8 4.8-10.6 10.6-10.6s10.6 4.8 10.6 10.6v3.8c0 5.9-4.8 10.6-10.6 10.6z"/><path class="st3" d="M508.2 262.3c-.2.1-.4.2-.7.2-.5 0-1-.3-1.2-.7-.3-.6-.6-1.3-.8-2-.2-.7-.3-1.5-.3-2.3 0-.6.1-1.3.3-1.9.2-.7.9-1.2 1.7-1s1.2.9 1 1.7c-.1.4-.2.8-.2 1.3 0 .7.1 1.5.4 2.2.1.3.2.5.3.7.4.6.1 1.4-.5 1.8z"/><path class="st12" d="M513 255.1c0 .1 0 .2-.1.4 0 0 0 .1-.1.1s0 .1-.1.1c-.3.4-.6.7-1 1-1 .7-2.2 1.2-3.4 1.5-.6.1-1.2.2-1.8.2-.4 0-.7 0-1.1-.1-1.4-.2-2.9-.7-4.1-1.6-.4-.3-.8-.6-1-1-.1-.1-.1-.1-.1-.2s-.1-.2-.1-.4c0-1.8.7-3.4 1.9-4.6 1.1-1.1 2.5-1.8 4.1-1.9h.8c3.5.3 6.1 3.1 6.1 6.5z"/></g><g id="Layer_13"><path class="st7" d="M236.9 196.6c6.1 2.3 12.1 4.7 18.2 7 13.5-10.4 27-20.7 40.5-31.1-30.4-13.1-51.1-22.1-82.8-34-10.5 6.3-20.9 12.6-31.4 18.8l55.5 39.3z"/><path fill="#56c2bf" d="M255.5 100.8l-66.9-41.7 30.8-18.6 66.8 41z"/><path class="st36" d="M255.5 195.3l-66.9-41.7 66.9-47.9 30.7 70.3z"/><path class="st32" d="M255.5 195.2l-66.9-41.6V59.1l66.9 41.6z"/><path class="st8" d="M255.5 195.3l30.7-19.3V81.5l-30.7 19.3z"/><path class="st5" d="M265.8 137.7l12.2-7.6c.5-.4.9-1 .9-1.6V98.9c0-1.5-1.6-2.4-2.9-1.6l-12.2 7.6c-.5.3-.9 1-.9 1.6v29.6c0 1.5 1.6 2.4 2.9 1.6zM255.5 195.3l30.7-19.3v-64.5z"/><path class="st5" d="M266.5 180.7l13.8-8.6c1.3-.8 2.1-2.2 2.1-3.8v-19.1c0-3.5-3.8-5.6-6.8-3.8l-13.8 8.6c-1.3.8-2.1 2.2-2.1 3.8V177c0 3.5 3.8 5.6 6.8 3.7z"/><g><g class="st31"><path class="st3" d="M264 148.2l.6.1c-.1.4-.2.8-.5 1-.3.2-.6.4-1 .4-.5 0-.9-.2-1.2-.5-.3-.3-.5-.8-.5-1.4 0-.4.1-.7.2-1s.3-.5.6-.7.6-.2.9-.2c.4 0 .7.1 1 .3s.4.5.5.9l-.6.1-.3-.6c-.1-.1-.3-.2-.5-.2-.3 0-.6.1-.8.3-.2.2-.3.6-.3 1.1 0 .5.1.9.3 1.1.2.2.4.3.7.3.2 0 .5-.1.6-.2.1-.2.2-.5.3-.8z"/></g><g class="st31"><path class="st3" d="M267.6 146.1l.6.1c-.1.4-.3.7-.6.9s-.6.3-1.1.3c-.5 0-1-.2-1.3-.5-.3-.3-.5-.8-.5-1.4 0-.6.2-1.1.5-1.4s.7-.5 1.2-.5.9.2 1.2.5.5.8.5 1.4v.2h-2.8c0 .4.1.7.3.9.2.2.5.3.8.3.2 0 .4-.1.6-.2.4-.1.5-.3.6-.6zm-2.1-1h2.1c0-.3-.1-.5-.2-.7-.2-.2-.5-.4-.8-.4-.3 0-.5.1-.7.3s-.3.5-.4.8z"/></g><g class="st31"><path class="st3" d="M268.4 145.2v-3.7h.6v.6c.1-.3.3-.4.4-.5.1-.1.3-.1.4-.1.2 0 .4.1.6.2l-.2.6c-.2-.1-.3-.1-.5-.1-.1 0-.3 0-.4.1-.1.1-.2.2-.2.3-.1.2-.1.5-.1.7v1.9h-.6z"/></g><g class="st31"><path class="st3" d="M274.5 141.8l.6.1c-.1.4-.3.7-.6.9s-.6.3-1.1.3c-.5 0-1-.2-1.3-.5-.3-.3-.5-.8-.5-1.4 0-.6.2-1.1.5-1.4s.7-.5 1.2-.5.9.2 1.2.5.5.8.5 1.4v.2h-2.8c0 .4.1.7.3.9.2.2.5.3.8.3.2 0 .4-.1.6-.2.4-.1.5-.3.6-.6zm-2.1-1h2.1c0-.3-.1-.5-.2-.7-.2-.2-.5-.4-.8-.4-.3 0-.5.1-.7.3s-.3.5-.4.8z"/></g><g class="st31"><path class="st3" d="M277.8 140.4c-.2.2-.5.3-.7.4-.2.1-.4.1-.7.1-.4 0-.7-.1-.9-.3-.2-.2-.3-.5-.3-.8 0-.2 0-.3.1-.5.1-.1.2-.3.3-.4.1-.1.3-.2.5-.2.1 0 .3-.1.6-.1.5-.1.9-.1 1.1-.2v-.2c0-.3-.1-.4-.2-.5-.2-.1-.4-.2-.7-.2-.3 0-.5.1-.7.2-.1.1-.2.3-.3.5l-.6-.1c.1-.3.1-.5.3-.6.1-.2.3-.3.6-.4.2-.1.5-.1.8-.1.3 0 .6 0 .8.1.2.1.3.2.4.3.1.1.2.3.2.4v2.5c0 .2.1.3.2.4h-.7c-.1 0-.1-.1-.1-.3zm-.1-1.4c-.2.1-.6.2-1 .2-.3 0-.4.1-.5.1-.1 0-.2.1-.2.2-.1.1-.1.2-.1.3 0 .2.1.3.2.4.1.1.3.2.6.2.2 0 .5-.1.6-.2.2-.1.3-.3.4-.4.1-.1.1-.3.1-.6v-.2z"/></g><g class="st31"><path class="st3" d="M279 139v-5.1h.6v5.1h-.6z"/></g></g></g><g id="Layer_14"><path class="st7" d="M188.9 215.9c3.1 1.3 6.3 2.6 9.4 3.8l38.4-23.1-55.5-39.3c-18.1 11-36.3 22-54.4 32.9 20.7 8.7 41.3 17.2 62.1 25.7z"/><path class="st12" d="M196.6 113.3l-46.1-29 30.7-18.5L227.3 94z"/><path class="st36" d="M196.6 207.8l-46.1-28.9 46.1-60.7 30.7 70.3z"/><path class="st29" d="M196.6 207.8l-46.1-29V84.3l46.1 28.9z"/><path class="st25" d="M196.6 207.8l30.7-19.3V94l-30.7 19.3z"/><path class="st5" d="M196.6 119.8l30.7-19.3V94l-30.7 19.3zM208.1 187.9l13.8-8.6c1.3-.8 2.1-2.2 2.1-3.8v-59.1c0-3.5-3.8-5.6-6.8-3.8l-13.8 8.6c-1.3.8-2.1 2.2-2.1 3.8v59.1c0 3.5 3.9 5.6 6.8 3.8z"/><path class="st5" d="M196.6 207.8l30.7-19.2v-54.5z"/></g><g id="Layer_15"><path class="st7" d="M127 190.3c-17.3 10.6-34.5 21.1-51.8 31.7 18.9 12.8 37.9 25.5 56.8 38.3l57-44.4c-20.7-8.6-41.4-17.1-62-25.6z"/><path fill="#3c2358" d="M133.4 171L87 141.8l23.2-8.1z"/><path class="st36" d="M133.4 245.5L87 216.4l46.4-40.5 46.4 40.5z"/><path class="st28" d="M133.4 245.5L87 216.3v-74.5l46.4 29.1z"/><path class="st22" d="M133.4 245.5l46.4-29.1v-74.6L133.4 171z"/><path class="st27" d="M133.4 234.6L87 205.4v-51.1l46.4 29.2z"/><path class="st1" d="M133.4 234.6l46.4-29.2v-51.1l-46.4 29.2z"/><path class="st5" d="M133.4 245.5l46.4-29.2v-54.5z"/><path class="st34" d="M156.6 104.6l23.2 37.2-46.4 29.2-23.2-37.3"/><path class="st28" d="M156.6 104.6c-7.7 2.7-15.5 5.4-23.2 8.1-7.7 4.8-15.4 9.7-23.1 14.5L87 141.8l23.2-8.1c15.5-9.7 30.9-19.4 46.4-29.1z"/><ellipse transform="rotate(-32.794 142.746 134.678)" class="st29" cx="142.7" cy="134.7" rx="8.5" ry="9.6"/><path transform="rotate(-32.794 143.965 133.898)" class="st29" d="M142.5 124.3h2.9v19.1h-2.9z"/><ellipse transform="rotate(-32.794 145.196 133.098)" class="st25" cx="145.2" cy="133.1" rx="8.5" ry="9.6"/></g></svg>