<svg version="1.1" xmlns="http://www.w3.org/2000/svg" xmlns:xlink="http://www.w3.org/1999/xlink" x="0px" y="0px" viewBox="0 0 231.4 377.5" style="enable-background:new 0 0 231.4 377.5;" xml:space="preserve"><g id="Rocket"><path id="Path_1776" style="fill:#D8E2FF" d="M35.1,268.5c-2.6,3-8.6,10-7.4,18c1.4,9.4,11.6,12.3,10.6,17.4c-1.4,7.2-22.8,2.7-32.9,14.9&#10;&#9;&#9;c-6.8,8.3-6.4,21.6-2.5,30.4c10.3,23.4,48.5,24.2,53.4,24.2c23.7,0.2,25.5-10,50.9-9.9c3.3,0,18.6,3.1,49,9.3&#10;&#9;&#9;c16.7,3.4,27.7,5.7,42.8,4.3c11.6-1,19.6-1.9,25.4-8.1c9-9.6,8.9-27.8,1.9-39.7c-8-13.5-22.9-15.3-22.3-23.6&#10;&#9;&#9;c0.4-6.4,9.6-8.1,9.9-14.9c0.4-7.3-10-13.4-13.7-15.5C166.1,255.8,60.2,239.3,35.1,268.5z"/><g id="Group_3532" transform="translate(1363.615 4056)"><path id="Path_1838" style="fill:#D8423F" d="M-1301-3843.4L-1301-3843.4c-5.4,5.1-9.8,11.1-13.1,17.7c-2.8,5.9-4.6,12.1-5.5,18.5&#10;&#9;&#9;&#9;c-3.2,20-0.4,40.3,1.6,51.1l21.1-34.7c0.1-16.7,0.2-33.4,0.3-50.1C-1301-3843.4-1296.6-3840.9-1301-3843.4z"/><path id="Path_1839" style="fill:#FF7769" d="M-1194.3-3843.4L-1194.3-3843.4c5.4,5.1,9.8,11.1,13.1,17.7c2.8,5.9,4.6,12.1,5.5,18.5&#10;&#9;&#9;&#9;c3.2,20,0.4,40.3-1.6,51.1l-21.1-34.7c-0.1-16.7-0.2-33.4-0.3-50.1C-1194.3-3843.4-1198.8-3840.9-1194.3-3843.4z"/><path id="Path_1840" style="fill:#EDEBEB" d="M-1188.3-3901.2c-0.2-24.1-3.8-48-10.6-71.2c-0.8-2.7-12.6-32.6-18.4-44.3&#10;&#9;&#9;&#9;c-8.4-16.8-24.6-36.5-24.6-36.5c-1.9-2.3-4-3-5.9-2.8c-1.9-0.2-4,0.5-5.9,2.8c0,0-16.2,19.7-24.6,36.5&#10;&#9;&#9;&#9;c-5.8,11.7-17.6,41.5-18.4,44.3c-6.8,23.1-10.3,47.1-10.6,71.2h0v132h118.9L-1188.3-3901.2L-1188.3-3901.2z"/><path id="Path_1842" style="fill:#623F93" d="M-1188.3-3769.2v-66.9c0,0,0-0.1,0-0.1h-119c0,0,0,0.1,0,0.1v66.9l0,0&#10;&#9;&#9;&#9;c0,11.1,5.4,21.5,14.6,27.7l0,0c27,18.6,62.8,18.6,89.8,0C-1193.7-3747.7-1188.2-3758.1-1188.3-3769.2L-1188.3-3769.2z"/><path id="Path_1843" style="fill:#EDEBEB" d="M-1307.2-3837.1c0,11.1,5.4,21.5,14.6,27.7l0,0c27,18.6,62.8,18.6,89.8,0&#10;&#9;&#9;&#9;c9.1-6.3,14.6-16.6,14.6-27.7"/><g id="Group_3529" transform="translate(11.295 135.757)"><path id="Path_1844" style="fill:#412660" d="M-1304.3-4016.8L-1304.3-4016.8c-10.7-10.2-15.6-23.6-12.3-33.8c1.2-3.6,4.5-5.5,8.4-5.5&#10;&#9;&#9;&#9;&#9;c4.7,0.2,9.1,2.2,12.4,5.5c10.7,10.2,15.6,23.6,12.3,33.8l0,0c-1.2,3.6-4.5,5.5-8.4,5.5&#10;&#9;&#9;&#9;&#9;C-1296.5-4011.5-1301-4013.4-1304.3-4016.8z"/><path id="Path_1845" style="fill:#412660" d="M-1290.4-4010.4l3.7-2.2l-25.7-42.5l-3.5,2.1L-1290.4-4010.4z"/><path id="Path_1846" style="fill:#FF7769" d="M-1307.7-4014.7L-1307.7-4014.7c-10.7-10.2-15.6-23.6-12.3-33.8c1.2-3.6,4.5-5.5,8.4-5.5&#10;&#9;&#9;&#9;&#9;c4.7,0.2,9.1,2.2,12.4,5.5c10.7,10.2,15.6,23.6,12.3,33.8l0,0c-1.2,3.7-4.5,5.5-8.4,5.5&#10;&#9;&#9;&#9;&#9;C-1300-4009.4-1304.4-4011.4-1307.7-4014.7z"/><path id="Path_1847" style="fill:#AEEAF4" d="M-1306.4-4019.1L-1306.4-4019.1c-7.6-7.2-11.1-16.8-8.7-24c0.8-2.6,3.2-3.9,6-3.9&#10;&#9;&#9;&#9;&#9;c3.3,0.1,6.5,1.5,8.8,3.9c7.6,7.2,11.1,16.8,8.7,24l0,0c-0.8,2.6-3.2,3.9-6,3.9C-1301-4015.3-1304.1-4016.7-1306.4-4019.1z"/><path id="Path_1848" style="fill:#FF7769" d="M-1306.4-4019.1c2.3,2.4,5.5,3.7,8.8,3.9c1.3,0,2.6-0.3,3.7-1c0.3-0.2,0.6-0.4,0.9-0.7&#10;&#9;&#9;&#9;&#9;c-1,0.4-2,0.6-3,0.6c-3.3-0.1-6.5-1.5-8.8-3.9c-7.6-7.2-11.1-16.8-8.7-24c0.3-0.8,0.7-1.6,1.4-2.2c-1.4,0.6-2.5,1.8-2.9,3.3&#10;&#9;&#9;&#9;&#9;C-1317.5-4035.8-1314.1-4026.3-1306.4-4019.1z"/><path id="Path_1849" style="opacity:0.6;fill:#FFFFFF;enable-background:new;" d="M-1306.4-4019.1c2.3,2.4,5.5,3.7,8.8,3.9c1.3,0,2.6-0.3,3.7-1c0.3-0.2,0.6-0.4,0.9-0.7&#10;&#9;&#9;&#9;&#9;c-1,0.4-2,0.6-3,0.6c-3.3-0.1-6.5-1.5-8.8-3.9c-7.6-7.2-11.1-16.8-8.7-24c0.3-0.8,0.7-1.6,1.4-2.2c-1.4,0.6-2.5,1.8-2.9,3.3&#10;&#9;&#9;&#9;&#9;C-1317.5-4035.8-1314.1-4026.3-1306.4-4019.1z"/><path id="Path_1850" style="fill:#412660" d="M-1292.7-4016.8C-1292.8-4016.8-1292.8-4016.7-1292.7-4016.8c-1,0.5-2.1,0.7-3.1,0.7&#10;&#9;&#9;&#9;&#9;c-3.3-0.1-6.5-1.5-8.8-3.9c-7.6-7.2-11.1-16.8-8.7-24c0.2-0.8,0.6-1.4,1.2-2c-2.2,7.6,1.5,17.6,9.4,25.1c2.5,2.5,5.8,4,9.4,4.1&#10;&#9;&#9;&#9;&#9;C-1293.2-4016.8-1292.9-4016.8-1292.7-4016.8z"/></g><g id="Group_3530" transform="translate(11.295 185.071)"><path id="Path_1851" style="fill:#412660" d="M-1304.3-4016.8L-1304.3-4016.8c-10.7-10.2-15.6-23.6-12.3-33.8c1.2-3.6,4.5-5.5,8.4-5.5&#10;&#9;&#9;&#9;&#9;c4.7,0.2,9.1,2.2,12.4,5.5c10.7,10.2,15.6,23.6,12.3,33.8l0,0c-1.2,3.6-4.5,5.5-8.4,5.5&#10;&#9;&#9;&#9;&#9;C-1296.5-4011.5-1301-4013.4-1304.3-4016.8z"/><path id="Path_1852" style="fill:#412660" d="M-1290.4-4010.4l3.7-2.2l-25.7-42.5l-3.5,2.1L-1290.4-4010.4z"/><path id="Path_1853" style="fill:#FF7769" d="M-1307.7-4014.7L-1307.7-4014.7c-10.7-10.2-15.6-23.6-12.3-33.8c1.2-3.6,4.5-5.5,8.4-5.5&#10;&#9;&#9;&#9;&#9;c4.7,0.2,9.1,2.2,12.4,5.5c10.7,10.2,15.6,23.6,12.3,33.8l0,0c-1.2,3.7-4.5,5.5-8.4,5.5&#10;&#9;&#9;&#9;&#9;C-1300-4009.4-1304.4-4011.4-1307.7-4014.7z"/><path id="Path_1854" style="fill:#AEEAF4" d="M-1306.4-4019.1L-1306.4-4019.1c-7.6-7.2-11.1-16.8-8.7-24c0.8-2.6,3.2-3.9,6-3.9&#10;&#9;&#9;&#9;&#9;c3.3,0.1,6.5,1.5,8.8,3.9c7.6,7.2,11.1,16.8,8.7,24l0,0c-0.8,2.6-3.2,3.9-6,3.9C-1301-4015.3-1304.1-4016.7-1306.4-4019.1z"/><path id="Path_1855" style="fill:#FF7769" d="M-1306.4-4019.1c2.3,2.4,5.5,3.7,8.8,3.9c1.3,0,2.6-0.3,3.7-1c0.3-0.2,0.6-0.4,0.9-0.7&#10;&#9;&#9;&#9;&#9;c-1,0.4-2,0.6-3,0.6c-3.3-0.1-6.5-1.5-8.8-3.9c-7.6-7.2-11.1-16.8-8.7-24c0.3-0.8,0.7-1.6,1.4-2.2c-1.4,0.6-2.5,1.8-2.9,3.3&#10;&#9;&#9;&#9;&#9;C-1317.5-4035.8-1314.1-4026.3-1306.4-4019.1z"/><path id="Path_1856" style="opacity:0.6;fill:#FFFFFF;enable-background:new;" d="M-1306.4-4019.1c2.3,2.4,5.5,3.7,8.8,3.9c1.3,0,2.6-0.3,3.7-1c0.3-0.2,0.6-0.4,0.9-0.7&#10;&#9;&#9;&#9;&#9;c-1,0.4-2,0.6-3,0.6c-3.3-0.1-6.5-1.5-8.8-3.9c-7.6-7.2-11.1-16.8-8.7-24c0.3-0.8,0.7-1.6,1.4-2.2c-1.4,0.6-2.5,1.8-2.9,3.3&#10;&#9;&#9;&#9;&#9;C-1317.5-4035.8-1314.1-4026.3-1306.4-4019.1z"/><path id="Path_1857" style="fill:#412660" d="M-1292.7-4016.8C-1292.8-4016.8-1292.8-4016.7-1292.7-4016.8c-1,0.5-2.1,0.7-3.1,0.7&#10;&#9;&#9;&#9;&#9;c-3.3-0.1-6.5-1.5-8.8-3.9c-7.6-7.2-11.1-16.8-8.7-24c0.2-0.8,0.6-1.4,1.2-2c-2.2,7.6,1.5,17.6,9.4,25.1c2.5,2.5,5.8,4,9.4,4.1&#10;&#9;&#9;&#9;&#9;C-1293.2-4016.8-1292.9-4016.8-1292.7-4016.8z"/></g><path id="Path_1859" style="fill:#412660" d="M-1188.3-3799.2v30c0,11.1-5.4,21.5-14.6,27.7c-27,18.7-62.8,18.7-89.8,0&#10;&#9;&#9;&#9;c-9.2-6.3-14.6-16.6-14.6-27.7h0v-1.1c3.4,5.3,7.9,9.8,13.1,13.3c10.9,7.3,21.7,7.7,29.7,8c16.9,0.5,33.5-4.4,47.5-13.8&#10;&#9;&#9;&#9;c12.2-8.2,21.8-19.7,27.5-33.3C-1189-3797.1-1188.6-3798.2-1188.3-3799.2z"/><g id="Group_3531" transform="translate(10.298 265.506)"><path id="Path_1860" style="fill:#FF7769" d="M-1318-3968.7c-2-10.8-4.8-31-1.6-51.1c0.9-6.4,2.7-12.7,5.5-18.5c3.2-6.7,7.7-12.7,13-17.7&#10;&#9;&#9;&#9;&#9;h0l4.4,2.5c-5.4,5.1-9.8,11.1-13,17.7c-2.8,5.9-4.6,12.1-5.5,18.5c-3.2,20-0.4,40.3,1.6,51.1L-1318-3968.7z"/><path id="Path_1861" style="fill:#FF7769" d="M-1296.6-4053.5c-0.1,16.7-0.2,33.4-0.3,50.1c-5.5,12.4-11.1,24.8-16.6,37.2&#10;&#9;&#9;&#9;&#9;c-2-10.8-4.8-31-1.6-51.1c0.9-6.4,2.7-12.7,5.5-18.5C-1306.4-4042.4-1302-4048.5-1296.6-4053.5z"/><path id="Path_1862" style="opacity:0.6;fill:#FFFFFF;enable-background:new;" d="M-1296.6-4053.5c-0.1,16.7-0.2,33.4-0.3,50.1c-5.5,12.4-11.1,24.8-16.6,37.2&#10;&#9;&#9;&#9;&#9;c-2-10.8-4.8-31-1.6-51.1c0.9-6.4,2.7-12.7,5.5-18.5C-1306.4-4042.4-1302-4048.5-1296.6-4053.5z"/></g><path id="Path_1863" style="fill:#D8423F" d="M-1187.8-3703.2c2-10.8,4.8-31,1.6-51.1c-0.9-6.4-2.7-12.7-5.5-18.5&#10;&#9;&#9;&#9;c-3.2-6.7-7.7-12.7-13-17.7h0l-4.4,2.5c5.4,5.1,9.8,11.1,13,17.7c2.8,5.9,4.6,12.1,5.5,18.5c3.2,20,0.4,40.3-1.6,51.1&#10;&#9;&#9;&#9;L-1187.8-3703.2z"/><path id="Path_1864" style="opacity:0.6;fill:#FFFFFF;enable-background:new;" d="M-1187.8-3703.2c2-10.8,4.8-31,1.6-51.1c-0.9-6.4-2.7-12.7-5.5-18.5&#10;&#9;&#9;&#9;c-3.2-6.7-7.7-12.7-13-17.7h0l-4.4,2.5c5.4,5.1,9.8,11.1,13,17.7c2.8,5.9,4.6,12.1,5.5,18.5c3.2,20,0.4,40.3-1.6,51.1&#10;&#9;&#9;&#9;L-1187.8-3703.2z"/><path id="Path_1865" style="fill:#D8423F" d="M-1209.2-3788c0.1,16.7,0.2,33.4,0.3,50.1c5.5,12.4,11.1,24.8,16.6,37.2&#10;&#9;&#9;&#9;c2-10.8,4.8-31,1.6-51.1c-0.9-6.4-2.7-12.7-5.5-18.5C-1199.4-3776.9-1203.8-3782.9-1209.2-3788z"/><path style="fill:#17ACA7" d="M-1217.2-4016.6c-8.4-16.8-24.6-36.5-24.6-36.5c-1.7-2.2-3.7-2.9-5.5-2.8l-0.9,0c-1.8,0-3.7,0.7-5.4,2.8&#10;&#9;&#9;&#9;c0,0-16.2,19.7-24.6,36.5c-1.1,2.1-13.5,22.6-15.7,41.8c0,8.6,4.2,16.7,11.3,21.6c10.3,7.1,22.4,10.9,34.9,10.9h0&#10;&#9;&#9;&#9;c12.5,0,24.6-3.8,34.9-10.9c7.1-4.9,11.3-12.9,11.3-21.6C-1203.8-3994-1216.2-4014.5-1217.2-4016.6z"/><path id="Path_1858" style="opacity:0.6;fill:#FFFFFF;enable-background:new;" d="M-1199.6-3884.7v28.4c-1.9,12.2-14.6,26.9-17.3,28v-81.3h0c-0.2-29.1-3.7-58.1-10.6-86.4&#10;&#9;&#9;&#9;c-0.3-1-1.6-5.2-3.4-11l0,0c-0.1-0.3-0.2-0.7-0.3-1c-0.4-1.9-1-3.7-1.8-5.4c-2.8-8.5-6.2-18.6-9.2-26.8c-1.3-3.7-2.6-7-3.7-9.5&#10;&#9;&#9;&#9;c-0.9-2.1-1.8-4.2-2.8-6.3c0,0,0.1,0,0.1,0c0.2,0,0.5,0,0.7,0c0.2,0,0.5,0,0.7,0c0.9,0,1.9,0.3,2.7,0.7c5.2,8.6,11.5,20,15.9,30.5&#10;&#9;&#9;&#9;c1.1,2.6,2.3,5.9,3.7,9.5c3,8.2,14.5,43.1,14.7,44.2C-1203.4-3942.8-1199.8-3913.8-1199.6-3884.7L-1199.6-3884.7z"/></g></g></svg>