<svg xmlns="http://www.w3.org/2000/svg" viewBox="0 0 277.784 290.739"><g id="Pantry" transform="translate(-888.138 -4372.547)"><path id="Path_1774" data-name="Path 1774" d="M547.248,603.283c-1.647,6.621,9.966,11.535,8.142,18.76-2.651,10.493-29.271,11.278-49.555,14.159-42.332,6.011-97.812,27.192-100.431,48.955-2.908,24.167,59.228,50.167,73.176,55.818,21.21,13.4,32.772,12.647,39.644,9.557,6-2.7,6.934-6.654,13.256-7.772,9.713-1.717,12.727,6.7,25.679,9.542,16.153,3.549,31.064-5.235,35.4-7.787a41.446,41.446,0,0,0,10.972-8.5c13.163-14.78,10.081-35.427,9.911-36.458-2.307-14.012-10.646-21.23-7.434-25.131,2.213-2.688,7.468-.835,13.451,0,18.993,2.649,39.638-5.762,50.893-17.7,2.108-2.235,15.8-16.76,12.112-31.149C678.2,608.967,653.5,603.255,632.2,598.328,594.506,589.61,550.293,591.046,547.248,603.283Z" transform="translate(482.832 3910.153)" fill="#d8e2ff"/><g id="Group_3522" data-name="Group 3522" transform="translate(923.221 4452.693)"><path id="Path_1817" data-name="Path 1817" d="M492.722,19.78V3.049A3.044,3.044,0,0,0,488.057.473L436.33,33.014a8.116,8.116,0,0,0-3.8,6.871v.2L402.446,59.014l-.005-.008V75.237l0,0v51.681h0v14.211l60.188,37.863,60.187-37.863V59.005Z" transform="translate(-402.439 0)" fill="#52396e"/><g id="Group_3521" data-name="Group 3521" transform="translate(0 0)"><path id="Path_1818" data-name="Path 1818" d="M462.626,96.038,402.444,58.179l30.1-1.36Z" transform="translate(-402.439 0.836)" fill="#3c2358"/><path id="Path_1819" data-name="Path 1819" d="M462.629,177.494l-60.187-37.863,60.187-37.863,60.187,37.863Z" transform="translate(-402.439 1.497)" fill="#aeeaf4"/><path id="Path_1820" data-name="Path 1820" d="M462.629,178.047l-60.187-37.863,0-82.024,60.185,37.765Z" transform="translate(-402.439 0.856)" fill="#52396e"/><path id="Path_1821" data-name="Path 1821" d="M461.756,178.136l60.187-37.863V58.15L461.756,96.013Z" transform="translate(-401.567 0.855)" fill="#8669b6"/><path id="Path_1822" data-name="Path 1822" d="M462.626,163.689l-60.187-37.863V74.144l60.187,37.863Z" transform="translate(-402.439 1.091)" fill="#d3d3d3"/><path id="Path_1823" data-name="Path 1823" d="M461.754,163.689l60.187-37.863V74.144l-60.187,37.863Z" transform="translate(-401.567 1.091)" fill="#f4f4f4"/><path id="Path_1824" data-name="Path 1824" d="M462.629,178.136l-60.187-37.863V58.15Z" transform="translate(-402.439 0.855)" fill="#fff" opacity="0.6"/><path id="Path_1825" data-name="Path 1825" d="M492.286,19.493l30.094,39.226L462.192,96.582,432.1,57.356" transform="translate(-402.003 0.287)" fill="#be99f9"/><path id="Path_1826" data-name="Path 1826" d="M432.54,57.368l-30.1,1.36,60.187-37.863L492.724,19.5" transform="translate(-402.439 0.287)" fill="#52396e"/><path id="Path_1827" data-name="Path 1827" d="M432.1,57.655l60.186-37.863V3.049A3.044,3.044,0,0,0,487.621.472L435.894,33.014a8.115,8.115,0,0,0-3.795,6.871Z" transform="translate(-402.003 0)" fill="#8669b6"/></g></g><g id="Group_3511" data-name="Group 3511" transform="translate(1009.81 4555.205)"><path id="Path_1767" data-name="Path 1767" d="M663.346,405.54a33.557,33.557,0,0,1-18.588,3.007c-13.24-1.447-21.5-9.988-24.55-13.15a48.28,48.28,0,0,1-12.945-27.46c-1.5-12.737,1.144-35.546,16.325-41.814,15.093-6.232,32.115,8.208,36.547,11.968,13.489,11.443,26.568,33.589,18.9,51.286C674.441,399.971,664.049,405.2,663.346,405.54Z" transform="translate(-606.896 -324.47)" fill="#412660"/><path id="Path_1768" data-name="Path 1768" d="M663.688,402.835c-18.95,6.05-37.279-14.559-39.317-16.851-10.461-11.763-19.222-32.142-11.594-48.1,1.1-2.3,4.158-8.7,10.907-11.765,14.945-6.785,33.517,9.339,36.547,11.969,12.845,11.15,27.449,33.824,18.9,51.286C678.7,390.26,673.967,399.554,663.688,402.835Z" transform="translate(-606.992 -324.466)" fill="#0b7f79"/><path id="Path_1769" data-name="Path 1769" d="M673.224,394.613c-10.083,10.843-30.944,6.5-45.277-8.4s-18.975-43.955-8.3-54.219,26.99-4.12,41.932,10.174C678.167,358.035,685.046,381.9,673.224,394.613Z" transform="translate(-607.118 -324.544)" fill="#17aca7"/><path id="Path_1770" data-name="Path 1770" d="M670.573,372.528a10.027,10.027,0,0,1,3.721,5.412,10.243,10.243,0,0,1-2.537,9.3c-3.623,3.819-10.914,4.252-17.251.155" transform="translate(-608.426 -326.01)" fill="#0b7f79"/><path id="Path_1771" data-name="Path 1771" d="M666.629,373.14h0a27.55,27.55,0,0,0-21.682-22.546h0a11.728,11.728,0,0,0-13.919,13.386h0a27.549,27.549,0,0,0,21.681,22.546h0a11.729,11.729,0,0,0,13.92-13.386Z" transform="translate(-607.666 -325.298)" fill="#623f93"/><path id="Path_1772" data-name="Path 1772" d="M664.759,382.121c-8.316,8-14.564,1.03-22.56-7.286S627.484,360,635.8,352.007a20.89,20.89,0,1,1,28.96,30.114Z" transform="translate(-607.702 -325.163)" fill="#623f93"/><path id="Path_1773" data-name="Path 1773" d="M650.1,385.876a14.9,14.9,0,0,0,8.43.812c7.692-1.644,12.124-9.893,13.025-16.407A21.886,21.886,0,0,0,668.977,357a23.892,23.892,0,0,1-1.73,16.348C662.11,383.5,651.4,385.64,650.1,385.876Z" transform="translate(-608.284 -325.511)" fill="#412660"/></g><g id="Group_3527" data-name="Group 3527" transform="translate(1051.869 4372.547)"><path id="Path_1828" data-name="Path 1828" d="M168.481,521.96a13.544,13.544,0,0,1,13.544-13.544h66.958a13.544,13.544,0,0,1,13.544,13.544V623.984h-.053a26.407,26.407,0,0,1-11.5,21.7h0a62.491,62.491,0,0,1-70.951,0h0a26.411,26.411,0,0,1-11.5-21.7h-.053Z" transform="translate(-168.284 -464.939)" fill="#ff7769"/><path id="Path_1829" data-name="Path 1829" d="M168.412,544.448a26.482,26.482,0,0,0,11.514,20.964,62.717,62.717,0,0,0,71.208,0,26.486,26.486,0,0,0,11.514-20.964h.136v35.883h-.106a26.517,26.517,0,0,1-11.543,21.981,62.716,62.716,0,0,1-71.208,0,26.514,26.514,0,0,1-11.543-21.981h-.106V544.448Z" transform="translate(-168.276 -454.778)" fill="#f4f4f4"/><rect id="Rectangle_1126" data-name="Rectangle 1126" width="56.451" height="88.053" rx="28.226" transform="translate(19.028 89.673)" fill="#f4f4f4"/><g id="Group_3524" data-name="Group 3524" transform="translate(65.989 60.783)" opacity="0.6"><path id="Path_1830" data-name="Path 1830" d="M182.3,521.915c1.547.592,12.339,9.3,12.129,21.964h0v96.61a49.589,49.589,0,0,1-5.409,2.55,50.681,50.681,0,0,1-7.755,2.617V556.576a118.889,118.889,0,0,0-3.379-28.373,33.967,33.967,0,0,0-1.258-4.334A25.492,25.492,0,0,0,182.3,521.915Z" transform="translate(-176.636 -521.915)" fill="#fff"/></g><g id="Group_3525" data-name="Group 3525" transform="translate(3.922 0)"><path id="Path_1831" data-name="Path 1831" d="M258,498.514V510.4h-.06a24.31,24.31,0,0,1-10.548,19.175,57.648,57.648,0,0,1-65.447,0A24.312,24.312,0,0,1,171.394,510.4h-.059V498.514Z" transform="translate(-171.335 -467.731)" fill="#412660"/><path id="Path_1832" data-name="Path 1832" d="M181.944,484.691h0a57.643,57.643,0,0,1,65.447,0h0a24.542,24.542,0,0,1,0,40.406h0a57.647,57.647,0,0,1-65.447,0h0a24.542,24.542,0,0,1,0-40.406Z" transform="translate(-171.335 -474.502)" fill="#623f93"/></g><path id="Path_1833" data-name="Path 1833" d="M258.159,583.459c-1.459,20.552-1.459,20.552-3.9,25.919a27.086,27.086,0,0,1-6.572,8.811c-8.327,7.735-27.068,15.7-48.243,12.4a67.623,67.623,0,0,1-31.017-13.658,26.323,26.323,0,0,0,7.461,7.727,63.027,63.027,0,0,0,70.9,0,24.745,24.745,0,0,0,7.837-8.3A27,27,0,0,0,258.285,603C258.242,592.21,258.2,594.244,258.159,583.459Z" transform="translate(-163.976 -443.777)" fill="#d8423f"/><g id="Group_3526" data-name="Group 3526" transform="translate(26.774 104.227)"><path id="Path_1834" data-name="Path 1834" d="M212.449,559.837a10.81,10.81,0,0,0-8.029,3.525,31.431,31.431,0,0,0-5.6,10.05c-.7,1.855-1.541,4.2-3.018,8.741-2.025,6.239-3.035,9.361-3.326,11.024-.607,3.491-1.384,7.926.21,13.212A22.289,22.289,0,0,0,199.442,617a19.028,19.028,0,0,0,12.513,4.331c.168.006.331.012.495.012" transform="translate(-191.741 -559.837)" fill="#f9ab75"/><path id="Path_1835" data-name="Path 1835" d="M197.144,590.992h0a12.38,12.38,0,1,1,24.76,0h0a12.381,12.381,0,0,1-12.38,12.38h0A12.38,12.38,0,0,1,197.144,590.992Z" transform="translate(-188.817 -549.677)" fill="#412660"/></g><path id="Path_1836" data-name="Path 1836" d="M174.745,513.423a61.1,61.1,0,0,0,69.317,0,25.668,25.668,0,0,0,10.717-16.308c.026.461.038.936.038,1.4a24.365,24.365,0,0,1-10.6,20.206c-2.345,1.615-7.175,4.215-7.12,4.188v11.255a56.379,56.379,0,0,1-7.948,3.219V526.129a57.576,57.576,0,0,1-50.377-7.411,24.252,24.252,0,0,1-7.436-8.1A26.255,26.255,0,0,0,174.745,513.423Z" transform="translate(-164.233 -468.126)" fill="#fff" opacity="0.6"/></g></g></svg>