<svg version="1.1" xmlns="http://www.w3.org/2000/svg" xmlns:xlink="http://www.w3.org/1999/xlink" x="0px" y="0px" viewBox="0 0 245.5 316" style="enable-background:new 0 0 245.5 316;" xml:space="preserve"><g><path id="Path_1775" style="fill:#D8E2FF" d="M44.2,246.5c-6.3,5-14,12-15.7,22.6c-2.4,15.2,9.1,28,11.1,30.2c16,17.7,41.5,16.9,52.1,16.6&#10;&#9;&#9;c15.7-0.5,42.8,0.4,56.2-17.1c9.7-12.7,5.8-26.5,15.8-30.8c8.1-3.5,12.8,4.7,27.5,4.1c2.1-0.1,23-1.2,30.4-16.6&#10;&#9;&#9;c6-12.4-0.8-25.9-1.8-27.8c-2.3-4.3-5.5-8.2-9.4-11.2c-17.3-13.9-46.8-12.5-55.1-12C155.3,204.5,91.7,208.7,44.2,246.5z"/><g><path id="Path_1866" style="fill:#F25D55" d="M118,289L118,289c-5.6,0-10.3-4.2-11-9.8l-3.9-32.5h29.7l-3.9,32.5&#10;&#9;&#9;&#9;C128.4,284.8,123.7,289,118,289z"/><path id="Path_1867" style="fill:#D8423F" d="M127.2,246.8h5.6l-3.9,32.5c-0.7,5.6-5.4,9.8-11,9.8l0,0c2-0.3,3.8-1.6,4.8-3.4&#10;&#9;&#9;&#9;C124.6,282,126.7,269.5,127.2,246.8z"/><path id="Path_1868" style="fill:#D8423F" d="M71.6,259.7L71.6,259.7c-5.6,0-10.3-4.2-11-9.8l-3.9-32.5h29.7l-3.9,32.5&#10;&#9;&#9;&#9;C81.9,255.5,77.2,259.7,71.6,259.7z"/><path id="Path_1869" style="fill:#D8423F" d="M180.8,250.4L180.8,250.4c-5.6,0-10.3-4.2-11-9.8l-3.9-32.5h29.7l-3.9,32.5&#10;&#9;&#9;&#9;C191.2,246.2,186.4,250.4,180.8,250.4z"/></g><g class="body"><ellipse id="Ellipse_144" transform="matrix(0.8487 -0.5288 0.5288 0.8487 -35.9366 121.954)" style="fill:#412660" cx="195.2" cy="123.8" rx="14.1" ry="5.9"/><path id="Path_6620" style="fill:#FF7769" d="M84.9,101.1c47.2-24,102-10.4,122.4,30.4s-1.4,93.3-48.6,117.3s-102,10.4-122.4-30.4&#10;&#9;&#9;&#9;S37.7,125.1,84.9,101.1z"/><path id="Path_1872" style="fill:#412660" d="M125.9,111.2c-4.4,1.4-8.6,3.1-12.7,5.2c-8.4,4.2-16.1,9.8-22.7,16.4l-5.8-3.6&#10;&#9;&#9;&#9;c7.2-7.9,15.7-14.4,25.3-19.2c2.7-1.3,5.4-2.5,8.2-3.6L125.9,111.2z"/><path id="Path_1873" style="fill:#271344" d="M125.7,111.2c-2.6,0.8-5.2,1.8-7.8,2.9v-7.7c0,0,0.1,0,0.1,0L125.7,111.2z"/><g id="Group_3473" class="coin-1" transform="translate(30.566 66.543)"><path id="Path_1643" style="fill:#412660" d="M74.2,41.3L74.2,41.3C85.4,30.6,90.6,16.5,87.1,5.8C85.8,1.9,82.4,0,78.2,0s-9,1.9-13.1,5.8&#10;&#9;&#9;&#9;&#9;C53.9,16.5,48.8,30.6,52.2,41.3l0,0c1.3,3.8,4.7,5.8,8.9,5.8S70.1,45.1,74.2,41.3z"/><path id="Path_1644" style="fill:#412660" d="M59.5,48l-3.9-2.3L82.7,0.9l3.7,2.2L59.5,48z"/><path id="Path_1645" style="fill:#F9AB75" d="M77.7,43.5L77.7,43.5C89,32.8,94.2,18.6,90.7,8c-1.3-3.8-4.7-5.8-8.9-5.8s-9,1.9-13.1,5.8&#10;&#9;&#9;&#9;&#9;C57.5,18.6,52.3,32.8,55.8,43.5l0,0c1.3,3.8,4.7,5.8,8.9,5.8S73.7,47.3,77.7,43.5z"/><path id="Path_1646" style="fill:#FFD6BB" d="M76.4,38.9L76.4,38.9c8-7.6,11.7-17.6,9.2-25.2c-0.9-2.7-3.3-4.1-6.3-4.1&#10;&#9;&#9;&#9;&#9;c-3.5,0.2-6.8,1.6-9.3,4.1c-8,7.6-11.7,17.6-9.2,25.2l0,0c0.9,2.7,3.3,4.1,6.3,4.1C70.7,42.8,74,41.3,76.4,38.9z"/><path id="Path_1647" style="fill:#412660" d="M76.4,38.9c-2.5,2.5-5.8,3.9-9.3,4.1c-1.4,0-2.7-0.3-3.9-1c-0.3-0.2-0.7-0.5-0.9-0.7&#10;&#9;&#9;&#9;&#9;c1,0.4,2.1,0.7,3.2,0.6c3.5-0.2,6.8-1.6,9.3-4.1c8-7.6,11.7-17.6,9.2-25.2c-0.3-0.9-0.8-1.7-1.4-2.3c1.5,0.6,2.6,1.9,3.1,3.4&#10;&#9;&#9;&#9;&#9;C88.1,21.2,84.4,31.3,76.4,38.9z"/></g><g id="Group_3474" class="coin-2" transform="translate(62.426)"><path id="Path_1648" style="fill:#412660" d="M74.2,41.3L74.2,41.3C85.4,30.6,90.6,16.5,87.1,5.8C85.8,1.9,82.4,0,78.2,0s-9,1.9-13.1,5.8&#10;&#9;&#9;&#9;&#9;C53.9,16.5,48.8,30.6,52.2,41.3l0,0c1.3,3.8,4.7,5.8,8.9,5.8S70.1,45.1,74.2,41.3z"/><path id="Path_1649" style="fill:#412660" d="M59.5,48l-3.9-2.3L82.7,0.9l3.7,2.2L59.5,48z"/><path id="Path_1650" style="fill:#F9AB75" d="M77.7,43.5L77.7,43.5C89,32.8,94.2,18.6,90.7,8c-1.3-3.8-4.7-5.8-8.9-5.8s-9,1.9-13.1,5.8&#10;&#9;&#9;&#9;&#9;C57.5,18.6,52.3,32.8,55.8,43.5l0,0c1.3,3.8,4.7,5.8,8.9,5.8S73.7,47.3,77.7,43.5z"/><path id="Path_1651" style="fill:#FFD6BB" d="M76.4,38.9L76.4,38.9c8-7.6,11.7-17.6,9.2-25.2c-0.9-2.7-3.3-4.1-6.3-4.1&#10;&#9;&#9;&#9;&#9;c-3.5,0.2-6.8,1.6-9.3,4.1c-8,7.6-11.7,17.6-9.2,25.2l0,0c0.9,2.7,3.3,4.1,6.3,4.1C70.7,42.8,74,41.3,76.4,38.9z"/><path id="Path_1652" style="fill:#412660" d="M76.4,38.9c-2.5,2.5-5.8,3.9-9.3,4.1c-1.4,0-2.7-0.3-3.9-1c-0.3-0.2-0.7-0.5-0.9-0.7&#10;&#9;&#9;&#9;&#9;c1,0.4,2.1,0.7,3.2,0.6c3.5-0.2,6.8-1.6,9.3-4.1c8-7.6,11.7-17.6,9.2-25.2c-0.3-0.9-0.8-1.7-1.4-2.3c1.5,0.6,2.6,1.9,3.1,3.4&#10;&#9;&#9;&#9;&#9;C88.1,21.2,84.4,31.3,76.4,38.9z"/></g><g id="Group_3475" class="coin-3" transform="translate(0 22.421)"><path id="Path_1653" style="fill:#412660" d="M74.2,41.3L74.2,41.3C85.4,30.6,90.6,16.5,87.1,5.8C85.8,1.9,82.4,0,78.2,0s-9,1.9-13.1,5.8&#10;&#9;&#9;&#9;&#9;C53.9,16.5,48.7,30.6,52.2,41.3l0,0c1.3,3.8,4.7,5.8,8.9,5.8S70.1,45.1,74.2,41.3z"/><path id="Path_1654" style="fill:#412660" d="M59.5,48l-3.9-2.3L82.7,0.9l3.7,2.2L59.5,48z"/><path id="Path_1655" style="fill:#F9AB75" d="M77.7,43.5L77.7,43.5C89,32.8,94.2,18.6,90.7,8c-1.3-3.8-4.7-5.8-8.9-5.8s-9,1.9-13.1,5.8&#10;&#9;&#9;&#9;&#9;C57.5,18.6,52.3,32.8,55.8,43.5l0,0c1.3,3.8,4.7,5.8,8.9,5.8S73.7,47.3,77.7,43.5z"/><path id="Path_1656" style="fill:#FFD6BB" d="M76.4,38.9L76.4,38.9c8-7.6,11.7-17.6,9.2-25.2c-0.9-2.7-3.3-4.1-6.3-4.1&#10;&#9;&#9;&#9;&#9;c-3.5,0.2-6.8,1.6-9.3,4.1c-8,7.6-11.7,17.6-9.2,25.2l0,0c0.9,2.7,3.3,4.1,6.3,4.1C70.7,42.8,74,41.3,76.4,38.9z"/><path id="Path_1657" style="fill:#412660" d="M76.4,38.8c-2.5,2.5-5.8,3.9-9.3,4.1c-1.4,0-2.7-0.3-3.9-1c-0.3-0.2-0.7-0.5-0.9-0.7&#10;&#9;&#9;&#9;&#9;c1,0.4,2.1,0.7,3.2,0.6c3.5-0.2,6.8-1.6,9.3-4.1c8-7.6,11.7-17.6,9.2-25.2c-0.3-0.9-0.8-1.7-1.4-2.3c1.5,0.6,2.6,1.9,3.1,3.4&#10;&#9;&#9;&#9;&#9;C88.1,21.2,84.4,31.3,76.4,38.8z"/></g><path style="fill:#FF7769" d="M158.7,248.9c-47.2,24-102,10.4-122.4-30.4C18.6,183,32.7,138.7,67.6,112c2.7-2.1,17.1,17.2,17.1,17.2&#10;&#9;&#9;&#9;l5.8,3.6c6.6-6.7,14.3-12.2,22.7-16.4c4.1-2.1,8.3-3.8,12.7-5.2V89.6c34.5-2.5,66.7,12.8,81.3,42&#10;&#9;&#9;&#9;C227.6,172.3,205.9,224.9,158.7,248.9z"/><g id="Group_3533" transform="translate(32.087 106.209)"><ellipse id="Ellipse_146" transform="matrix(0.2667 -0.9638 0.9638 0.2667 -59.4377 57.061)" style="fill:#412660" cx="7.8" cy="67.6" rx="8.8" ry="5.2"/><circle id="Ellipse_147" style="fill:#412660" cx="50.9" cy="93.3" r="8"/><circle id="Ellipse_147_1_" style="fill:#FF7769" class="eye" cx="46.8" cy="98" r="9.5"/><ellipse id="Ellipse_147_2_" style="fill:#FF7769" class="eye" cx="7.8" cy="72.2" rx="6.6" ry="9.6"/></g><path id="Path_1870" style="fill:#FF7769" d="M54.7,248.5c4.7-3.1,9.4-6.2,14-9.3c1.1-1.8,1.9-3.8,2.1-5.9c0.3-2.4,0.1-6-4.8-13.6&#10;&#9;&#9;&#9;c-4.5-6.9-10.2-13-16.8-17.9c-5.3-4-8.8-5.5-12.6-6.1c-1.8-0.3-3.6-0.4-5.3-0.3c-1.2,0.8-2.4,1.7-3.7,2.5&#10;&#9;&#9;&#9;c-2.3,1.5-4.5,2.9-6.7,4.3"/><path id="Path_1871" style="opacity:0.6;fill:#FFFFFF;enable-background:new    ;" d="M54.7,248.5c4.7-3.1,9.4-6.2,14-9.3c1.1-1.8,1.9-3.8,2.1-5.9c0.3-2.4,0.1-6-4.8-13.6&#10;&#9;&#9;&#9;c-4.5-6.9-10.2-13-16.8-17.9c-5.3-4-8.8-5.5-12.6-6.1c-1.8-0.3-3.6-0.4-5.3-0.3c-1.2,0.8-2.4,1.7-3.7,2.5&#10;&#9;&#9;&#9;c-2.3,1.5-4.5,2.9-6.7,4.3"/><g class="left-ear"><path id="Path_1874" style="fill:#412660" d="M37.3,106.1c4.2,1,8.2,2.6,11.8,4.9c6.8,4.3,12.2,10.5,15.5,17.9c-1.4,3.9-3.2,7.5-4.6,11.3"/><g id="Group_3534" transform="translate(32.098 48.385)"><path id="Path_1875" style="fill:#F25D55" d="M5.5,57.8c2.1,0.6,13.6,4,19.6,20.4c1.6,4.4,2.6,9.1,3.1,13.7c-1.6-0.2-3.3-0.1-5,0.1&#10;&#9;&#9;&#9;&#9;&#9;c-10.7,1.5-17,10.7-18.9,13.5c-3.3-9-4.6-18.5-3.8-28C1.1,70.7,2.7,64,5.5,57.8z"/><path id="Path_1876" style="opacity:0.8;fill:#F25D55;enable-background:new    ;" d="M5.5,57.8c2.1,0.6,13.6,4,19.6,20.4c1.6,4.4,2.6,9.1,3.1,13.7c-1.6-0.2-3.3-0.1-5,0.1&#10;&#9;&#9;&#9;&#9;&#9;c-10.7,1.5-17,10.7-18.9,13.5c-3.3-9-4.6-18.5-3.8-28C1.1,70.7,2.7,64,5.5,57.8z"/></g></g><g class="right-ear"><path id="Path_1877" style="fill:#412660" d="M121,146.5c2,4.7,3.1,9.6,3.5,14.6c0.5,9.2-1.7,18.4-6.5,26.4l-13.7,3.7"/><g id="Group_3535" transform="translate(87.171 88.609)"><path id="Path_1878" style="fill:#F25D55" d="M34.1,57.9C32,57.6,20,56.6,8.3,69.5C5.2,73.1,2.6,77,0.4,81.2C2,81.6,3.5,82.3,5,83.1&#10;&#9;&#9;&#9;&#9;&#9;c9.4,5.3,11.9,16.2,12.5,19.6c6.3-7.1,11.1-15.5,13.9-24.6C33.5,71.5,34.4,64.7,34.1,57.9z"/><path id="Path_1879" style="opacity:0.8;fill:#F25D55;enable-background:new    ;" d="M34.1,57.9C32,57.6,20,56.6,8.3,69.5C5.2,73.1,2.6,77,0.4,81.2C2,81.6,3.5,82.3,5,83.1&#10;&#9;&#9;&#9;&#9;&#9;c9.4,5.3,11.9,16.2,12.5,19.6c6.3-7.1,11.1-15.5,13.9-24.6C33.5,71.5,34.4,64.7,34.1,57.9z"/></g></g><path id="Path_1880" style="opacity:0.6;fill:#FFFFFF;enable-background:new    ;" d="M179.7,235.3c-7.5,6.2-8.9,7.5-20.9,13.6c-3.4,1.7-6.9,3.2-10.4,4.6c-0.1,0-0.1,0-0.1,0&#10;&#9;&#9;&#9;c-0.3-0.6,29.4-20,42.7-44.5c13.5-24.9,13.4-61.2-4.7-88.4c-8.6-12.6-20.3-22.8-34.1-29.4c8.3,1.5,16.3,4.3,23.7,8.3&#10;&#9;&#9;&#9;c9.5,5,17.8,11.9,24.4,20.3c2.9,3.7,5.4,7.7,7.5,11.9c4.7,9.5,7.3,19.8,7.7,30.4c0.5,11.3-1.6,22.6-6,33.1&#10;&#9;&#9;&#9;c-2.7,6.7-6.2,13.1-10.3,19.1C193.8,222.1,187.2,229.2,179.7,235.3z"/><path id="Path_1881" style="fill:#FFFFFF" d="M55.7,248.2c-7.1,5.7-20.9,0.1-30.8-12.3s-12.1-27.1-5-32.8c0.7-0.6,1.5-1,2.3-1.4&#10;&#9;&#9;&#9;c8.7-3.6,21.8,4.8,28.5,13.7C58.3,225.5,62.4,242.8,55.7,248.2z"/><path id="Path_1882" style="fill:#F25D55" d="M55.7,248.2c-7.1,5.7-20.9,0.1-30.8-12.3s-12.1-27.1-5-32.8c0.7-0.6,1.5-1,2.3-1.4&#10;&#9;&#9;&#9;c8.7-3.6,21.8,4.8,28.5,13.7C58.3,225.5,62.4,242.8,55.7,248.2z"/><path id="Path_1883" style="fill:#D8423F" d="M32,243.1c-2.6-2.2-5-4.6-7.1-7.3c-9.9-12.5-12.1-27.1-5-32.8c0.7-0.6,1.5-1,2.3-1.4&#10;&#9;&#9;&#9;c2-0.8,4.1-1,6.2-0.8c-0.7,0.1-1.3,0.4-1.9,0.6c-1,0.4-1.8,0.9-2.6,1.5c-8,6.4-5.5,23,5.7,37.1C30.3,241.2,31.1,242.1,32,243.1z"/><path id="Path_1884" style="fill:#FF7769" d="M55.6,248.1c-1.1,0.9-2.4,1.5-3.8,1.8c6.6-6.7,1.9-25.3-6.4-36.4c-3.6-4.7-8-8.7-13.1-11.8&#10;&#9;&#9;&#9;c6.8,2.2,13.9,7.7,18.3,13.6C58.2,225.5,62.4,242.8,55.6,248.1z"/><g id="Group_3536" transform="translate(23.068 155.003)"><ellipse id="Ellipse_148" style="fill:#412660" cx="3.8" cy="65.6" rx="3.4" ry="7.9"/><ellipse id="Ellipse_149" style="fill:#412660" cx="16.8" cy="77.2" rx="3.4" ry="7.9"/></g></g></g></svg>